<mxfile host="app.diagrams.net" agent="Mozilla/5.0 (Windows NT 10.0; Win64; x64) AppleWebKit/537.36 (KHTML, like Gecko) Chrome/131.0.0.0 Safari/537.36" version="25.0.3">
  <diagram name="Page-1" id="H6KPvBzEptZU6dwC0Qss">
    <mxGraphModel dx="2284" dy="1856" grid="1" gridSize="10" guides="1" tooltips="1" connect="1" arrows="1" fold="1" page="1" pageScale="1" pageWidth="850" pageHeight="1100" math="0" shadow="0">
      <root>
        <mxCell id="0" />
        <mxCell id="1" parent="0" />
        <UserObject label="" plantUmlData="{&quot;data&quot;:&quot;@startuml\n\nactor Student\nactor Mentor\nactor Admin\n\nboundary LXPInterface\ncontrol FacadeController\nentity DomainModel\n\n== \&quot;Log In\&quot; Use Case ==\nStudent -&gt; LXPInterface: Enter credentials [IN]\nalt Invalid Credentials\n    LXPInterface --&gt; Student: Login failed [OUT]\nelse Valid Credentials\n    LXPInterface -&gt; FacadeController: validateLogin(credentials)\n    FacadeController -&gt; DomainModel: fetchUserData(email, password)\n    DomainModel --&gt; FacadeController: User data\n    FacadeController --&gt; LXPInterface: Login result [OUT]\n    LXPInterface --&gt; Student: Login success [OUT]\nend\n\n== \&quot;Take Personality Assessment\&quot; Use Case ==\nStudent -&gt; LXPInterface: Start Personality Assessment [IN]\nLXPInterface -&gt; FacadeController: initiateAssessment(userID, \&quot;Personality\&quot;)\nFacadeController -&gt; DomainModel: generateAssessmentQuestions(\&quot;Personality\&quot;)\nDomainModel --&gt; FacadeController: Questions\nFacadeController --&gt; LXPInterface: Display questions\nloop For each question\n    Student -&gt; LXPInterface: Submit answer [IN]\n    LXPInterface -&gt; FacadeController: processAnswer(userID, questionID, answer)\nend\nLXPInterface -&gt; FacadeController: finalizeAssessment(userID)\nFacadeController -&gt; DomainModel: calculateResults(userID)\nDomainModel --&gt; FacadeController: Personality report\nFacadeController --&gt; LXPInterface: Display results [OUT]\nLXPInterface --&gt; Student: Personality Assessment Results [OUT]\n\n== \&quot;Generate Personalized Roadmap\&quot; Use Case ==\nStudent -&gt; LXPInterface: Request Roadmap Generation [IN]\nalt Missing Assessment Results\n    LXPInterface --&gt; Student: Cannot generate roadmap, complete assessments first [OUT]\nelse Valid Assessment Results\n    LXPInterface -&gt; FacadeController: generateRoadmap(userID)\n    FacadeController -&gt; DomainModel: analyzeAssessmentResults(userID)\n    DomainModel --&gt; FacadeController: Recommended roadmap\n    FacadeController --&gt; LXPInterface: Display roadmap [OUT]\n    LXPInterface --&gt; Student: Personalized Roadmap [OUT]\nend\n\n== \&quot;Join Community\&quot; Use Case ==\nStudent -&gt; LXPInterface: Search for communities [IN]\nLXPInterface -&gt; FacadeController: fetchCommunities(query)\nFacadeController -&gt; DomainModel: retrieveCommunityList(query)\nDomainModel --&gt; FacadeController: List of communities\nFacadeController --&gt; LXPInterface: Display communities [OUT]\nloop Community Selection\n    Student -&gt; LXPInterface: View community details [IN]\n    LXPInterface -&gt; FacadeController: fetchCommunityDetails(communityID)\n    FacadeController -&gt; DomainModel: retrieveCommunityDetails(communityID)\n    DomainModel --&gt; FacadeController: Community details\n    FacadeController --&gt; LXPInterface: Display details [OUT]\nend\nStudent -&gt; LXPInterface: Join selected community [IN]\nLXPInterface -&gt; FacadeController: addCommunityMember(userID, communityID)\nFacadeController -&gt; DomainModel: updateCommunityMembership(userID, communityID)\nDomainModel --&gt; FacadeController: Membership confirmation\nFacadeController --&gt; LXPInterface: Join success [OUT]\nLXPInterface --&gt; Student: Community joined successfully [OUT]\n\n== \&quot;Provide Platform Feedback\&quot; Use Case ==\nStudent -&gt; LXPInterface: Submit feedback [IN]\nalt Invalid Input\n    LXPInterface --&gt; Student: Feedback submission failed [OUT]\nelse Valid Input\n    LXPInterface -&gt; FacadeController: saveFeedback(userID, feedbackType, message)\n    FacadeController -&gt; DomainModel: storeFeedback(userID, feedbackType, message)\n    DomainModel --&gt; FacadeController: Feedback saved\n    FacadeController --&gt; LXPInterface: Feedback submission success [OUT]\n    LXPInterface --&gt; Student: Confirmation of feedback submitted [OUT]\nend\n\n== \&quot;Earn Badges\&quot; Use Case ==\nStudent -&gt; LXPInterface: Complete milestone [IN]\nalt Milestone Already Completed\n    LXPInterface --&gt; Student: Badge already earned [OUT]\nelse New Milestone\n    LXPInterface -&gt; FacadeController: checkMilestoneCompletion(userID, milestoneID)\n    FacadeController -&gt; DomainModel: awardBadge(userID, badgeID)\n    DomainModel --&gt; FacadeController: Badge awarded\n    FacadeController --&gt; LXPInterface: Notify badge earned [OUT]\n    LXPInterface --&gt; Student: Badge earned notification [OUT]\nend\n\n== \&quot;Access Learning Resources\&quot; Use Case ==\nStudent -&gt; LXPInterface: Browse learning resources [IN]\nLXPInterface -&gt; FacadeController: fetchLearningResources()\nFacadeController -&gt; DomainModel: retrieveLearningResources()\nalt No Resources Available\n    DomainModel --&gt; FacadeController: Empty resource list\n    FacadeController --&gt; LXPInterface: Display no resources available [OUT]\n    LXPInterface --&gt; Student: No learning resources found [OUT]\nelse Resources Available\n    DomainModel --&gt; FacadeController: Learning resources list\n    FacadeController --&gt; LXPInterface: Display learning resources [OUT]\n    LXPInterface --&gt; Student: Learning resources displayed [OUT]\nend\n\n== \&quot;Request Mentorship\&quot; Use Case ==\nStudent -&gt; LXPInterface: Request mentorship [IN]\nLXPInterface -&gt; FacadeController: sendMentorshipRequest(userID, mentorID)\nFacadeController -&gt; DomainModel: storeMentorshipRequest(userID, mentorID)\nDomainModel --&gt; FacadeController: Mentorship request stored\nFacadeController --&gt; LXPInterface: Mentorship request success [OUT]\nLXPInterface --&gt; Student: Mentorship request confirmed [OUT]\n\n== \&quot;Offer Mentorship\&quot; Use Case ==\nMentor -&gt; LXPInterface: Offer mentorship availability [IN]\nLXPInterface -&gt; FacadeController: updateMentorshipAvailability(mentorID, schedule)\nFacadeController -&gt; DomainModel: saveMentorshipSchedule(mentorID, schedule)\nDomainModel --&gt; FacadeController: Schedule saved\nFacadeController --&gt; LXPInterface: Mentorship availability updated [OUT]\nLXPInterface --&gt; Mentor: Mentorship schedule confirmed [OUT]\n\n== \&quot;Moderate Community Discussions\&quot; Use Case ==\nAdmin -&gt; LXPInterface: Review flagged content [IN]\nLXPInterface -&gt; FacadeController: fetchFlaggedContent(communityID)\nFacadeController -&gt; DomainModel: retrieveFlaggedPosts(communityID)\nDomainModel --&gt; FacadeController: Flagged posts\nFacadeController --&gt; LXPInterface: Display flagged posts [OUT]\nAdmin -&gt; LXPInterface: Take moderation action [IN]\nLXPInterface -&gt; FacadeController: processModeration(action, postID)\nFacadeController -&gt; DomainModel: updatePostStatus(postID, action)\nDomainModel --&gt; FacadeController: Moderation result\nFacadeController --&gt; LXPInterface: Moderation success [OUT]\nLXPInterface --&gt; Admin: Moderation completed [OUT]\n\n== \&quot;Monitor System Analytics\&quot; Use Case ==\nAdmin -&gt; LXPInterface: Request analytics report [IN]\nLXPInterface -&gt; FacadeController: fetchSystemAnalytics()\nFacadeController -&gt; DomainModel: generateAnalyticsReport()\nDomainModel --&gt; FacadeController: Analytics data\nFacadeController --&gt; LXPInterface: Display analytics report [OUT]\nLXPInterface --&gt; Admin: Analytics report displayed [OUT]\n\n== \&quot;Reset Password\&quot; Use Case ==\nStudent -&gt; LXPInterface: Request password reset [IN]\nLXPInterface -&gt; FacadeController: sendResetLink(email)\nFacadeController -&gt; DomainModel: validateUserEmail(email)\nalt Email Exists\n    DomainModel --&gt; FacadeController: Reset link sent\n    FacadeController --&gt; LXPInterface: Reset email sent [OUT]\n    LXPInterface --&gt; Student: Check email for reset link [OUT]\nelse Email Does Not Exist\n    DomainModel --&gt; FacadeController: Email not found\n    FacadeController --&gt; LXPInterface: Reset request failed [OUT]\n    LXPInterface --&gt; Student: Email not registered [OUT]\nend\n\n@enduml\n&quot;,&quot;format&quot;:&quot;svg&quot;}" id="bhf8cbFVJt-ew9J3AxuU-1">
          <mxCell style="shape=image;noLabel=1;verticalAlign=top;aspect=fixed;imageAspect=0;image=data:image/svg+xml,PD94bWwgdmVyc2lvbj0iMS4wIiBlbmNvZGluZz0idXMtYXNjaWkiIHN0YW5kYWxvbmU9Im5vIj8+PHN2ZyB4bWxucz0iaHR0cDovL3d3dy53My5vcmcvMjAwMC9zdmciIHhtbG5zOnhsaW5rPSJodHRwOi8vd3d3LnczLm9yZy8xOTk5L3hsaW5rIiBjb250ZW50U3R5bGVUeXBlPSJ0ZXh0L2NzcyIgaGVpZ2h0PSIzODc5cHgiIHByZXNlcnZlQXNwZWN0UmF0aW89Im5vbmUiIHN0eWxlPSJ3aWR0aDoxMTk4cHg7aGVpZ2h0OjM4NzlweDtiYWNrZ3JvdW5kOiNGRkZGRkY7IiB2ZXJzaW9uPSIxLjEiIHZpZXdCb3g9IjAgMCAxMTk4IDM4NzkiIHdpZHRoPSIxMTk4cHgiIHpvb21BbmRQYW49Im1hZ25pZnkiPjxkZWZzLz48Zz48cmVjdCBmaWxsPSJub25lIiBoZWlnaHQ9IjE5Ny4xNzE5IiBzdHlsZT0ic3Ryb2tlOiMwMDAwMDA7c3Ryb2tlLXdpZHRoOjEuNTsiIHdpZHRoPSIxMTcxLjUiIHg9IjEwIiB5PSIxNjYuODEyNSIvPjxyZWN0IGZpbGw9Im5vbmUiIGhlaWdodD0iNzEuNzQyMiIgc3R5bGU9InN0cm9rZTojMDAwMDAwO3N0cm9rZS13aWR0aDoxLjU7IiB3aWR0aD0iODU4LjUiIHg9IjEwIiB5PSI1NTkuNDY4OCIvPjxyZWN0IGZpbGw9Im5vbmUiIGhlaWdodD0iMTk3LjE3MTkiIHN0eWxlPSJzdHJva2U6IzAwMDAwMDtzdHJva2Utd2lkdGg6MS41OyIgd2lkdGg9IjExNzEuNSIgeD0iMTAiIHk9Ijg1NC42MDk0Ii8+PHJlY3QgZmlsbD0ibm9uZSIgaGVpZ2h0PSIxNTUuNDg0NCIgc3R5bGU9InN0cm9rZTojMDAwMDAwO3N0cm9rZS13aWR0aDoxLjU7IiB3aWR0aD0iMTE3MS41IiB4PSIxMCIgeT0iMTI0Ny4yNjU2Ii8+PHJlY3QgZmlsbD0ibm9uZSIgaGVpZ2h0PSIxOTcuMTcxOSIgc3R5bGU9InN0cm9rZTojMDAwMDAwO3N0cm9rZS13aWR0aDoxLjU7IiB3aWR0aD0iMTE3MS41IiB4PSIxMCIgeT0iMTY1NC4wNjI1Ii8+PHJlY3QgZmlsbD0ibm9uZSIgaGVpZ2h0PSIxOTcuMTcxOSIgc3R5bGU9InN0cm9rZTojMDAwMDAwO3N0cm9rZS13aWR0aDoxLjU7IiB3aWR0aD0iMTE3MS41IiB4PSIxMCIgeT0iMTkzNS4wNjI1Ii8+PHJlY3QgZmlsbD0ibm9uZSIgaGVpZ2h0PSIxOTcuMTcxOSIgc3R5bGU9InN0cm9rZTojMDAwMDAwO3N0cm9rZS13aWR0aDoxLjU7IiB3aWR0aD0iMTE3MS41IiB4PSIxMCIgeT0iMjI3MS44OTA2Ii8+PHJlY3QgZmlsbD0ibm9uZSIgaGVpZ2h0PSIxOTcuMTcxOSIgc3R5bGU9InN0cm9rZTojMDAwMDAwO3N0cm9rZS13aWR0aDoxLjU7IiB3aWR0aD0iMTE3MS41IiB4PSIxMCIgeT0iMzU4NS44ODI4Ii8+PGxpbmUgc3R5bGU9InN0cm9rZTojMTgxODE4O3N0cm9rZS13aWR0aDowLjU7c3Ryb2tlLWRhc2hhcnJheTo1LjAsNS4wOyIgeDE9IjQ3IiB4Mj0iNDciIHkxPSI3OS45ODQ0IiB5Mj0iMzgwMC4wNTQ3Ii8+PGxpbmUgc3R5bGU9InN0cm9rZTojMTgxODE4O3N0cm9rZS13aWR0aDowLjU7c3Ryb2tlLWRhc2hhcnJheTo1LjAsNS4wOyIgeDE9IjEwOSIgeDI9IjEwOSIgeTE9Ijc5Ljk4NDQiIHkyPSIzODAwLjA1NDciLz48bGluZSBzdHlsZT0ic3Ryb2tlOiMxODE4MTg7c3Ryb2tlLXdpZHRoOjAuNTtzdHJva2UtZGFzaGFycmF5OjUuMCw1LjA7IiB4MT0iMTY0IiB4Mj0iMTY0IiB5MT0iNzkuOTg0NCIgeTI9IjM4MDAuMDU0NyIvPjxsaW5lIHN0eWxlPSJzdHJva2U6IzE4MTgxODtzdHJva2Utd2lkdGg6MC41O3N0cm9rZS1kYXNoYXJyYXk6NS4wLDUuMDsiIHgxPSI0NTUuNSIgeDI9IjQ1NS41IiB5MT0iNzkuOTg0NCIgeTI9IjM4MDAuMDU0NyIvPjxsaW5lIHN0eWxlPSJzdHJva2U6IzE4MTgxODtzdHJva2Utd2lkdGg6MC41O3N0cm9rZS1kYXNoYXJyYXk6NS4wLDUuMDsiIHgxPSI3OTkuNSIgeDI9Ijc5OS41IiB5MT0iNzkuOTg0NCIgeTI9IjM4MDAuMDU0NyIvPjxsaW5lIHN0eWxlPSJzdHJva2U6IzE4MTgxODtzdHJva2Utd2lkdGg6MC41O3N0cm9rZS1kYXNoYXJyYXk6NS4wLDUuMDsiIHgxPSIxMTI5LjUiIHgyPSIxMTI5LjUiIHkxPSI3OS45ODQ0IiB5Mj0iMzgwMC4wNTQ3Ii8+PHRleHQgZmlsbD0iIzAwMDAwMCIgZm9udC1mYW1pbHk9InNhbnMtc2VyaWYiIGZvbnQtc2l6ZT0iMTQiIGxlbmd0aEFkanVzdD0ic3BhY2luZyIgdGV4dExlbmd0aD0iNDkiIHg9IjIwIiB5PSI3OC4yMzQ0Ij5TdHVkZW50PC90ZXh0PjxlbGxpcHNlIGN4PSI0Ny41IiBjeT0iMTMuNSIgZmlsbD0iI0UyRTJGMCIgcng9IjgiIHJ5PSI4IiBzdHlsZT0ic3Ryb2tlOiMxODE4MTg7c3Ryb2tlLXdpZHRoOjAuNTsiLz48cGF0aCBkPSJNNDcuNSwyMS41IEw0Ny41LDQ4LjUgTTM0LjUsMjkuNSBMNjAuNSwyOS41IE00Ny41LDQ4LjUgTDM0LjUsNjMuNSBNNDcuNSw0OC41IEw2MC41LDYzLjUgIiBmaWxsPSJub25lIiBzdHlsZT0ic3Ryb2tlOiMxODE4MTg7c3Ryb2tlLXdpZHRoOjAuNTsiLz48dGV4dCBmaWxsPSIjMDAwMDAwIiBmb250LWZhbWlseT0ic2Fucy1zZXJpZiIgZm9udC1zaXplPSIxNCIgbGVuZ3RoQWRqdXN0PSJzcGFjaW5nIiB0ZXh0TGVuZ3RoPSI0OSIgeD0iMjAiIHk9IjM4MTIuMjg5MSI+U3R1ZGVudDwvdGV4dD48ZWxsaXBzZSBjeD0iNDcuNSIgY3k9IjM4MjIuNTM5MSIgZmlsbD0iI0UyRTJGMCIgcng9IjgiIHJ5PSI4IiBzdHlsZT0ic3Ryb2tlOiMxODE4MTg7c3Ryb2tlLXdpZHRoOjAuNTsiLz48cGF0aCBkPSJNNDcuNSwzODMwLjUzOTEgTDQ3LjUsMzg1Ny41MzkxIE0zNC41LDM4MzguNTM5MSBMNjAuNSwzODM4LjUzOTEgTTQ3LjUsMzg1Ny41MzkxIEwzNC41LDM4NzIuNTM5MSBNNDcuNSwzODU3LjUzOTEgTDYwLjUsMzg3Mi41MzkxICIgZmlsbD0ibm9uZSIgc3R5bGU9InN0cm9rZTojMTgxODE4O3N0cm9rZS13aWR0aDowLjU7Ii8+PHRleHQgZmlsbD0iIzAwMDAwMCIgZm9udC1mYW1pbHk9InNhbnMtc2VyaWYiIGZvbnQtc2l6ZT0iMTQiIGxlbmd0aEFkanVzdD0ic3BhY2luZyIgdGV4dExlbmd0aD0iNDIiIHg9Ijg1IiB5PSI3OC4yMzQ0Ij5NZW50b3I8L3RleHQ+PGVsbGlwc2UgY3g9IjEwOSIgY3k9IjEzLjUiIGZpbGw9IiNFMkUyRjAiIHJ4PSI4IiByeT0iOCIgc3R5bGU9InN0cm9rZTojMTgxODE4O3N0cm9rZS13aWR0aDowLjU7Ii8+PHBhdGggZD0iTTEwOSwyMS41IEwxMDksNDguNSBNOTYsMjkuNSBMMTIyLDI5LjUgTTEwOSw0OC41IEw5Niw2My41IE0xMDksNDguNSBMMTIyLDYzLjUgIiBmaWxsPSJub25lIiBzdHlsZT0ic3Ryb2tlOiMxODE4MTg7c3Ryb2tlLXdpZHRoOjAuNTsiLz48dGV4dCBmaWxsPSIjMDAwMDAwIiBmb250LWZhbWlseT0ic2Fucy1zZXJpZiIgZm9udC1zaXplPSIxNCIgbGVuZ3RoQWRqdXN0PSJzcGFjaW5nIiB0ZXh0TGVuZ3RoPSI0MiIgeD0iODUiIHk9IjM4MTIuMjg5MSI+TWVudG9yPC90ZXh0PjxlbGxpcHNlIGN4PSIxMDkiIGN5PSIzODIyLjUzOTEiIGZpbGw9IiNFMkUyRjAiIHJ4PSI4IiByeT0iOCIgc3R5bGU9InN0cm9rZTojMTgxODE4O3N0cm9rZS13aWR0aDowLjU7Ii8+PHBhdGggZD0iTTEwOSwzODMwLjUzOTEgTDEwOSwzODU3LjUzOTEgTTk2LDM4MzguNTM5MSBMMTIyLDM4MzguNTM5MSBNMTA5LDM4NTcuNTM5MSBMOTYsMzg3Mi41MzkxIE0xMDksMzg1Ny41MzkxIEwxMjIsMzg3Mi41MzkxICIgZmlsbD0ibm9uZSIgc3R5bGU9InN0cm9rZTojMTgxODE4O3N0cm9rZS13aWR0aDowLjU7Ii8+PHRleHQgZmlsbD0iIzAwMDAwMCIgZm9udC1mYW1pbHk9InNhbnMtc2VyaWYiIGZvbnQtc2l6ZT0iMTQiIGxlbmd0aEFkanVzdD0ic3BhY2luZyIgdGV4dExlbmd0aD0iMzYiIHg9IjE0MyIgeT0iNzguMjM0NCI+QWRtaW48L3RleHQ+PGVsbGlwc2UgY3g9IjE2NCIgY3k9IjEzLjUiIGZpbGw9IiNFMkUyRjAiIHJ4PSI4IiByeT0iOCIgc3R5bGU9InN0cm9rZTojMTgxODE4O3N0cm9rZS13aWR0aDowLjU7Ii8+PHBhdGggZD0iTTE2NCwyMS41IEwxNjQsNDguNSBNMTUxLDI5LjUgTDE3NywyOS41IE0xNjQsNDguNSBMMTUxLDYzLjUgTTE2NCw0OC41IEwxNzcsNjMuNSAiIGZpbGw9Im5vbmUiIHN0eWxlPSJzdHJva2U6IzE4MTgxODtzdHJva2Utd2lkdGg6MC41OyIvPjx0ZXh0IGZpbGw9IiMwMDAwMDAiIGZvbnQtZmFtaWx5PSJzYW5zLXNlcmlmIiBmb250LXNpemU9IjE0IiBsZW5ndGhBZGp1c3Q9InNwYWNpbmciIHRleHRMZW5ndGg9IjM2IiB4PSIxNDMiIHk9IjM4MTIuMjg5MSI+QWRtaW48L3RleHQ+PGVsbGlwc2UgY3g9IjE2NCIgY3k9IjM4MjIuNTM5MSIgZmlsbD0iI0UyRTJGMCIgcng9IjgiIHJ5PSI4IiBzdHlsZT0ic3Ryb2tlOiMxODE4MTg7c3Ryb2tlLXdpZHRoOjAuNTsiLz48cGF0aCBkPSJNMTY0LDM4MzAuNTM5MSBMMTY0LDM4NTcuNTM5MSBNMTUxLDM4MzguNTM5MSBMMTc3LDM4MzguNTM5MSBNMTY0LDM4NTcuNTM5MSBMMTUxLDM4NzIuNTM5MSBNMTY0LDM4NTcuNTM5MSBMMTc3LDM4NzIuNTM5MSAiIGZpbGw9Im5vbmUiIHN0eWxlPSJzdHJva2U6IzE4MTgxODtzdHJva2Utd2lkdGg6MC41OyIvPjx0ZXh0IGZpbGw9IiMwMDAwMDAiIGZvbnQtZmFtaWx5PSJzYW5zLXNlcmlmIiBmb250LXNpemU9IjE0IiBsZW5ndGhBZGp1c3Q9InNwYWNpbmciIHRleHRMZW5ndGg9Ijg0IiB4PSI0MTAuNSIgeT0iNzguMjM0NCI+TFhQSW50ZXJmYWNlPC90ZXh0PjxwYXRoIGQ9Ik00MzUsMzcgTDQzNSw2MSBNNDM1LDQ5IEw0NTIsNDkgIiBmaWxsPSJub25lIiBzdHlsZT0ic3Ryb2tlOiMxODE4MTg7c3Ryb2tlLXdpZHRoOjAuNTsiLz48ZWxsaXBzZSBjeD0iNDY0IiBjeT0iNDkiIGZpbGw9IiNFMkUyRjAiIHJ4PSIxMiIgcnk9IjEyIiBzdHlsZT0ic3Ryb2tlOiMxODE4MTg7c3Ryb2tlLXdpZHRoOjAuNTsiLz48dGV4dCBmaWxsPSIjMDAwMDAwIiBmb250LWZhbWlseT0ic2Fucy1zZXJpZiIgZm9udC1zaXplPSIxNCIgbGVuZ3RoQWRqdXN0PSJzcGFjaW5nIiB0ZXh0TGVuZ3RoPSI4NCIgeD0iNDEwLjUiIHk9IjM4MTIuMjg5MSI+TFhQSW50ZXJmYWNlPC90ZXh0PjxwYXRoIGQ9Ik00MzUsMzgxOC4wMzkxIEw0MzUsMzg0Mi4wMzkxIE00MzUsMzgzMC4wMzkxIEw0NTIsMzgzMC4wMzkxICIgZmlsbD0ibm9uZSIgc3R5bGU9InN0cm9rZTojMTgxODE4O3N0cm9rZS13aWR0aDowLjU7Ii8+PGVsbGlwc2UgY3g9IjQ2NCIgY3k9IjM4MzAuMDM5MSIgZmlsbD0iI0UyRTJGMCIgcng9IjEyIiByeT0iMTIiIHN0eWxlPSJzdHJva2U6IzE4MTgxODtzdHJva2Utd2lkdGg6MC41OyIvPjx0ZXh0IGZpbGw9IiMwMDAwMDAiIGZvbnQtZmFtaWx5PSJzYW5zLXNlcmlmIiBmb250LXNpemU9IjE0IiBsZW5ndGhBZGp1c3Q9InNwYWNpbmciIHRleHRMZW5ndGg9IjExMiIgeD0iNzQwLjUiIHk9Ijc4LjIzNDQiPkZhY2FkZUNvbnRyb2xsZXI8L3RleHQ+PGVsbGlwc2UgY3g9Ijc5OS41IiBjeT0iNDkiIGZpbGw9IiNFMkUyRjAiIHJ4PSIxMiIgcnk9IjEyIiBzdHlsZT0ic3Ryb2tlOiMxODE4MTg7c3Ryb2tlLXdpZHRoOjAuNTsiLz48cG9seWdvbiBmaWxsPSIjMTgxODE4IiBwb2ludHM9Ijc5NS41LDM3LDgwMS41LDMyLDc5OS41LDM3LDgwMS41LDQyLDc5NS41LDM3IiBzdHlsZT0ic3Ryb2tlOiMxODE4MTg7c3Ryb2tlLXdpZHRoOjEuMDsiLz48dGV4dCBmaWxsPSIjMDAwMDAwIiBmb250LWZhbWlseT0ic2Fucy1zZXJpZiIgZm9udC1zaXplPSIxNCIgbGVuZ3RoQWRqdXN0PSJzcGFjaW5nIiB0ZXh0TGVuZ3RoPSIxMTIiIHg9Ijc0MC41IiB5PSIzODEyLjI4OTEiPkZhY2FkZUNvbnRyb2xsZXI8L3RleHQ+PGVsbGlwc2UgY3g9Ijc5OS41IiBjeT0iMzgzMC4wMzkxIiBmaWxsPSIjRTJFMkYwIiByeD0iMTIiIHJ5PSIxMiIgc3R5bGU9InN0cm9rZTojMTgxODE4O3N0cm9rZS13aWR0aDowLjU7Ii8+PHBvbHlnb24gZmlsbD0iIzE4MTgxOCIgcG9pbnRzPSI3OTUuNSwzODE4LjAzOTEsODAxLjUsMzgxMy4wMzkxLDc5OS41LDM4MTguMDM5MSw4MDEuNSwzODIzLjAzOTEsNzk1LjUsMzgxOC4wMzkxIiBzdHlsZT0ic3Ryb2tlOiMxODE4MTg7c3Ryb2tlLXdpZHRoOjEuMDsiLz48dGV4dCBmaWxsPSIjMDAwMDAwIiBmb250LWZhbWlseT0ic2Fucy1zZXJpZiIgZm9udC1zaXplPSIxNCIgbGVuZ3RoQWRqdXN0PSJzcGFjaW5nIiB0ZXh0TGVuZ3RoPSI3OCIgeD0iMTA4Ny41IiB5PSI3OC4yMzQ0Ij5Eb21haW5Nb2RlbDwvdGV4dD48ZWxsaXBzZSBjeD0iMTEyOS41IiBjeT0iNDkiIGZpbGw9IiNFMkUyRjAiIHJ4PSIxMiIgcnk9IjEyIiBzdHlsZT0ic3Ryb2tlOiMxODE4MTg7c3Ryb2tlLXdpZHRoOjAuNTsiLz48bGluZSBzdHlsZT0ic3Ryb2tlOiMxODE4MTg7c3Ryb2tlLXdpZHRoOjAuNTsiIHgxPSIxMTE3LjUiIHgyPSIxMTQxLjUiIHkxPSI2MyIgeTI9IjYzIi8+PHRleHQgZmlsbD0iIzAwMDAwMCIgZm9udC1mYW1pbHk9InNhbnMtc2VyaWYiIGZvbnQtc2l6ZT0iMTQiIGxlbmd0aEFkanVzdD0ic3BhY2luZyIgdGV4dExlbmd0aD0iNzgiIHg9IjEwODcuNSIgeT0iMzgxMi4yODkxIj5Eb21haW5Nb2RlbDwvdGV4dD48ZWxsaXBzZSBjeD0iMTEyOS41IiBjeT0iMzgzMC4wMzkxIiBmaWxsPSIjRTJFMkYwIiByeD0iMTIiIHJ5PSIxMiIgc3R5bGU9InN0cm9rZTojMTgxODE4O3N0cm9rZS13aWR0aDowLjU7Ii8+PGxpbmUgc3R5bGU9InN0cm9rZTojMTgxODE4O3N0cm9rZS13aWR0aDowLjU7IiB4MT0iMTExNy41IiB4Mj0iMTE0MS41IiB5MT0iMzg0NC4wMzkxIiB5Mj0iMzg0NC4wMzkxIi8+PHJlY3QgZmlsbD0iI0VFRUVFRSIgaGVpZ2h0PSIzIiBzdHlsZT0ic3Ryb2tlOiNFRUVFRUU7c3Ryb2tlLXdpZHRoOjEuMDsiIHdpZHRoPSIxMTkxLjUiIHg9IjAiIHk9IjEwOS45NDE0Ii8+PGxpbmUgc3R5bGU9InN0cm9rZTojMDAwMDAwO3N0cm9rZS13aWR0aDoxLjA7IiB4MT0iMCIgeDI9IjExOTEuNSIgeTE9IjEwOS45NDE0IiB5Mj0iMTA5Ljk0MTQiLz48bGluZSBzdHlsZT0ic3Ryb2tlOiMwMDAwMDA7c3Ryb2tlLXdpZHRoOjEuMDsiIHgxPSIwIiB4Mj0iMTE5MS41IiB5MT0iMTEyLjk0MTQiIHkyPSIxMTIuOTQxNCIvPjxyZWN0IGZpbGw9IiNFRUVFRUUiIGhlaWdodD0iMjEuOTE0MSIgc3R5bGU9InN0cm9rZTojMDAwMDAwO3N0cm9rZS13aWR0aDoyLjA7IiB3aWR0aD0iMTM5IiB4PSI1MjYuMjUiIHk9Ijk5Ljk4NDQiLz48dGV4dCBmaWxsPSIjMDAwMDAwIiBmb250LWZhbWlseT0ic2Fucy1zZXJpZiIgZm9udC1zaXplPSIxMyIgZm9udC13ZWlnaHQ9ImJvbGQiIGxlbmd0aEFkanVzdD0ic3BhY2luZyIgdGV4dExlbmd0aD0iMTE4IiB4PSI1MzIuMjUiIHk9IjExNi4yNzM0Ij4iTG9nIEluIiBVc2UgQ2FzZTwvdGV4dD48cG9seWdvbiBmaWxsPSIjMTgxODE4IiBwb2ludHM9IjQ0My41LDE0Ny44MTI1LDQ1My41LDE1MS44MTI1LDQ0My41LDE1NS44MTI1LDQ0Ny41LDE1MS44MTI1IiBzdHlsZT0ic3Ryb2tlOiMxODE4MTg7c3Ryb2tlLXdpZHRoOjEuMDsiLz48bGluZSBzdHlsZT0ic3Ryb2tlOiMxODE4MTg7c3Ryb2tlLXdpZHRoOjEuMDsiIHgxPSI0Ny41IiB4Mj0iNDQ5LjUiIHkxPSIxNTEuODEyNSIgeTI9IjE1MS44MTI1Ii8+PHRleHQgZmlsbD0iIzAwMDAwMCIgZm9udC1mYW1pbHk9InNhbnMtc2VyaWYiIGZvbnQtc2l6ZT0iMTMiIGxlbmd0aEFkanVzdD0ic3BhY2luZyIgdGV4dExlbmd0aD0iMTQ3IiB4PSI1NC41IiB5PSIxNDguMTg3NSI+RW50ZXIgY3JlZGVudGlhbHMgW0lOXTwvdGV4dD48cGF0aCBkPSJNMTAsMTY2LjgxMjUgTDc0LDE2Ni44MTI1IEw3NCwxNzIuNzI2NiBMNjQsMTgyLjcyNjYgTDEwLDE4Mi43MjY2IEwxMCwxNjYuODEyNSAiIGZpbGw9IiNFRUVFRUUiIHN0eWxlPSJzdHJva2U6IzAwMDAwMDtzdHJva2Utd2lkdGg6MS41OyIvPjxyZWN0IGZpbGw9Im5vbmUiIGhlaWdodD0iMTk3LjE3MTkiIHN0eWxlPSJzdHJva2U6IzAwMDAwMDtzdHJva2Utd2lkdGg6MS41OyIgd2lkdGg9IjExNzEuNSIgeD0iMTAiIHk9IjE2Ni44MTI1Ii8+PHRleHQgZmlsbD0iIzAwMDAwMCIgZm9udC1mYW1pbHk9InNhbnMtc2VyaWYiIGZvbnQtc2l6ZT0iMTMiIGZvbnQtd2VpZ2h0PSJib2xkIiBsZW5ndGhBZGp1c3Q9InNwYWNpbmciIHRleHRMZW5ndGg9IjE5IiB4PSIyNSIgeT0iMTgwLjEwMTYiPmFsdDwvdGV4dD48dGV4dCBmaWxsPSIjMDAwMDAwIiBmb250LWZhbWlseT0ic2Fucy1zZXJpZiIgZm9udC1zaXplPSIxMSIgZm9udC13ZWlnaHQ9ImJvbGQiIGxlbmd0aEFkanVzdD0ic3BhY2luZyIgdGV4dExlbmd0aD0iMTI2IiB4PSI4OSIgeT0iMTc5LjIxMDkiPltJbnZhbGlkIENyZWRlbnRpYWxzXTwvdGV4dD48cG9seWdvbiBmaWxsPSIjMTgxODE4IiBwb2ludHM9IjU4LjUsMTk4LjY0MDYsNDguNSwyMDIuNjQwNiw1OC41LDIwNi42NDA2LDU0LjUsMjAyLjY0MDYiIHN0eWxlPSJzdHJva2U6IzE4MTgxODtzdHJva2Utd2lkdGg6MS4wOyIvPjxsaW5lIHN0eWxlPSJzdHJva2U6IzE4MTgxODtzdHJva2Utd2lkdGg6MS4wO3N0cm9rZS1kYXNoYXJyYXk6Mi4wLDIuMDsiIHgxPSI1Mi41IiB4Mj0iNDU0LjUiIHkxPSIyMDIuNjQwNiIgeTI9IjIwMi42NDA2Ii8+PHRleHQgZmlsbD0iIzAwMDAwMCIgZm9udC1mYW1pbHk9InNhbnMtc2VyaWYiIGZvbnQtc2l6ZT0iMTMiIGxlbmd0aEFkanVzdD0ic3BhY2luZyIgdGV4dExlbmd0aD0iMTE5IiB4PSI2NC41IiB5PSIxOTkuMDE1NiI+TG9naW4gZmFpbGVkIFtPVVRdPC90ZXh0PjxsaW5lIHN0eWxlPSJzdHJva2U6IzAwMDAwMDtzdHJva2Utd2lkdGg6MS4wO3N0cm9rZS1kYXNoYXJyYXk6Mi4wLDIuMDsiIHgxPSIxMCIgeDI9IjExODEuNSIgeTE9IjIxMS42NDA2IiB5Mj0iMjExLjY0MDYiLz48dGV4dCBmaWxsPSIjMDAwMDAwIiBmb250LWZhbWlseT0ic2Fucy1zZXJpZiIgZm9udC1zaXplPSIxMSIgZm9udC13ZWlnaHQ9ImJvbGQiIGxlbmd0aEFkanVzdD0ic3BhY2luZyIgdGV4dExlbmd0aD0iMTE0IiB4PSIxNSIgeT0iMjIyLjAzOTEiPltWYWxpZCBDcmVkZW50aWFsc108L3RleHQ+PHBvbHlnb24gZmlsbD0iIzE4MTgxOCIgcG9pbnRzPSI3ODcuNSwyNDAuMzI4MSw3OTcuNSwyNDQuMzI4MSw3ODcuNSwyNDguMzI4MSw3OTEuNSwyNDQuMzI4MSIgc3R5bGU9InN0cm9rZTojMTgxODE4O3N0cm9rZS13aWR0aDoxLjA7Ii8+PGxpbmUgc3R5bGU9InN0cm9rZTojMTgxODE4O3N0cm9rZS13aWR0aDoxLjA7IiB4MT0iNDU1LjUiIHgyPSI3OTMuNSIgeTE9IjI0NC4zMjgxIiB5Mj0iMjQ0LjMyODEiLz48dGV4dCBmaWxsPSIjMDAwMDAwIiBmb250LWZhbWlseT0ic2Fucy1zZXJpZiIgZm9udC1zaXplPSIxMyIgbGVuZ3RoQWRqdXN0PSJzcGFjaW5nIiB0ZXh0TGVuZ3RoPSIxNzMiIHg9IjQ2Mi41IiB5PSIyNDAuNzAzMSI+dmFsaWRhdGVMb2dpbihjcmVkZW50aWFscyk8L3RleHQ+PHBvbHlnb24gZmlsbD0iIzE4MTgxOCIgcG9pbnRzPSIxMTE3LjUsMjY4LjI0MjIsMTEyNy41LDI3Mi4yNDIyLDExMTcuNSwyNzYuMjQyMiwxMTIxLjUsMjcyLjI0MjIiIHN0eWxlPSJzdHJva2U6IzE4MTgxODtzdHJva2Utd2lkdGg6MS4wOyIvPjxsaW5lIHN0eWxlPSJzdHJva2U6IzE4MTgxODtzdHJva2Utd2lkdGg6MS4wOyIgeDE9Ijc5OS41IiB4Mj0iMTEyMy41IiB5MT0iMjcyLjI0MjIiIHkyPSIyNzIuMjQyMiIvPjx0ZXh0IGZpbGw9IiMwMDAwMDAiIGZvbnQtZmFtaWx5PSJzYW5zLXNlcmlmIiBmb250LXNpemU9IjEzIiBsZW5ndGhBZGp1c3Q9InNwYWNpbmciIHRleHRMZW5ndGg9IjIwMCIgeD0iODA2LjUiIHk9IjI2OC42MTcyIj5mZXRjaFVzZXJEYXRhKGVtYWlsLCBwYXNzd29yZCk8L3RleHQ+PHBvbHlnb24gZmlsbD0iIzE4MTgxOCIgcG9pbnRzPSI4MTAuNSwyOTYuMTU2Myw4MDAuNSwzMDAuMTU2Myw4MTAuNSwzMDQuMTU2Myw4MDYuNSwzMDAuMTU2MyIgc3R5bGU9InN0cm9rZTojMTgxODE4O3N0cm9rZS13aWR0aDoxLjA7Ii8+PGxpbmUgc3R5bGU9InN0cm9rZTojMTgxODE4O3N0cm9rZS13aWR0aDoxLjA7c3Ryb2tlLWRhc2hhcnJheToyLjAsMi4wOyIgeDE9IjgwNC41IiB4Mj0iMTEyOC41IiB5MT0iMzAwLjE1NjMiIHkyPSIzMDAuMTU2MyIvPjx0ZXh0IGZpbGw9IiMwMDAwMDAiIGZvbnQtZmFtaWx5PSJzYW5zLXNlcmlmIiBmb250LXNpemU9IjEzIiBsZW5ndGhBZGp1c3Q9InNwYWNpbmciIHRleHRMZW5ndGg9IjYyIiB4PSI4MTYuNSIgeT0iMjk2LjUzMTMiPlVzZXIgZGF0YTwvdGV4dD48cG9seWdvbiBmaWxsPSIjMTgxODE4IiBwb2ludHM9IjQ2Ni41LDMyNC4wNzAzLDQ1Ni41LDMyOC4wNzAzLDQ2Ni41LDMzMi4wNzAzLDQ2Mi41LDMyOC4wNzAzIiBzdHlsZT0ic3Ryb2tlOiMxODE4MTg7c3Ryb2tlLXdpZHRoOjEuMDsiLz48bGluZSBzdHlsZT0ic3Ryb2tlOiMxODE4MTg7c3Ryb2tlLXdpZHRoOjEuMDtzdHJva2UtZGFzaGFycmF5OjIuMCwyLjA7IiB4MT0iNDYwLjUiIHgyPSI3OTguNSIgeTE9IjMyOC4wNzAzIiB5Mj0iMzI4LjA3MDMiLz48dGV4dCBmaWxsPSIjMDAwMDAwIiBmb250LWZhbWlseT0ic2Fucy1zZXJpZiIgZm9udC1zaXplPSIxMyIgbGVuZ3RoQWRqdXN0PSJzcGFjaW5nIiB0ZXh0TGVuZ3RoPSIxMjAiIHg9IjQ3Mi41IiB5PSIzMjQuNDQ1MyI+TG9naW4gcmVzdWx0IFtPVVRdPC90ZXh0Pjxwb2x5Z29uIGZpbGw9IiMxODE4MTgiIHBvaW50cz0iNTguNSwzNTEuOTg0NCw0OC41LDM1NS45ODQ0LDU4LjUsMzU5Ljk4NDQsNTQuNSwzNTUuOTg0NCIgc3R5bGU9InN0cm9rZTojMTgxODE4O3N0cm9rZS13aWR0aDoxLjA7Ii8+PGxpbmUgc3R5bGU9InN0cm9rZTojMTgxODE4O3N0cm9rZS13aWR0aDoxLjA7c3Ryb2tlLWRhc2hhcnJheToyLjAsMi4wOyIgeDE9IjUyLjUiIHgyPSI0NTQuNSIgeTE9IjM1NS45ODQ0IiB5Mj0iMzU1Ljk4NDQiLz48dGV4dCBmaWxsPSIjMDAwMDAwIiBmb250LWZhbWlseT0ic2Fucy1zZXJpZiIgZm9udC1zaXplPSIxMyIgbGVuZ3RoQWRqdXN0PSJzcGFjaW5nIiB0ZXh0TGVuZ3RoPSIxMjkiIHg9IjY0LjUiIHk9IjM1Mi4zNTk0Ij5Mb2dpbiBzdWNjZXNzIFtPVVRdPC90ZXh0PjxyZWN0IGZpbGw9IiNFRUVFRUUiIGhlaWdodD0iMyIgc3R5bGU9InN0cm9rZTojRUVFRUVFO3N0cm9rZS13aWR0aDoxLjA7IiB3aWR0aD0iMTE5MS41IiB4PSIwIiB5PSIzOTAuOTQxNCIvPjxsaW5lIHN0eWxlPSJzdHJva2U6IzAwMDAwMDtzdHJva2Utd2lkdGg6MS4wOyIgeDE9IjAiIHgyPSIxMTkxLjUiIHkxPSIzOTAuOTQxNCIgeTI9IjM5MC45NDE0Ii8+PGxpbmUgc3R5bGU9InN0cm9rZTojMDAwMDAwO3N0cm9rZS13aWR0aDoxLjA7IiB4MT0iMCIgeDI9IjExOTEuNSIgeTE9IjM5My45NDE0IiB5Mj0iMzkzLjk0MTQiLz48cmVjdCBmaWxsPSIjRUVFRUVFIiBoZWlnaHQ9IjIxLjkxNDEiIHN0eWxlPSJzdHJva2U6IzAwMDAwMDtzdHJva2Utd2lkdGg6Mi4wOyIgd2lkdGg9IjI4MSIgeD0iNDU1LjI1IiB5PSIzODAuOTg0NCIvPjx0ZXh0IGZpbGw9IiMwMDAwMDAiIGZvbnQtZmFtaWx5PSJzYW5zLXNlcmlmIiBmb250LXNpemU9IjEzIiBmb250LXdlaWdodD0iYm9sZCIgbGVuZ3RoQWRqdXN0PSJzcGFjaW5nIiB0ZXh0TGVuZ3RoPSIyNjAiIHg9IjQ2MS4yNSIgeT0iMzk3LjI3MzQiPiJUYWtlIFBlcnNvbmFsaXR5IEFzc2Vzc21lbnQiIFVzZSBDYXNlPC90ZXh0Pjxwb2x5Z29uIGZpbGw9IiMxODE4MTgiIHBvaW50cz0iNDQzLjUsNDI4LjgxMjUsNDUzLjUsNDMyLjgxMjUsNDQzLjUsNDM2LjgxMjUsNDQ3LjUsNDMyLjgxMjUiIHN0eWxlPSJzdHJva2U6IzE4MTgxODtzdHJva2Utd2lkdGg6MS4wOyIvPjxsaW5lIHN0eWxlPSJzdHJva2U6IzE4MTgxODtzdHJva2Utd2lkdGg6MS4wOyIgeDE9IjQ3LjUiIHgyPSI0NDkuNSIgeTE9IjQzMi44MTI1IiB5Mj0iNDMyLjgxMjUiLz48dGV4dCBmaWxsPSIjMDAwMDAwIiBmb250LWZhbWlseT0ic2Fucy1zZXJpZiIgZm9udC1zaXplPSIxMyIgbGVuZ3RoQWRqdXN0PSJzcGFjaW5nIiB0ZXh0TGVuZ3RoPSIyMjEiIHg9IjU0LjUiIHk9IjQyOS4xODc1Ij5TdGFydCBQZXJzb25hbGl0eSBBc3Nlc3NtZW50IFtJTl08L3RleHQ+PHBvbHlnb24gZmlsbD0iIzE4MTgxOCIgcG9pbnRzPSI3ODcuNSw0NTYuNzI2Niw3OTcuNSw0NjAuNzI2Niw3ODcuNSw0NjQuNzI2Niw3OTEuNSw0NjAuNzI2NiIgc3R5bGU9InN0cm9rZTojMTgxODE4O3N0cm9rZS13aWR0aDoxLjA7Ii8+PGxpbmUgc3R5bGU9InN0cm9rZTojMTgxODE4O3N0cm9rZS13aWR0aDoxLjA7IiB4MT0iNDU1LjUiIHgyPSI3OTMuNSIgeTE9IjQ2MC43MjY2IiB5Mj0iNDYwLjcyNjYiLz48dGV4dCBmaWxsPSIjMDAwMDAwIiBmb250LWZhbWlseT0ic2Fucy1zZXJpZiIgZm9udC1zaXplPSIxMyIgbGVuZ3RoQWRqdXN0PSJzcGFjaW5nIiB0ZXh0TGVuZ3RoPSIyNzMiIHg9IjQ2Mi41IiB5PSI0NTcuMTAxNiI+aW5pdGlhdGVBc3Nlc3NtZW50KHVzZXJJRCwgIlBlcnNvbmFsaXR5Iik8L3RleHQ+PHBvbHlnb24gZmlsbD0iIzE4MTgxOCIgcG9pbnRzPSIxMTE3LjUsNDg0LjY0MDYsMTEyNy41LDQ4OC42NDA2LDExMTcuNSw0OTIuNjQwNiwxMTIxLjUsNDg4LjY0MDYiIHN0eWxlPSJzdHJva2U6IzE4MTgxODtzdHJva2Utd2lkdGg6MS4wOyIvPjxsaW5lIHN0eWxlPSJzdHJva2U6IzE4MTgxODtzdHJva2Utd2lkdGg6MS4wOyIgeDE9Ijc5OS41IiB4Mj0iMTEyMy41IiB5MT0iNDg4LjY0MDYiIHkyPSI0ODguNjQwNiIvPjx0ZXh0IGZpbGw9IiMwMDAwMDAiIGZvbnQtZmFtaWx5PSJzYW5zLXNlcmlmIiBmb250LXNpemU9IjEzIiBsZW5ndGhBZGp1c3Q9InNwYWNpbmciIHRleHRMZW5ndGg9IjI4NCIgeD0iODA2LjUiIHk9IjQ4NS4wMTU2Ij5nZW5lcmF0ZUFzc2Vzc21lbnRRdWVzdGlvbnMoIlBlcnNvbmFsaXR5Iik8L3RleHQ+PHBvbHlnb24gZmlsbD0iIzE4MTgxOCIgcG9pbnRzPSI4MTAuNSw1MTIuNTU0Nyw4MDAuNSw1MTYuNTU0Nyw4MTAuNSw1MjAuNTU0Nyw4MDYuNSw1MTYuNTU0NyIgc3R5bGU9InN0cm9rZTojMTgxODE4O3N0cm9rZS13aWR0aDoxLjA7Ii8+PGxpbmUgc3R5bGU9InN0cm9rZTojMTgxODE4O3N0cm9rZS13aWR0aDoxLjA7c3Ryb2tlLWRhc2hhcnJheToyLjAsMi4wOyIgeDE9IjgwNC41IiB4Mj0iMTEyOC41IiB5MT0iNTE2LjU1NDciIHkyPSI1MTYuNTU0NyIvPjx0ZXh0IGZpbGw9IiMwMDAwMDAiIGZvbnQtZmFtaWx5PSJzYW5zLXNlcmlmIiBmb250LXNpemU9IjEzIiBsZW5ndGhBZGp1c3Q9InNwYWNpbmciIHRleHRMZW5ndGg9IjYxIiB4PSI4MTYuNSIgeT0iNTEyLjkyOTciPlF1ZXN0aW9uczwvdGV4dD48cG9seWdvbiBmaWxsPSIjMTgxODE4IiBwb2ludHM9IjQ2Ni41LDU0MC40Njg4LDQ1Ni41LDU0NC40Njg4LDQ2Ni41LDU0OC40Njg4LDQ2Mi41LDU0NC40Njg4IiBzdHlsZT0ic3Ryb2tlOiMxODE4MTg7c3Ryb2tlLXdpZHRoOjEuMDsiLz48bGluZSBzdHlsZT0ic3Ryb2tlOiMxODE4MTg7c3Ryb2tlLXdpZHRoOjEuMDtzdHJva2UtZGFzaGFycmF5OjIuMCwyLjA7IiB4MT0iNDYwLjUiIHgyPSI3OTguNSIgeTE9IjU0NC40Njg4IiB5Mj0iNTQ0LjQ2ODgiLz48dGV4dCBmaWxsPSIjMDAwMDAwIiBmb250LWZhbWlseT0ic2Fucy1zZXJpZiIgZm9udC1zaXplPSIxMyIgbGVuZ3RoQWRqdXN0PSJzcGFjaW5nIiB0ZXh0TGVuZ3RoPSIxMTUiIHg9IjQ3Mi41IiB5PSI1NDAuODQzOCI+RGlzcGxheSBxdWVzdGlvbnM8L3RleHQ+PHBhdGggZD0iTTEwLDU1OS40Njg4IEw4Miw1NTkuNDY4OCBMODIsNTY1LjM4MjggTDcyLDU3NS4zODI4IEwxMCw1NzUuMzgyOCBMMTAsNTU5LjQ2ODggIiBmaWxsPSIjRUVFRUVFIiBzdHlsZT0ic3Ryb2tlOiMwMDAwMDA7c3Ryb2tlLXdpZHRoOjEuNTsiLz48cmVjdCBmaWxsPSJub25lIiBoZWlnaHQ9IjcxLjc0MjIiIHN0eWxlPSJzdHJva2U6IzAwMDAwMDtzdHJva2Utd2lkdGg6MS41OyIgd2lkdGg9Ijg1OC41IiB4PSIxMCIgeT0iNTU5LjQ2ODgiLz48dGV4dCBmaWxsPSIjMDAwMDAwIiBmb250LWZhbWlseT0ic2Fucy1zZXJpZiIgZm9udC1zaXplPSIxMyIgZm9udC13ZWlnaHQ9ImJvbGQiIGxlbmd0aEFkanVzdD0ic3BhY2luZyIgdGV4dExlbmd0aD0iMjciIHg9IjI1IiB5PSI1NzIuNzU3OCI+bG9vcDwvdGV4dD48dGV4dCBmaWxsPSIjMDAwMDAwIiBmb250LWZhbWlseT0ic2Fucy1zZXJpZiIgZm9udC1zaXplPSIxMSIgZm9udC13ZWlnaHQ9ImJvbGQiIGxlbmd0aEFkanVzdD0ic3BhY2luZyIgdGV4dExlbmd0aD0iMTE0IiB4PSI5NyIgeT0iNTcxLjg2NzIiPltGb3IgZWFjaCBxdWVzdGlvbl08L3RleHQ+PHBvbHlnb24gZmlsbD0iIzE4MTgxOCIgcG9pbnRzPSI0NDMuNSw1OTEuMjk2OSw0NTMuNSw1OTUuMjk2OSw0NDMuNSw1OTkuMjk2OSw0NDcuNSw1OTUuMjk2OSIgc3R5bGU9InN0cm9rZTojMTgxODE4O3N0cm9rZS13aWR0aDoxLjA7Ii8+PGxpbmUgc3R5bGU9InN0cm9rZTojMTgxODE4O3N0cm9rZS13aWR0aDoxLjA7IiB4MT0iNDcuNSIgeDI9IjQ0OS41IiB5MT0iNTk1LjI5NjkiIHkyPSI1OTUuMjk2OSIvPjx0ZXh0IGZpbGw9IiMwMDAwMDAiIGZvbnQtZmFtaWx5PSJzYW5zLXNlcmlmIiBmb250LXNpemU9IjEzIiBsZW5ndGhBZGp1c3Q9InNwYWNpbmciIHRleHRMZW5ndGg9IjExOSIgeD0iNTQuNSIgeT0iNTkxLjY3MTkiPlN1Ym1pdCBhbnN3ZXIgW0lOXTwvdGV4dD48cG9seWdvbiBmaWxsPSIjMTgxODE4IiBwb2ludHM9Ijc4Ny41LDYxOS4yMTA5LDc5Ny41LDYyMy4yMTA5LDc4Ny41LDYyNy4yMTA5LDc5MS41LDYyMy4yMTA5IiBzdHlsZT0ic3Ryb2tlOiMxODE4MTg7c3Ryb2tlLXdpZHRoOjEuMDsiLz48bGluZSBzdHlsZT0ic3Ryb2tlOiMxODE4MTg7c3Ryb2tlLXdpZHRoOjEuMDsiIHgxPSI0NTUuNSIgeDI9Ijc5My41IiB5MT0iNjIzLjIxMDkiIHkyPSI2MjMuMjEwOSIvPjx0ZXh0IGZpbGw9IiMwMDAwMDAiIGZvbnQtZmFtaWx5PSJzYW5zLXNlcmlmIiBmb250LXNpemU9IjEzIiBsZW5ndGhBZGp1c3Q9InNwYWNpbmciIHRleHRMZW5ndGg9IjI3NyIgeD0iNDYyLjUiIHk9IjYxOS41ODU5Ij5wcm9jZXNzQW5zd2VyKHVzZXJJRCwgcXVlc3Rpb25JRCwgYW5zd2VyKTwvdGV4dD48cG9seWdvbiBmaWxsPSIjMTgxODE4IiBwb2ludHM9Ijc4Ny41LDY1NC4xMjUsNzk3LjUsNjU4LjEyNSw3ODcuNSw2NjIuMTI1LDc5MS41LDY1OC4xMjUiIHN0eWxlPSJzdHJva2U6IzE4MTgxODtzdHJva2Utd2lkdGg6MS4wOyIvPjxsaW5lIHN0eWxlPSJzdHJva2U6IzE4MTgxODtzdHJva2Utd2lkdGg6MS4wOyIgeDE9IjQ1NS41IiB4Mj0iNzkzLjUiIHkxPSI2NTguMTI1IiB5Mj0iNjU4LjEyNSIvPjx0ZXh0IGZpbGw9IiMwMDAwMDAiIGZvbnQtZmFtaWx5PSJzYW5zLXNlcmlmIiBmb250LXNpemU9IjEzIiBsZW5ndGhBZGp1c3Q9InNwYWNpbmciIHRleHRMZW5ndGg9IjE3MyIgeD0iNDYyLjUiIHk9IjY1NC41Ij5maW5hbGl6ZUFzc2Vzc21lbnQodXNlcklEKTwvdGV4dD48cG9seWdvbiBmaWxsPSIjMTgxODE4IiBwb2ludHM9IjExMTcuNSw2ODIuMDM5MSwxMTI3LjUsNjg2LjAzOTEsMTExNy41LDY5MC4wMzkxLDExMjEuNSw2ODYuMDM5MSIgc3R5bGU9InN0cm9rZTojMTgxODE4O3N0cm9rZS13aWR0aDoxLjA7Ii8+PGxpbmUgc3R5bGU9InN0cm9rZTojMTgxODE4O3N0cm9rZS13aWR0aDoxLjA7IiB4MT0iNzk5LjUiIHgyPSIxMTIzLjUiIHkxPSI2ODYuMDM5MSIgeTI9IjY4Ni4wMzkxIi8+PHRleHQgZmlsbD0iIzAwMDAwMCIgZm9udC1mYW1pbHk9InNhbnMtc2VyaWYiIGZvbnQtc2l6ZT0iMTMiIGxlbmd0aEFkanVzdD0ic3BhY2luZyIgdGV4dExlbmd0aD0iMTYwIiB4PSI4MDYuNSIgeT0iNjgyLjQxNDEiPmNhbGN1bGF0ZVJlc3VsdHModXNlcklEKTwvdGV4dD48cG9seWdvbiBmaWxsPSIjMTgxODE4IiBwb2ludHM9IjgxMC41LDcwOS45NTMxLDgwMC41LDcxMy45NTMxLDgxMC41LDcxNy45NTMxLDgwNi41LDcxMy45NTMxIiBzdHlsZT0ic3Ryb2tlOiMxODE4MTg7c3Ryb2tlLXdpZHRoOjEuMDsiLz48bGluZSBzdHlsZT0ic3Ryb2tlOiMxODE4MTg7c3Ryb2tlLXdpZHRoOjEuMDtzdHJva2UtZGFzaGFycmF5OjIuMCwyLjA7IiB4MT0iODA0LjUiIHgyPSIxMTI4LjUiIHkxPSI3MTMuOTUzMSIgeTI9IjcxMy45NTMxIi8+PHRleHQgZmlsbD0iIzAwMDAwMCIgZm9udC1mYW1pbHk9InNhbnMtc2VyaWYiIGZvbnQtc2l6ZT0iMTMiIGxlbmd0aEFkanVzdD0ic3BhY2luZyIgdGV4dExlbmd0aD0iMTIyIiB4PSI4MTYuNSIgeT0iNzEwLjMyODEiPlBlcnNvbmFsaXR5IHJlcG9ydDwvdGV4dD48cG9seWdvbiBmaWxsPSIjMTgxODE4IiBwb2ludHM9IjQ2Ni41LDczNy44NjcyLDQ1Ni41LDc0MS44NjcyLDQ2Ni41LDc0NS44NjcyLDQ2Mi41LDc0MS44NjcyIiBzdHlsZT0ic3Ryb2tlOiMxODE4MTg7c3Ryb2tlLXdpZHRoOjEuMDsiLz48bGluZSBzdHlsZT0ic3Ryb2tlOiMxODE4MTg7c3Ryb2tlLXdpZHRoOjEuMDtzdHJva2UtZGFzaGFycmF5OjIuMCwyLjA7IiB4MT0iNDYwLjUiIHgyPSI3OTguNSIgeTE9Ijc0MS44NjcyIiB5Mj0iNzQxLjg2NzIiLz48dGV4dCBmaWxsPSIjMDAwMDAwIiBmb250LWZhbWlseT0ic2Fucy1zZXJpZiIgZm9udC1zaXplPSIxMyIgbGVuZ3RoQWRqdXN0PSJzcGFjaW5nIiB0ZXh0TGVuZ3RoPSIxNDAiIHg9IjQ3Mi41IiB5PSI3MzguMjQyMiI+RGlzcGxheSByZXN1bHRzIFtPVVRdPC90ZXh0Pjxwb2x5Z29uIGZpbGw9IiMxODE4MTgiIHBvaW50cz0iNTguNSw3NjUuNzgxMyw0OC41LDc2OS43ODEzLDU4LjUsNzczLjc4MTMsNTQuNSw3NjkuNzgxMyIgc3R5bGU9InN0cm9rZTojMTgxODE4O3N0cm9rZS13aWR0aDoxLjA7Ii8+PGxpbmUgc3R5bGU9InN0cm9rZTojMTgxODE4O3N0cm9rZS13aWR0aDoxLjA7c3Ryb2tlLWRhc2hhcnJheToyLjAsMi4wOyIgeDE9IjUyLjUiIHgyPSI0NTQuNSIgeTE9Ijc2OS43ODEzIiB5Mj0iNzY5Ljc4MTMiLz48dGV4dCBmaWxsPSIjMDAwMDAwIiBmb250LWZhbWlseT0ic2Fucy1zZXJpZiIgZm9udC1zaXplPSIxMyIgbGVuZ3RoQWRqdXN0PSJzcGFjaW5nIiB0ZXh0TGVuZ3RoPSIyNDIiIHg9IjY0LjUiIHk9Ijc2Ni4xNTYzIj5QZXJzb25hbGl0eSBBc3Nlc3NtZW50IFJlc3VsdHMgW09VVF08L3RleHQ+PHJlY3QgZmlsbD0iI0VFRUVFRSIgaGVpZ2h0PSIzIiBzdHlsZT0ic3Ryb2tlOiNFRUVFRUU7c3Ryb2tlLXdpZHRoOjEuMDsiIHdpZHRoPSIxMTkxLjUiIHg9IjAiIHk9Ijc5Ny43MzgzIi8+PGxpbmUgc3R5bGU9InN0cm9rZTojMDAwMDAwO3N0cm9rZS13aWR0aDoxLjA7IiB4MT0iMCIgeDI9IjExOTEuNSIgeTE9Ijc5Ny43MzgzIiB5Mj0iNzk3LjczODMiLz48bGluZSBzdHlsZT0ic3Ryb2tlOiMwMDAwMDA7c3Ryb2tlLXdpZHRoOjEuMDsiIHgxPSIwIiB4Mj0iMTE5MS41IiB5MT0iODAwLjczODMiIHkyPSI4MDAuNzM4MyIvPjxyZWN0IGZpbGw9IiNFRUVFRUUiIGhlaWdodD0iMjEuOTE0MSIgc3R5bGU9InN0cm9rZTojMDAwMDAwO3N0cm9rZS13aWR0aDoyLjA7IiB3aWR0aD0iMjk3IiB4PSI0NDcuMjUiIHk9Ijc4Ny43ODEzIi8+PHRleHQgZmlsbD0iIzAwMDAwMCIgZm9udC1mYW1pbHk9InNhbnMtc2VyaWYiIGZvbnQtc2l6ZT0iMTMiIGZvbnQtd2VpZ2h0PSJib2xkIiBsZW5ndGhBZGp1c3Q9InNwYWNpbmciIHRleHRMZW5ndGg9IjI3NiIgeD0iNDUzLjI1IiB5PSI4MDQuMDcwMyI+IkdlbmVyYXRlIFBlcnNvbmFsaXplZCBSb2FkbWFwIiBVc2UgQ2FzZTwvdGV4dD48cG9seWdvbiBmaWxsPSIjMTgxODE4IiBwb2ludHM9IjQ0My41LDgzNS42MDk0LDQ1My41LDgzOS42MDk0LDQ0My41LDg0My42MDk0LDQ0Ny41LDgzOS42MDk0IiBzdHlsZT0ic3Ryb2tlOiMxODE4MTg7c3Ryb2tlLXdpZHRoOjEuMDsiLz48bGluZSBzdHlsZT0ic3Ryb2tlOiMxODE4MTg7c3Ryb2tlLXdpZHRoOjEuMDsiIHgxPSI0Ny41IiB4Mj0iNDQ5LjUiIHkxPSI4MzkuNjA5NCIgeTI9IjgzOS42MDk0Ii8+PHRleHQgZmlsbD0iIzAwMDAwMCIgZm9udC1mYW1pbHk9InNhbnMtc2VyaWYiIGZvbnQtc2l6ZT0iMTMiIGxlbmd0aEFkanVzdD0ic3BhY2luZyIgdGV4dExlbmd0aD0iMjEwIiB4PSI1NC41IiB5PSI4MzUuOTg0NCI+UmVxdWVzdCBSb2FkbWFwIEdlbmVyYXRpb24gW0lOXTwvdGV4dD48cGF0aCBkPSJNMTAsODU0LjYwOTQgTDc0LDg1NC42MDk0IEw3NCw4NjAuNTIzNCBMNjQsODcwLjUyMzQgTDEwLDg3MC41MjM0IEwxMCw4NTQuNjA5NCAiIGZpbGw9IiNFRUVFRUUiIHN0eWxlPSJzdHJva2U6IzAwMDAwMDtzdHJva2Utd2lkdGg6MS41OyIvPjxyZWN0IGZpbGw9Im5vbmUiIGhlaWdodD0iMTk3LjE3MTkiIHN0eWxlPSJzdHJva2U6IzAwMDAwMDtzdHJva2Utd2lkdGg6MS41OyIgd2lkdGg9IjExNzEuNSIgeD0iMTAiIHk9Ijg1NC42MDk0Ii8+PHRleHQgZmlsbD0iIzAwMDAwMCIgZm9udC1mYW1pbHk9InNhbnMtc2VyaWYiIGZvbnQtc2l6ZT0iMTMiIGZvbnQtd2VpZ2h0PSJib2xkIiBsZW5ndGhBZGp1c3Q9InNwYWNpbmciIHRleHRMZW5ndGg9IjE5IiB4PSIyNSIgeT0iODY3Ljg5ODQiPmFsdDwvdGV4dD48dGV4dCBmaWxsPSIjMDAwMDAwIiBmb250LWZhbWlseT0ic2Fucy1zZXJpZiIgZm9udC1zaXplPSIxMSIgZm9udC13ZWlnaHQ9ImJvbGQiIGxlbmd0aEFkanVzdD0ic3BhY2luZyIgdGV4dExlbmd0aD0iMTY4IiB4PSI4OSIgeT0iODY3LjAwNzgiPltNaXNzaW5nIEFzc2Vzc21lbnQgUmVzdWx0c108L3RleHQ+PHBvbHlnb24gZmlsbD0iIzE4MTgxOCIgcG9pbnRzPSI1OC41LDg4Ni40Mzc1LDQ4LjUsODkwLjQzNzUsNTguNSw4OTQuNDM3NSw1NC41LDg5MC40Mzc1IiBzdHlsZT0ic3Ryb2tlOiMxODE4MTg7c3Ryb2tlLXdpZHRoOjEuMDsiLz48bGluZSBzdHlsZT0ic3Ryb2tlOiMxODE4MTg7c3Ryb2tlLXdpZHRoOjEuMDtzdHJva2UtZGFzaGFycmF5OjIuMCwyLjA7IiB4MT0iNTIuNSIgeDI9IjQ1NC41IiB5MT0iODkwLjQzNzUiIHkyPSI4OTAuNDM3NSIvPjx0ZXh0IGZpbGw9IiMwMDAwMDAiIGZvbnQtZmFtaWx5PSJzYW5zLXNlcmlmIiBmb250LXNpemU9IjEzIiBsZW5ndGhBZGp1c3Q9InNwYWNpbmciIHRleHRMZW5ndGg9IjM4NCIgeD0iNjQuNSIgeT0iODg2LjgxMjUiPkNhbm5vdCBnZW5lcmF0ZSByb2FkbWFwLCBjb21wbGV0ZSBhc3Nlc3NtZW50cyBmaXJzdCBbT1VUXTwvdGV4dD48bGluZSBzdHlsZT0ic3Ryb2tlOiMwMDAwMDA7c3Ryb2tlLXdpZHRoOjEuMDtzdHJva2UtZGFzaGFycmF5OjIuMCwyLjA7IiB4MT0iMTAiIHgyPSIxMTgxLjUiIHkxPSI4OTkuNDM3NSIgeTI9Ijg5OS40Mzc1Ii8+PHRleHQgZmlsbD0iIzAwMDAwMCIgZm9udC1mYW1pbHk9InNhbnMtc2VyaWYiIGZvbnQtc2l6ZT0iMTEiIGZvbnQtd2VpZ2h0PSJib2xkIiBsZW5ndGhBZGp1c3Q9InNwYWNpbmciIHRleHRMZW5ndGg9IjE1NiIgeD0iMTUiIHk9IjkwOS44MzU5Ij5bVmFsaWQgQXNzZXNzbWVudCBSZXN1bHRzXTwvdGV4dD48cG9seWdvbiBmaWxsPSIjMTgxODE4IiBwb2ludHM9Ijc4Ny41LDkyOC4xMjUsNzk3LjUsOTMyLjEyNSw3ODcuNSw5MzYuMTI1LDc5MS41LDkzMi4xMjUiIHN0eWxlPSJzdHJva2U6IzE4MTgxODtzdHJva2Utd2lkdGg6MS4wOyIvPjxsaW5lIHN0eWxlPSJzdHJva2U6IzE4MTgxODtzdHJva2Utd2lkdGg6MS4wOyIgeDE9IjQ1NS41IiB4Mj0iNzkzLjUiIHkxPSI5MzIuMTI1IiB5Mj0iOTMyLjEyNSIvPjx0ZXh0IGZpbGw9IiMwMDAwMDAiIGZvbnQtZmFtaWx5PSJzYW5zLXNlcmlmIiBmb250LXNpemU9IjEzIiBsZW5ndGhBZGp1c3Q9InNwYWNpbmciIHRleHRMZW5ndGg9IjE1NiIgeD0iNDYyLjUiIHk9IjkyOC41Ij5nZW5lcmF0ZVJvYWRtYXAodXNlcklEKTwvdGV4dD48cG9seWdvbiBmaWxsPSIjMTgxODE4IiBwb2ludHM9IjExMTcuNSw5NTYuMDM5MSwxMTI3LjUsOTYwLjAzOTEsMTExNy41LDk2NC4wMzkxLDExMjEuNSw5NjAuMDM5MSIgc3R5bGU9InN0cm9rZTojMTgxODE4O3N0cm9rZS13aWR0aDoxLjA7Ii8+PGxpbmUgc3R5bGU9InN0cm9rZTojMTgxODE4O3N0cm9rZS13aWR0aDoxLjA7IiB4MT0iNzk5LjUiIHgyPSIxMTIzLjUiIHkxPSI5NjAuMDM5MSIgeTI9Ijk2MC4wMzkxIi8+PHRleHQgZmlsbD0iIzAwMDAwMCIgZm9udC1mYW1pbHk9InNhbnMtc2VyaWYiIGZvbnQtc2l6ZT0iMTMiIGxlbmd0aEFkanVzdD0ic3BhY2luZyIgdGV4dExlbmd0aD0iMjE2IiB4PSI4MDYuNSIgeT0iOTU2LjQxNDEiPmFuYWx5emVBc3Nlc3NtZW50UmVzdWx0cyh1c2VySUQpPC90ZXh0Pjxwb2x5Z29uIGZpbGw9IiMxODE4MTgiIHBvaW50cz0iODEwLjUsOTgzLjk1MzEsODAwLjUsOTg3Ljk1MzEsODEwLjUsOTkxLjk1MzEsODA2LjUsOTg3Ljk1MzEiIHN0eWxlPSJzdHJva2U6IzE4MTgxODtzdHJva2Utd2lkdGg6MS4wOyIvPjxsaW5lIHN0eWxlPSJzdHJva2U6IzE4MTgxODtzdHJva2Utd2lkdGg6MS4wO3N0cm9rZS1kYXNoYXJyYXk6Mi4wLDIuMDsiIHgxPSI4MDQuNSIgeDI9IjExMjguNSIgeTE9Ijk4Ny45NTMxIiB5Mj0iOTg3Ljk1MzEiLz48dGV4dCBmaWxsPSIjMDAwMDAwIiBmb250LWZhbWlseT0ic2Fucy1zZXJpZiIgZm9udC1zaXplPSIxMyIgbGVuZ3RoQWRqdXN0PSJzcGFjaW5nIiB0ZXh0TGVuZ3RoPSIxMzAiIHg9IjgxNi41IiB5PSI5ODQuMzI4MSI+UmVjb21tZW5kZWQgcm9hZG1hcDwvdGV4dD48cG9seWdvbiBmaWxsPSIjMTgxODE4IiBwb2ludHM9IjQ2Ni41LDEwMTEuODY3Miw0NTYuNSwxMDE1Ljg2NzIsNDY2LjUsMTAxOS44NjcyLDQ2Mi41LDEwMTUuODY3MiIgc3R5bGU9InN0cm9rZTojMTgxODE4O3N0cm9rZS13aWR0aDoxLjA7Ii8+PGxpbmUgc3R5bGU9InN0cm9rZTojMTgxODE4O3N0cm9rZS13aWR0aDoxLjA7c3Ryb2tlLWRhc2hhcnJheToyLjAsMi4wOyIgeDE9IjQ2MC41IiB4Mj0iNzk4LjUiIHkxPSIxMDE1Ljg2NzIiIHkyPSIxMDE1Ljg2NzIiLz48dGV4dCBmaWxsPSIjMDAwMDAwIiBmb250LWZhbWlseT0ic2Fucy1zZXJpZiIgZm9udC1zaXplPSIxMyIgbGVuZ3RoQWRqdXN0PSJzcGFjaW5nIiB0ZXh0TGVuZ3RoPSIxNDEiIHg9IjQ3Mi41IiB5PSIxMDEyLjI0MjIiPkRpc3BsYXkgcm9hZG1hcCBbT1VUXTwvdGV4dD48cG9seWdvbiBmaWxsPSIjMTgxODE4IiBwb2ludHM9IjU4LjUsMTAzOS43ODEzLDQ4LjUsMTA0My43ODEzLDU4LjUsMTA0Ny43ODEzLDU0LjUsMTA0My43ODEzIiBzdHlsZT0ic3Ryb2tlOiMxODE4MTg7c3Ryb2tlLXdpZHRoOjEuMDsiLz48bGluZSBzdHlsZT0ic3Ryb2tlOiMxODE4MTg7c3Ryb2tlLXdpZHRoOjEuMDtzdHJva2UtZGFzaGFycmF5OjIuMCwyLjA7IiB4MT0iNTIuNSIgeDI9IjQ1NC41IiB5MT0iMTA0My43ODEzIiB5Mj0iMTA0My43ODEzIi8+PHRleHQgZmlsbD0iIzAwMDAwMCIgZm9udC1mYW1pbHk9InNhbnMtc2VyaWYiIGZvbnQtc2l6ZT0iMTMiIGxlbmd0aEFkanVzdD0ic3BhY2luZyIgdGV4dExlbmd0aD0iMTc2IiB4PSI2NC41IiB5PSIxMDQwLjE1NjMiPlBlcnNvbmFsaXplZCBSb2FkbWFwIFtPVVRdPC90ZXh0PjxyZWN0IGZpbGw9IiNFRUVFRUUiIGhlaWdodD0iMyIgc3R5bGU9InN0cm9rZTojRUVFRUVFO3N0cm9rZS13aWR0aDoxLjA7IiB3aWR0aD0iMTE5MS41IiB4PSIwIiB5PSIxMDc4LjczODMiLz48bGluZSBzdHlsZT0ic3Ryb2tlOiMwMDAwMDA7c3Ryb2tlLXdpZHRoOjEuMDsiIHgxPSIwIiB4Mj0iMTE5MS41IiB5MT0iMTA3OC43MzgzIiB5Mj0iMTA3OC43MzgzIi8+PGxpbmUgc3R5bGU9InN0cm9rZTojMDAwMDAwO3N0cm9rZS13aWR0aDoxLjA7IiB4MT0iMCIgeDI9IjExOTEuNSIgeTE9IjEwODEuNzM4MyIgeTI9IjEwODEuNzM4MyIvPjxyZWN0IGZpbGw9IiNFRUVFRUUiIGhlaWdodD0iMjEuOTE0MSIgc3R5bGU9InN0cm9rZTojMDAwMDAwO3N0cm9rZS13aWR0aDoyLjA7IiB3aWR0aD0iMTkxIiB4PSI1MDAuMjUiIHk9IjEwNjguNzgxMyIvPjx0ZXh0IGZpbGw9IiMwMDAwMDAiIGZvbnQtZmFtaWx5PSJzYW5zLXNlcmlmIiBmb250LXNpemU9IjEzIiBmb250LXdlaWdodD0iYm9sZCIgbGVuZ3RoQWRqdXN0PSJzcGFjaW5nIiB0ZXh0TGVuZ3RoPSIxNzAiIHg9IjUwNi4yNSIgeT0iMTA4NS4wNzAzIj4iSm9pbiBDb21tdW5pdHkiIFVzZSBDYXNlPC90ZXh0Pjxwb2x5Z29uIGZpbGw9IiMxODE4MTgiIHBvaW50cz0iNDQzLjUsMTExNi42MDk0LDQ1My41LDExMjAuNjA5NCw0NDMuNSwxMTI0LjYwOTQsNDQ3LjUsMTEyMC42MDk0IiBzdHlsZT0ic3Ryb2tlOiMxODE4MTg7c3Ryb2tlLXdpZHRoOjEuMDsiLz48bGluZSBzdHlsZT0ic3Ryb2tlOiMxODE4MTg7c3Ryb2tlLXdpZHRoOjEuMDsiIHgxPSI0Ny41IiB4Mj0iNDQ5LjUiIHkxPSIxMTIwLjYwOTQiIHkyPSIxMTIwLjYwOTQiLz48dGV4dCBmaWxsPSIjMDAwMDAwIiBmb250LWZhbWlseT0ic2Fucy1zZXJpZiIgZm9udC1zaXplPSIxMyIgbGVuZ3RoQWRqdXN0PSJzcGFjaW5nIiB0ZXh0TGVuZ3RoPSIxODAiIHg9IjU0LjUiIHk9IjExMTYuOTg0NCI+U2VhcmNoIGZvciBjb21tdW5pdGllcyBbSU5dPC90ZXh0Pjxwb2x5Z29uIGZpbGw9IiMxODE4MTgiIHBvaW50cz0iNzg3LjUsMTE0NC41MjM0LDc5Ny41LDExNDguNTIzNCw3ODcuNSwxMTUyLjUyMzQsNzkxLjUsMTE0OC41MjM0IiBzdHlsZT0ic3Ryb2tlOiMxODE4MTg7c3Ryb2tlLXdpZHRoOjEuMDsiLz48bGluZSBzdHlsZT0ic3Ryb2tlOiMxODE4MTg7c3Ryb2tlLXdpZHRoOjEuMDsiIHgxPSI0NTUuNSIgeDI9Ijc5My41IiB5MT0iMTE0OC41MjM0IiB5Mj0iMTE0OC41MjM0Ii8+PHRleHQgZmlsbD0iIzAwMDAwMCIgZm9udC1mYW1pbHk9InNhbnMtc2VyaWYiIGZvbnQtc2l6ZT0iMTMiIGxlbmd0aEFkanVzdD0ic3BhY2luZyIgdGV4dExlbmd0aD0iMTUyIiB4PSI0NjIuNSIgeT0iMTE0NC44OTg0Ij5mZXRjaENvbW11bml0aWVzKHF1ZXJ5KTwvdGV4dD48cG9seWdvbiBmaWxsPSIjMTgxODE4IiBwb2ludHM9IjExMTcuNSwxMTcyLjQzNzUsMTEyNy41LDExNzYuNDM3NSwxMTE3LjUsMTE4MC40Mzc1LDExMjEuNSwxMTc2LjQzNzUiIHN0eWxlPSJzdHJva2U6IzE4MTgxODtzdHJva2Utd2lkdGg6MS4wOyIvPjxsaW5lIHN0eWxlPSJzdHJva2U6IzE4MTgxODtzdHJva2Utd2lkdGg6MS4wOyIgeDE9Ijc5OS41IiB4Mj0iMTEyMy41IiB5MT0iMTE3Ni40Mzc1IiB5Mj0iMTE3Ni40Mzc1Ii8+PHRleHQgZmlsbD0iIzAwMDAwMCIgZm9udC1mYW1pbHk9InNhbnMtc2VyaWYiIGZvbnQtc2l6ZT0iMTMiIGxlbmd0aEFkanVzdD0ic3BhY2luZyIgdGV4dExlbmd0aD0iMTg2IiB4PSI4MDYuNSIgeT0iMTE3Mi44MTI1Ij5yZXRyaWV2ZUNvbW11bml0eUxpc3QocXVlcnkpPC90ZXh0Pjxwb2x5Z29uIGZpbGw9IiMxODE4MTgiIHBvaW50cz0iODEwLjUsMTIwMC4zNTE2LDgwMC41LDEyMDQuMzUxNiw4MTAuNSwxMjA4LjM1MTYsODA2LjUsMTIwNC4zNTE2IiBzdHlsZT0ic3Ryb2tlOiMxODE4MTg7c3Ryb2tlLXdpZHRoOjEuMDsiLz48bGluZSBzdHlsZT0ic3Ryb2tlOiMxODE4MTg7c3Ryb2tlLXdpZHRoOjEuMDtzdHJva2UtZGFzaGFycmF5OjIuMCwyLjA7IiB4MT0iODA0LjUiIHgyPSIxMTI4LjUiIHkxPSIxMjA0LjM1MTYiIHkyPSIxMjA0LjM1MTYiLz48dGV4dCBmaWxsPSIjMDAwMDAwIiBmb250LWZhbWlseT0ic2Fucy1zZXJpZiIgZm9udC1zaXplPSIxMyIgbGVuZ3RoQWRqdXN0PSJzcGFjaW5nIiB0ZXh0TGVuZ3RoPSIxMjUiIHg9IjgxNi41IiB5PSIxMjAwLjcyNjYiPkxpc3Qgb2YgY29tbXVuaXRpZXM8L3RleHQ+PHBvbHlnb24gZmlsbD0iIzE4MTgxOCIgcG9pbnRzPSI0NjYuNSwxMjI4LjI2NTYsNDU2LjUsMTIzMi4yNjU2LDQ2Ni41LDEyMzYuMjY1Niw0NjIuNSwxMjMyLjI2NTYiIHN0eWxlPSJzdHJva2U6IzE4MTgxODtzdHJva2Utd2lkdGg6MS4wOyIvPjxsaW5lIHN0eWxlPSJzdHJva2U6IzE4MTgxODtzdHJva2Utd2lkdGg6MS4wO3N0cm9rZS1kYXNoYXJyYXk6Mi4wLDIuMDsiIHgxPSI0NjAuNSIgeDI9Ijc5OC41IiB5MT0iMTIzMi4yNjU2IiB5Mj0iMTIzMi4yNjU2Ii8+PHRleHQgZmlsbD0iIzAwMDAwMCIgZm9udC1mYW1pbHk9InNhbnMtc2VyaWYiIGZvbnQtc2l6ZT0iMTMiIGxlbmd0aEFkanVzdD0ic3BhY2luZyIgdGV4dExlbmd0aD0iMTY1IiB4PSI0NzIuNSIgeT0iMTIyOC42NDA2Ij5EaXNwbGF5IGNvbW11bml0aWVzIFtPVVRdPC90ZXh0PjxwYXRoIGQ9Ik0xMCwxMjQ3LjI2NTYgTDgyLDEyNDcuMjY1NiBMODIsMTI1My4xNzk3IEw3MiwxMjYzLjE3OTcgTDEwLDEyNjMuMTc5NyBMMTAsMTI0Ny4yNjU2ICIgZmlsbD0iI0VFRUVFRSIgc3R5bGU9InN0cm9rZTojMDAwMDAwO3N0cm9rZS13aWR0aDoxLjU7Ii8+PHJlY3QgZmlsbD0ibm9uZSIgaGVpZ2h0PSIxNTUuNDg0NCIgc3R5bGU9InN0cm9rZTojMDAwMDAwO3N0cm9rZS13aWR0aDoxLjU7IiB3aWR0aD0iMTE3MS41IiB4PSIxMCIgeT0iMTI0Ny4yNjU2Ii8+PHRleHQgZmlsbD0iIzAwMDAwMCIgZm9udC1mYW1pbHk9InNhbnMtc2VyaWYiIGZvbnQtc2l6ZT0iMTMiIGZvbnQtd2VpZ2h0PSJib2xkIiBsZW5ndGhBZGp1c3Q9InNwYWNpbmciIHRleHRMZW5ndGg9IjI3IiB4PSIyNSIgeT0iMTI2MC41NTQ3Ij5sb29wPC90ZXh0Pjx0ZXh0IGZpbGw9IiMwMDAwMDAiIGZvbnQtZmFtaWx5PSJzYW5zLXNlcmlmIiBmb250LXNpemU9IjExIiBmb250LXdlaWdodD0iYm9sZCIgbGVuZ3RoQWRqdXN0PSJzcGFjaW5nIiB0ZXh0TGVuZ3RoPSIxMjYiIHg9Ijk3IiB5PSIxMjU5LjY2NDEiPltDb21tdW5pdHkgU2VsZWN0aW9uXTwvdGV4dD48cG9seWdvbiBmaWxsPSIjMTgxODE4IiBwb2ludHM9IjQ0My41LDEyNzkuMDkzOCw0NTMuNSwxMjgzLjA5MzgsNDQzLjUsMTI4Ny4wOTM4LDQ0Ny41LDEyODMuMDkzOCIgc3R5bGU9InN0cm9rZTojMTgxODE4O3N0cm9rZS13aWR0aDoxLjA7Ii8+PGxpbmUgc3R5bGU9InN0cm9rZTojMTgxODE4O3N0cm9rZS13aWR0aDoxLjA7IiB4MT0iNDcuNSIgeDI9IjQ0OS41IiB5MT0iMTI4My4wOTM4IiB5Mj0iMTI4My4wOTM4Ii8+PHRleHQgZmlsbD0iIzAwMDAwMCIgZm9udC1mYW1pbHk9InNhbnMtc2VyaWYiIGZvbnQtc2l6ZT0iMTMiIGxlbmd0aEFkanVzdD0ic3BhY2luZyIgdGV4dExlbmd0aD0iMTc3IiB4PSI1NC41IiB5PSIxMjc5LjQ2ODgiPlZpZXcgY29tbXVuaXR5IGRldGFpbHMgW0lOXTwvdGV4dD48cG9seWdvbiBmaWxsPSIjMTgxODE4IiBwb2ludHM9Ijc4Ny41LDEzMDcuMDA3OCw3OTcuNSwxMzExLjAwNzgsNzg3LjUsMTMxNS4wMDc4LDc5MS41LDEzMTEuMDA3OCIgc3R5bGU9InN0cm9rZTojMTgxODE4O3N0cm9rZS13aWR0aDoxLjA7Ii8+PGxpbmUgc3R5bGU9InN0cm9rZTojMTgxODE4O3N0cm9rZS13aWR0aDoxLjA7IiB4MT0iNDU1LjUiIHgyPSI3OTMuNSIgeTE9IjEzMTEuMDA3OCIgeTI9IjEzMTEuMDA3OCIvPjx0ZXh0IGZpbGw9IiMwMDAwMDAiIGZvbnQtZmFtaWx5PSJzYW5zLXNlcmlmIiBmb250LXNpemU9IjEzIiBsZW5ndGhBZGp1c3Q9InNwYWNpbmciIHRleHRMZW5ndGg9IjIyMiIgeD0iNDYyLjUiIHk9IjEzMDcuMzgyOCI+ZmV0Y2hDb21tdW5pdHlEZXRhaWxzKGNvbW11bml0eUlEKTwvdGV4dD48cG9seWdvbiBmaWxsPSIjMTgxODE4IiBwb2ludHM9IjExMTcuNSwxMzM0LjkyMTksMTEyNy41LDEzMzguOTIxOSwxMTE3LjUsMTM0Mi45MjE5LDExMjEuNSwxMzM4LjkyMTkiIHN0eWxlPSJzdHJva2U6IzE4MTgxODtzdHJva2Utd2lkdGg6MS4wOyIvPjxsaW5lIHN0eWxlPSJzdHJva2U6IzE4MTgxODtzdHJva2Utd2lkdGg6MS4wOyIgeDE9Ijc5OS41IiB4Mj0iMTEyMy41IiB5MT0iMTMzOC45MjE5IiB5Mj0iMTMzOC45MjE5Ii8+PHRleHQgZmlsbD0iIzAwMDAwMCIgZm9udC1mYW1pbHk9InNhbnMtc2VyaWYiIGZvbnQtc2l6ZT0iMTMiIGxlbmd0aEFkanVzdD0ic3BhY2luZyIgdGV4dExlbmd0aD0iMjQzIiB4PSI4MDYuNSIgeT0iMTMzNS4yOTY5Ij5yZXRyaWV2ZUNvbW11bml0eURldGFpbHMoY29tbXVuaXR5SUQpPC90ZXh0Pjxwb2x5Z29uIGZpbGw9IiMxODE4MTgiIHBvaW50cz0iODEwLjUsMTM2Mi44MzU5LDgwMC41LDEzNjYuODM1OSw4MTAuNSwxMzcwLjgzNTksODA2LjUsMTM2Ni44MzU5IiBzdHlsZT0ic3Ryb2tlOiMxODE4MTg7c3Ryb2tlLXdpZHRoOjEuMDsiLz48bGluZSBzdHlsZT0ic3Ryb2tlOiMxODE4MTg7c3Ryb2tlLXdpZHRoOjEuMDtzdHJva2UtZGFzaGFycmF5OjIuMCwyLjA7IiB4MT0iODA0LjUiIHgyPSIxMTI4LjUiIHkxPSIxMzY2LjgzNTkiIHkyPSIxMzY2LjgzNTkiLz48dGV4dCBmaWxsPSIjMDAwMDAwIiBmb250LWZhbWlseT0ic2Fucy1zZXJpZiIgZm9udC1zaXplPSIxMyIgbGVuZ3RoQWRqdXN0PSJzcGFjaW5nIiB0ZXh0TGVuZ3RoPSIxMTIiIHg9IjgxNi41IiB5PSIxMzYzLjIxMDkiPkNvbW11bml0eSBkZXRhaWxzPC90ZXh0Pjxwb2x5Z29uIGZpbGw9IiMxODE4MTgiIHBvaW50cz0iNDY2LjUsMTM5MC43NSw0NTYuNSwxMzk0Ljc1LDQ2Ni41LDEzOTguNzUsNDYyLjUsMTM5NC43NSIgc3R5bGU9InN0cm9rZTojMTgxODE4O3N0cm9rZS13aWR0aDoxLjA7Ii8+PGxpbmUgc3R5bGU9InN0cm9rZTojMTgxODE4O3N0cm9rZS13aWR0aDoxLjA7c3Ryb2tlLWRhc2hhcnJheToyLjAsMi4wOyIgeDE9IjQ2MC41IiB4Mj0iNzk4LjUiIHkxPSIxMzk0Ljc1IiB5Mj0iMTM5NC43NSIvPjx0ZXh0IGZpbGw9IiMwMDAwMDAiIGZvbnQtZmFtaWx5PSJzYW5zLXNlcmlmIiBmb250LXNpemU9IjEzIiBsZW5ndGhBZGp1c3Q9InNwYWNpbmciIHRleHRMZW5ndGg9IjEzOSIgeD0iNDcyLjUiIHk9IjEzOTEuMTI1Ij5EaXNwbGF5IGRldGFpbHMgW09VVF08L3RleHQ+PHBvbHlnb24gZmlsbD0iIzE4MTgxOCIgcG9pbnRzPSI0NDMuNSwxNDI1LjY2NDEsNDUzLjUsMTQyOS42NjQxLDQ0My41LDE0MzMuNjY0MSw0NDcuNSwxNDI5LjY2NDEiIHN0eWxlPSJzdHJva2U6IzE4MTgxODtzdHJva2Utd2lkdGg6MS4wOyIvPjxsaW5lIHN0eWxlPSJzdHJva2U6IzE4MTgxODtzdHJva2Utd2lkdGg6MS4wOyIgeDE9IjQ3LjUiIHgyPSI0NDkuNSIgeTE9IjE0MjkuNjY0MSIgeTI9IjE0MjkuNjY0MSIvPjx0ZXh0IGZpbGw9IiMwMDAwMDAiIGZvbnQtZmFtaWx5PSJzYW5zLXNlcmlmIiBmb250LXNpemU9IjEzIiBsZW5ndGhBZGp1c3Q9InNwYWNpbmciIHRleHRMZW5ndGg9IjE4NiIgeD0iNTQuNSIgeT0iMTQyNi4wMzkxIj5Kb2luIHNlbGVjdGVkIGNvbW11bml0eSBbSU5dPC90ZXh0Pjxwb2x5Z29uIGZpbGw9IiMxODE4MTgiIHBvaW50cz0iNzg3LjUsMTQ1My41NzgxLDc5Ny41LDE0NTcuNTc4MSw3ODcuNSwxNDYxLjU3ODEsNzkxLjUsMTQ1Ny41NzgxIiBzdHlsZT0ic3Ryb2tlOiMxODE4MTg7c3Ryb2tlLXdpZHRoOjEuMDsiLz48bGluZSBzdHlsZT0ic3Ryb2tlOiMxODE4MTg7c3Ryb2tlLXdpZHRoOjEuMDsiIHgxPSI0NTUuNSIgeDI9Ijc5My41IiB5MT0iMTQ1Ny41NzgxIiB5Mj0iMTQ1Ny41NzgxIi8+PHRleHQgZmlsbD0iIzAwMDAwMCIgZm9udC1mYW1pbHk9InNhbnMtc2VyaWYiIGZvbnQtc2l6ZT0iMTMiIGxlbmd0aEFkanVzdD0ic3BhY2luZyIgdGV4dExlbmd0aD0iMjU5IiB4PSI0NjIuNSIgeT0iMTQ1My45NTMxIj5hZGRDb21tdW5pdHlNZW1iZXIodXNlcklELCBjb21tdW5pdHlJRCk8L3RleHQ+PHBvbHlnb24gZmlsbD0iIzE4MTgxOCIgcG9pbnRzPSIxMTE3LjUsMTQ4MS40OTIyLDExMjcuNSwxNDg1LjQ5MjIsMTExNy41LDE0ODkuNDkyMiwxMTIxLjUsMTQ4NS40OTIyIiBzdHlsZT0ic3Ryb2tlOiMxODE4MTg7c3Ryb2tlLXdpZHRoOjEuMDsiLz48bGluZSBzdHlsZT0ic3Ryb2tlOiMxODE4MTg7c3Ryb2tlLXdpZHRoOjEuMDsiIHgxPSI3OTkuNSIgeDI9IjExMjMuNSIgeTE9IjE0ODUuNDkyMiIgeTI9IjE0ODUuNDkyMiIvPjx0ZXh0IGZpbGw9IiMwMDAwMDAiIGZvbnQtZmFtaWx5PSJzYW5zLXNlcmlmIiBmb250LXNpemU9IjEzIiBsZW5ndGhBZGp1c3Q9InNwYWNpbmciIHRleHRMZW5ndGg9IjMwNiIgeD0iODA2LjUiIHk9IjE0ODEuODY3MiI+dXBkYXRlQ29tbXVuaXR5TWVtYmVyc2hpcCh1c2VySUQsIGNvbW11bml0eUlEKTwvdGV4dD48cG9seWdvbiBmaWxsPSIjMTgxODE4IiBwb2ludHM9IjgxMC41LDE1MDkuNDA2Myw4MDAuNSwxNTEzLjQwNjMsODEwLjUsMTUxNy40MDYzLDgwNi41LDE1MTMuNDA2MyIgc3R5bGU9InN0cm9rZTojMTgxODE4O3N0cm9rZS13aWR0aDoxLjA7Ii8+PGxpbmUgc3R5bGU9InN0cm9rZTojMTgxODE4O3N0cm9rZS13aWR0aDoxLjA7c3Ryb2tlLWRhc2hhcnJheToyLjAsMi4wOyIgeDE9IjgwNC41IiB4Mj0iMTEyOC41IiB5MT0iMTUxMy40MDYzIiB5Mj0iMTUxMy40MDYzIi8+PHRleHQgZmlsbD0iIzAwMDAwMCIgZm9udC1mYW1pbHk9InNhbnMtc2VyaWYiIGZvbnQtc2l6ZT0iMTMiIGxlbmd0aEFkanVzdD0ic3BhY2luZyIgdGV4dExlbmd0aD0iMTU0IiB4PSI4MTYuNSIgeT0iMTUwOS43ODEzIj5NZW1iZXJzaGlwIGNvbmZpcm1hdGlvbjwvdGV4dD48cG9seWdvbiBmaWxsPSIjMTgxODE4IiBwb2ludHM9IjQ2Ni41LDE1MzcuMzIwMyw0NTYuNSwxNTQxLjMyMDMsNDY2LjUsMTU0NS4zMjAzLDQ2Mi41LDE1NDEuMzIwMyIgc3R5bGU9InN0cm9rZTojMTgxODE4O3N0cm9rZS13aWR0aDoxLjA7Ii8+PGxpbmUgc3R5bGU9InN0cm9rZTojMTgxODE4O3N0cm9rZS13aWR0aDoxLjA7c3Ryb2tlLWRhc2hhcnJheToyLjAsMi4wOyIgeDE9IjQ2MC41IiB4Mj0iNzk4LjUiIHkxPSIxNTQxLjMyMDMiIHkyPSIxNTQxLjMyMDMiLz48dGV4dCBmaWxsPSIjMDAwMDAwIiBmb250LWZhbWlseT0ic2Fucy1zZXJpZiIgZm9udC1zaXplPSIxMyIgbGVuZ3RoQWRqdXN0PSJzcGFjaW5nIiB0ZXh0TGVuZ3RoPSIxMjIiIHg9IjQ3Mi41IiB5PSIxNTM3LjY5NTMiPkpvaW4gc3VjY2VzcyBbT1VUXTwvdGV4dD48cG9seWdvbiBmaWxsPSIjMTgxODE4IiBwb2ludHM9IjU4LjUsMTU2NS4yMzQ0LDQ4LjUsMTU2OS4yMzQ0LDU4LjUsMTU3My4yMzQ0LDU0LjUsMTU2OS4yMzQ0IiBzdHlsZT0ic3Ryb2tlOiMxODE4MTg7c3Ryb2tlLXdpZHRoOjEuMDsiLz48bGluZSBzdHlsZT0ic3Ryb2tlOiMxODE4MTg7c3Ryb2tlLXdpZHRoOjEuMDtzdHJva2UtZGFzaGFycmF5OjIuMCwyLjA7IiB4MT0iNTIuNSIgeDI9IjQ1NC41IiB5MT0iMTU2OS4yMzQ0IiB5Mj0iMTU2OS4yMzQ0Ii8+PHRleHQgZmlsbD0iIzAwMDAwMCIgZm9udC1mYW1pbHk9InNhbnMtc2VyaWYiIGZvbnQtc2l6ZT0iMTMiIGxlbmd0aEFkanVzdD0ic3BhY2luZyIgdGV4dExlbmd0aD0iMjM0IiB4PSI2NC41IiB5PSIxNTY1LjYwOTQiPkNvbW11bml0eSBqb2luZWQgc3VjY2Vzc2Z1bGx5IFtPVVRdPC90ZXh0PjxyZWN0IGZpbGw9IiNFRUVFRUUiIGhlaWdodD0iMyIgc3R5bGU9InN0cm9rZTojRUVFRUVFO3N0cm9rZS13aWR0aDoxLjA7IiB3aWR0aD0iMTE5MS41IiB4PSIwIiB5PSIxNTk3LjE5MTQiLz48bGluZSBzdHlsZT0ic3Ryb2tlOiMwMDAwMDA7c3Ryb2tlLXdpZHRoOjEuMDsiIHgxPSIwIiB4Mj0iMTE5MS41IiB5MT0iMTU5Ny4xOTE0IiB5Mj0iMTU5Ny4xOTE0Ii8+PGxpbmUgc3R5bGU9InN0cm9rZTojMDAwMDAwO3N0cm9rZS13aWR0aDoxLjA7IiB4MT0iMCIgeDI9IjExOTEuNSIgeTE9IjE2MDAuMTkxNCIgeTI9IjE2MDAuMTkxNCIvPjxyZWN0IGZpbGw9IiNFRUVFRUUiIGhlaWdodD0iMjEuOTE0MSIgc3R5bGU9InN0cm9rZTojMDAwMDAwO3N0cm9rZS13aWR0aDoyLjA7IiB3aWR0aD0iMjY4IiB4PSI0NjEuNzUiIHk9IjE1ODcuMjM0NCIvPjx0ZXh0IGZpbGw9IiMwMDAwMDAiIGZvbnQtZmFtaWx5PSJzYW5zLXNlcmlmIiBmb250LXNpemU9IjEzIiBmb250LXdlaWdodD0iYm9sZCIgbGVuZ3RoQWRqdXN0PSJzcGFjaW5nIiB0ZXh0TGVuZ3RoPSIyNDciIHg9IjQ2Ny43NSIgeT0iMTYwMy41MjM0Ij4iUHJvdmlkZSBQbGF0Zm9ybSBGZWVkYmFjayIgVXNlIENhc2U8L3RleHQ+PHBvbHlnb24gZmlsbD0iIzE4MTgxOCIgcG9pbnRzPSI0NDMuNSwxNjM1LjA2MjUsNDUzLjUsMTYzOS4wNjI1LDQ0My41LDE2NDMuMDYyNSw0NDcuNSwxNjM5LjA2MjUiIHN0eWxlPSJzdHJva2U6IzE4MTgxODtzdHJva2Utd2lkdGg6MS4wOyIvPjxsaW5lIHN0eWxlPSJzdHJva2U6IzE4MTgxODtzdHJva2Utd2lkdGg6MS4wOyIgeDE9IjQ3LjUiIHgyPSI0NDkuNSIgeTE9IjE2MzkuMDYyNSIgeTI9IjE2MzkuMDYyNSIvPjx0ZXh0IGZpbGw9IiMwMDAwMDAiIGZvbnQtZmFtaWx5PSJzYW5zLXNlcmlmIiBmb250LXNpemU9IjEzIiBsZW5ndGhBZGp1c3Q9InNwYWNpbmciIHRleHRMZW5ndGg9IjEzMyIgeD0iNTQuNSIgeT0iMTYzNS40Mzc1Ij5TdWJtaXQgZmVlZGJhY2sgW0lOXTwvdGV4dD48cGF0aCBkPSJNMTAsMTY1NC4wNjI1IEw3NCwxNjU0LjA2MjUgTDc0LDE2NTkuOTc2NiBMNjQsMTY2OS45NzY2IEwxMCwxNjY5Ljk3NjYgTDEwLDE2NTQuMDYyNSAiIGZpbGw9IiNFRUVFRUUiIHN0eWxlPSJzdHJva2U6IzAwMDAwMDtzdHJva2Utd2lkdGg6MS41OyIvPjxyZWN0IGZpbGw9Im5vbmUiIGhlaWdodD0iMTk3LjE3MTkiIHN0eWxlPSJzdHJva2U6IzAwMDAwMDtzdHJva2Utd2lkdGg6MS41OyIgd2lkdGg9IjExNzEuNSIgeD0iMTAiIHk9IjE2NTQuMDYyNSIvPjx0ZXh0IGZpbGw9IiMwMDAwMDAiIGZvbnQtZmFtaWx5PSJzYW5zLXNlcmlmIiBmb250LXNpemU9IjEzIiBmb250LXdlaWdodD0iYm9sZCIgbGVuZ3RoQWRqdXN0PSJzcGFjaW5nIiB0ZXh0TGVuZ3RoPSIxOSIgeD0iMjUiIHk9IjE2NjcuMzUxNiI+YWx0PC90ZXh0Pjx0ZXh0IGZpbGw9IiMwMDAwMDAiIGZvbnQtZmFtaWx5PSJzYW5zLXNlcmlmIiBmb250LXNpemU9IjExIiBmb250LXdlaWdodD0iYm9sZCIgbGVuZ3RoQWRqdXN0PSJzcGFjaW5nIiB0ZXh0TGVuZ3RoPSI5MCIgeD0iODkiIHk9IjE2NjYuNDYwOSI+W0ludmFsaWQgSW5wdXRdPC90ZXh0Pjxwb2x5Z29uIGZpbGw9IiMxODE4MTgiIHBvaW50cz0iNTguNSwxNjg1Ljg5MDYsNDguNSwxNjg5Ljg5MDYsNTguNSwxNjkzLjg5MDYsNTQuNSwxNjg5Ljg5MDYiIHN0eWxlPSJzdHJva2U6IzE4MTgxODtzdHJva2Utd2lkdGg6MS4wOyIvPjxsaW5lIHN0eWxlPSJzdHJva2U6IzE4MTgxODtzdHJva2Utd2lkdGg6MS4wO3N0cm9rZS1kYXNoYXJyYXk6Mi4wLDIuMDsiIHgxPSI1Mi41IiB4Mj0iNDU0LjUiIHkxPSIxNjg5Ljg5MDYiIHkyPSIxNjg5Ljg5MDYiLz48dGV4dCBmaWxsPSIjMDAwMDAwIiBmb250LWZhbWlseT0ic2Fucy1zZXJpZiIgZm9udC1zaXplPSIxMyIgbGVuZ3RoQWRqdXN0PSJzcGFjaW5nIiB0ZXh0TGVuZ3RoPSIyMTUiIHg9IjY0LjUiIHk9IjE2ODYuMjY1NiI+RmVlZGJhY2sgc3VibWlzc2lvbiBmYWlsZWQgW09VVF08L3RleHQ+PGxpbmUgc3R5bGU9InN0cm9rZTojMDAwMDAwO3N0cm9rZS13aWR0aDoxLjA7c3Ryb2tlLWRhc2hhcnJheToyLjAsMi4wOyIgeDE9IjEwIiB4Mj0iMTE4MS41IiB5MT0iMTY5OC44OTA2IiB5Mj0iMTY5OC44OTA2Ii8+PHRleHQgZmlsbD0iIzAwMDAwMCIgZm9udC1mYW1pbHk9InNhbnMtc2VyaWYiIGZvbnQtc2l6ZT0iMTEiIGZvbnQtd2VpZ2h0PSJib2xkIiBsZW5ndGhBZGp1c3Q9InNwYWNpbmciIHRleHRMZW5ndGg9Ijc4IiB4PSIxNSIgeT0iMTcwOS4yODkxIj5bVmFsaWQgSW5wdXRdPC90ZXh0Pjxwb2x5Z29uIGZpbGw9IiMxODE4MTgiIHBvaW50cz0iNzg3LjUsMTcyNy41NzgxLDc5Ny41LDE3MzEuNTc4MSw3ODcuNSwxNzM1LjU3ODEsNzkxLjUsMTczMS41NzgxIiBzdHlsZT0ic3Ryb2tlOiMxODE4MTg7c3Ryb2tlLXdpZHRoOjEuMDsiLz48bGluZSBzdHlsZT0ic3Ryb2tlOiMxODE4MTg7c3Ryb2tlLXdpZHRoOjEuMDsiIHgxPSI0NTUuNSIgeDI9Ijc5My41IiB5MT0iMTczMS41NzgxIiB5Mj0iMTczMS41NzgxIi8+PHRleHQgZmlsbD0iIzAwMDAwMCIgZm9udC1mYW1pbHk9InNhbnMtc2VyaWYiIGZvbnQtc2l6ZT0iMTMiIGxlbmd0aEFkanVzdD0ic3BhY2luZyIgdGV4dExlbmd0aD0iMjkzIiB4PSI0NjIuNSIgeT0iMTcyNy45NTMxIj5zYXZlRmVlZGJhY2sodXNlcklELCBmZWVkYmFja1R5cGUsIG1lc3NhZ2UpPC90ZXh0Pjxwb2x5Z29uIGZpbGw9IiMxODE4MTgiIHBvaW50cz0iMTExNy41LDE3NTUuNDkyMiwxMTI3LjUsMTc1OS40OTIyLDExMTcuNSwxNzYzLjQ5MjIsMTEyMS41LDE3NTkuNDkyMiIgc3R5bGU9InN0cm9rZTojMTgxODE4O3N0cm9rZS13aWR0aDoxLjA7Ii8+PGxpbmUgc3R5bGU9InN0cm9rZTojMTgxODE4O3N0cm9rZS13aWR0aDoxLjA7IiB4MT0iNzk5LjUiIHgyPSIxMTIzLjUiIHkxPSIxNzU5LjQ5MjIiIHkyPSIxNzU5LjQ5MjIiLz48dGV4dCBmaWxsPSIjMDAwMDAwIiBmb250LWZhbWlseT0ic2Fucy1zZXJpZiIgZm9udC1zaXplPSIxMyIgbGVuZ3RoQWRqdXN0PSJzcGFjaW5nIiB0ZXh0TGVuZ3RoPSIyOTkiIHg9IjgwNi41IiB5PSIxNzU1Ljg2NzIiPnN0b3JlRmVlZGJhY2sodXNlcklELCBmZWVkYmFja1R5cGUsIG1lc3NhZ2UpPC90ZXh0Pjxwb2x5Z29uIGZpbGw9IiMxODE4MTgiIHBvaW50cz0iODEwLjUsMTc4My40MDYzLDgwMC41LDE3ODcuNDA2Myw4MTAuNSwxNzkxLjQwNjMsODA2LjUsMTc4Ny40MDYzIiBzdHlsZT0ic3Ryb2tlOiMxODE4MTg7c3Ryb2tlLXdpZHRoOjEuMDsiLz48bGluZSBzdHlsZT0ic3Ryb2tlOiMxODE4MTg7c3Ryb2tlLXdpZHRoOjEuMDtzdHJva2UtZGFzaGFycmF5OjIuMCwyLjA7IiB4MT0iODA0LjUiIHgyPSIxMTI4LjUiIHkxPSIxNzg3LjQwNjMiIHkyPSIxNzg3LjQwNjMiLz48dGV4dCBmaWxsPSIjMDAwMDAwIiBmb250LWZhbWlseT0ic2Fucy1zZXJpZiIgZm9udC1zaXplPSIxMyIgbGVuZ3RoQWRqdXN0PSJzcGFjaW5nIiB0ZXh0TGVuZ3RoPSI5OCIgeD0iODE2LjUiIHk9IjE3ODMuNzgxMyI+RmVlZGJhY2sgc2F2ZWQ8L3RleHQ+PHBvbHlnb24gZmlsbD0iIzE4MTgxOCIgcG9pbnRzPSI0NjYuNSwxODExLjMyMDMsNDU2LjUsMTgxNS4zMjAzLDQ2Ni41LDE4MTkuMzIwMyw0NjIuNSwxODE1LjMyMDMiIHN0eWxlPSJzdHJva2U6IzE4MTgxODtzdHJva2Utd2lkdGg6MS4wOyIvPjxsaW5lIHN0eWxlPSJzdHJva2U6IzE4MTgxODtzdHJva2Utd2lkdGg6MS4wO3N0cm9rZS1kYXNoYXJyYXk6Mi4wLDIuMDsiIHgxPSI0NjAuNSIgeDI9Ijc5OC41IiB5MT0iMTgxNS4zMjAzIiB5Mj0iMTgxNS4zMjAzIi8+PHRleHQgZmlsbD0iIzAwMDAwMCIgZm9udC1mYW1pbHk9InNhbnMtc2VyaWYiIGZvbnQtc2l6ZT0iMTMiIGxlbmd0aEFkanVzdD0ic3BhY2luZyIgdGV4dExlbmd0aD0iMjI1IiB4PSI0NzIuNSIgeT0iMTgxMS42OTUzIj5GZWVkYmFjayBzdWJtaXNzaW9uIHN1Y2Nlc3MgW09VVF08L3RleHQ+PHBvbHlnb24gZmlsbD0iIzE4MTgxOCIgcG9pbnRzPSI1OC41LDE4MzkuMjM0NCw0OC41LDE4NDMuMjM0NCw1OC41LDE4NDcuMjM0NCw1NC41LDE4NDMuMjM0NCIgc3R5bGU9InN0cm9rZTojMTgxODE4O3N0cm9rZS13aWR0aDoxLjA7Ii8+PGxpbmUgc3R5bGU9InN0cm9rZTojMTgxODE4O3N0cm9rZS13aWR0aDoxLjA7c3Ryb2tlLWRhc2hhcnJheToyLjAsMi4wOyIgeDE9IjUyLjUiIHgyPSI0NTQuNSIgeTE9IjE4NDMuMjM0NCIgeTI9IjE4NDMuMjM0NCIvPjx0ZXh0IGZpbGw9IiMwMDAwMDAiIGZvbnQtZmFtaWx5PSJzYW5zLXNlcmlmIiBmb250LXNpemU9IjEzIiBsZW5ndGhBZGp1c3Q9InNwYWNpbmciIHRleHRMZW5ndGg9IjI2NiIgeD0iNjQuNSIgeT0iMTgzOS42MDk0Ij5Db25maXJtYXRpb24gb2YgZmVlZGJhY2sgc3VibWl0dGVkIFtPVVRdPC90ZXh0PjxyZWN0IGZpbGw9IiNFRUVFRUUiIGhlaWdodD0iMyIgc3R5bGU9InN0cm9rZTojRUVFRUVFO3N0cm9rZS13aWR0aDoxLjA7IiB3aWR0aD0iMTE5MS41IiB4PSIwIiB5PSIxODc4LjE5MTQiLz48bGluZSBzdHlsZT0ic3Ryb2tlOiMwMDAwMDA7c3Ryb2tlLXdpZHRoOjEuMDsiIHgxPSIwIiB4Mj0iMTE5MS41IiB5MT0iMTg3OC4xOTE0IiB5Mj0iMTg3OC4xOTE0Ii8+PGxpbmUgc3R5bGU9InN0cm9rZTojMDAwMDAwO3N0cm9rZS13aWR0aDoxLjA7IiB4MT0iMCIgeDI9IjExOTEuNSIgeTE9IjE4ODEuMTkxNCIgeTI9IjE4ODEuMTkxNCIvPjxyZWN0IGZpbGw9IiNFRUVFRUUiIGhlaWdodD0iMjEuOTE0MSIgc3R5bGU9InN0cm9rZTojMDAwMDAwO3N0cm9rZS13aWR0aDoyLjA7IiB3aWR0aD0iMTc1IiB4PSI1MDguMjUiIHk9IjE4NjguMjM0NCIvPjx0ZXh0IGZpbGw9IiMwMDAwMDAiIGZvbnQtZmFtaWx5PSJzYW5zLXNlcmlmIiBmb250LXNpemU9IjEzIiBmb250LXdlaWdodD0iYm9sZCIgbGVuZ3RoQWRqdXN0PSJzcGFjaW5nIiB0ZXh0TGVuZ3RoPSIxNTQiIHg9IjUxNC4yNSIgeT0iMTg4NC41MjM0Ij4iRWFybiBCYWRnZXMiIFVzZSBDYXNlPC90ZXh0Pjxwb2x5Z29uIGZpbGw9IiMxODE4MTgiIHBvaW50cz0iNDQzLjUsMTkxNi4wNjI1LDQ1My41LDE5MjAuMDYyNSw0NDMuNSwxOTI0LjA2MjUsNDQ3LjUsMTkyMC4wNjI1IiBzdHlsZT0ic3Ryb2tlOiMxODE4MTg7c3Ryb2tlLXdpZHRoOjEuMDsiLz48bGluZSBzdHlsZT0ic3Ryb2tlOiMxODE4MTg7c3Ryb2tlLXdpZHRoOjEuMDsiIHgxPSI0Ny41IiB4Mj0iNDQ5LjUiIHkxPSIxOTIwLjA2MjUiIHkyPSIxOTIwLjA2MjUiLz48dGV4dCBmaWxsPSIjMDAwMDAwIiBmb250LWZhbWlseT0ic2Fucy1zZXJpZiIgZm9udC1zaXplPSIxMyIgbGVuZ3RoQWRqdXN0PSJzcGFjaW5nIiB0ZXh0TGVuZ3RoPSIxNTEiIHg9IjU0LjUiIHk9IjE5MTYuNDM3NSI+Q29tcGxldGUgbWlsZXN0b25lIFtJTl08L3RleHQ+PHBhdGggZD0iTTEwLDE5MzUuMDYyNSBMNzQsMTkzNS4wNjI1IEw3NCwxOTQwLjk3NjYgTDY0LDE5NTAuOTc2NiBMMTAsMTk1MC45NzY2IEwxMCwxOTM1LjA2MjUgIiBmaWxsPSIjRUVFRUVFIiBzdHlsZT0ic3Ryb2tlOiMwMDAwMDA7c3Ryb2tlLXdpZHRoOjEuNTsiLz48cmVjdCBmaWxsPSJub25lIiBoZWlnaHQ9IjE5Ny4xNzE5IiBzdHlsZT0ic3Ryb2tlOiMwMDAwMDA7c3Ryb2tlLXdpZHRoOjEuNTsiIHdpZHRoPSIxMTcxLjUiIHg9IjEwIiB5PSIxOTM1LjA2MjUiLz48dGV4dCBmaWxsPSIjMDAwMDAwIiBmb250LWZhbWlseT0ic2Fucy1zZXJpZiIgZm9udC1zaXplPSIxMyIgZm9udC13ZWlnaHQ9ImJvbGQiIGxlbmd0aEFkanVzdD0ic3BhY2luZyIgdGV4dExlbmd0aD0iMTkiIHg9IjI1IiB5PSIxOTQ4LjM1MTYiPmFsdDwvdGV4dD48dGV4dCBmaWxsPSIjMDAwMDAwIiBmb250LWZhbWlseT0ic2Fucy1zZXJpZiIgZm9udC1zaXplPSIxMSIgZm9udC13ZWlnaHQ9ImJvbGQiIGxlbmd0aEFkanVzdD0ic3BhY2luZyIgdGV4dExlbmd0aD0iMTc0IiB4PSI4OSIgeT0iMTk0Ny40NjA5Ij5bTWlsZXN0b25lIEFscmVhZHkgQ29tcGxldGVkXTwvdGV4dD48cG9seWdvbiBmaWxsPSIjMTgxODE4IiBwb2ludHM9IjU4LjUsMTk2Ni44OTA2LDQ4LjUsMTk3MC44OTA2LDU4LjUsMTk3NC44OTA2LDU0LjUsMTk3MC44OTA2IiBzdHlsZT0ic3Ryb2tlOiMxODE4MTg7c3Ryb2tlLXdpZHRoOjEuMDsiLz48bGluZSBzdHlsZT0ic3Ryb2tlOiMxODE4MTg7c3Ryb2tlLXdpZHRoOjEuMDtzdHJva2UtZGFzaGFycmF5OjIuMCwyLjA7IiB4MT0iNTIuNSIgeDI9IjQ1NC41IiB5MT0iMTk3MC44OTA2IiB5Mj0iMTk3MC44OTA2Ii8+PHRleHQgZmlsbD0iIzAwMDAwMCIgZm9udC1mYW1pbHk9InNhbnMtc2VyaWYiIGZvbnQtc2l6ZT0iMTMiIGxlbmd0aEFkanVzdD0ic3BhY2luZyIgdGV4dExlbmd0aD0iMTc4IiB4PSI2NC41IiB5PSIxOTY3LjI2NTYiPkJhZGdlIGFscmVhZHkgZWFybmVkIFtPVVRdPC90ZXh0PjxsaW5lIHN0eWxlPSJzdHJva2U6IzAwMDAwMDtzdHJva2Utd2lkdGg6MS4wO3N0cm9rZS1kYXNoYXJyYXk6Mi4wLDIuMDsiIHgxPSIxMCIgeDI9IjExODEuNSIgeTE9IjE5NzkuODkwNiIgeTI9IjE5NzkuODkwNiIvPjx0ZXh0IGZpbGw9IiMwMDAwMDAiIGZvbnQtZmFtaWx5PSJzYW5zLXNlcmlmIiBmb250LXNpemU9IjExIiBmb250LXdlaWdodD0iYm9sZCIgbGVuZ3RoQWRqdXN0PSJzcGFjaW5nIiB0ZXh0TGVuZ3RoPSI5MCIgeD0iMTUiIHk9IjE5OTAuMjg5MSI+W05ldyBNaWxlc3RvbmVdPC90ZXh0Pjxwb2x5Z29uIGZpbGw9IiMxODE4MTgiIHBvaW50cz0iNzg3LjUsMjAwOC41NzgxLDc5Ny41LDIwMTIuNTc4MSw3ODcuNSwyMDE2LjU3ODEsNzkxLjUsMjAxMi41NzgxIiBzdHlsZT0ic3Ryb2tlOiMxODE4MTg7c3Ryb2tlLXdpZHRoOjEuMDsiLz48bGluZSBzdHlsZT0ic3Ryb2tlOiMxODE4MTg7c3Ryb2tlLXdpZHRoOjEuMDsiIHgxPSI0NTUuNSIgeDI9Ijc5My41IiB5MT0iMjAxMi41NzgxIiB5Mj0iMjAxMi41NzgxIi8+PHRleHQgZmlsbD0iIzAwMDAwMCIgZm9udC1mYW1pbHk9InNhbnMtc2VyaWYiIGZvbnQtc2l6ZT0iMTMiIGxlbmd0aEFkanVzdD0ic3BhY2luZyIgdGV4dExlbmd0aD0iMjk5IiB4PSI0NjIuNSIgeT0iMjAwOC45NTMxIj5jaGVja01pbGVzdG9uZUNvbXBsZXRpb24odXNlcklELCBtaWxlc3RvbmVJRCk8L3RleHQ+PHBvbHlnb24gZmlsbD0iIzE4MTgxOCIgcG9pbnRzPSIxMTE3LjUsMjAzNi40OTIyLDExMjcuNSwyMDQwLjQ5MjIsMTExNy41LDIwNDQuNDkyMiwxMTIxLjUsMjA0MC40OTIyIiBzdHlsZT0ic3Ryb2tlOiMxODE4MTg7c3Ryb2tlLXdpZHRoOjEuMDsiLz48bGluZSBzdHlsZT0ic3Ryb2tlOiMxODE4MTg7c3Ryb2tlLXdpZHRoOjEuMDsiIHgxPSI3OTkuNSIgeDI9IjExMjMuNSIgeTE9IjIwNDAuNDkyMiIgeTI9IjIwNDAuNDkyMiIvPjx0ZXh0IGZpbGw9IiMwMDAwMDAiIGZvbnQtZmFtaWx5PSJzYW5zLXNlcmlmIiBmb250LXNpemU9IjEzIiBsZW5ndGhBZGp1c3Q9InNwYWNpbmciIHRleHRMZW5ndGg9IjE4MyIgeD0iODA2LjUiIHk9IjIwMzYuODY3MiI+YXdhcmRCYWRnZSh1c2VySUQsIGJhZGdlSUQpPC90ZXh0Pjxwb2x5Z29uIGZpbGw9IiMxODE4MTgiIHBvaW50cz0iODEwLjUsMjA2NC40MDYzLDgwMC41LDIwNjguNDA2Myw4MTAuNSwyMDcyLjQwNjMsODA2LjUsMjA2OC40MDYzIiBzdHlsZT0ic3Ryb2tlOiMxODE4MTg7c3Ryb2tlLXdpZHRoOjEuMDsiLz48bGluZSBzdHlsZT0ic3Ryb2tlOiMxODE4MTg7c3Ryb2tlLXdpZHRoOjEuMDtzdHJva2UtZGFzaGFycmF5OjIuMCwyLjA7IiB4MT0iODA0LjUiIHgyPSIxMTI4LjUiIHkxPSIyMDY4LjQwNjMiIHkyPSIyMDY4LjQwNjMiLz48dGV4dCBmaWxsPSIjMDAwMDAwIiBmb250LWZhbWlseT0ic2Fucy1zZXJpZiIgZm9udC1zaXplPSIxMyIgbGVuZ3RoQWRqdXN0PSJzcGFjaW5nIiB0ZXh0TGVuZ3RoPSI5MCIgeD0iODE2LjUiIHk9IjIwNjQuNzgxMyI+QmFkZ2UgYXdhcmRlZDwvdGV4dD48cG9seWdvbiBmaWxsPSIjMTgxODE4IiBwb2ludHM9IjQ2Ni41LDIwOTIuMzIwMyw0NTYuNSwyMDk2LjMyMDMsNDY2LjUsMjEwMC4zMjAzLDQ2Mi41LDIwOTYuMzIwMyIgc3R5bGU9InN0cm9rZTojMTgxODE4O3N0cm9rZS13aWR0aDoxLjA7Ii8+PGxpbmUgc3R5bGU9InN0cm9rZTojMTgxODE4O3N0cm9rZS13aWR0aDoxLjA7c3Ryb2tlLWRhc2hhcnJheToyLjAsMi4wOyIgeDE9IjQ2MC41IiB4Mj0iNzk4LjUiIHkxPSIyMDk2LjMyMDMiIHkyPSIyMDk2LjMyMDMiLz48dGV4dCBmaWxsPSIjMDAwMDAwIiBmb250LWZhbWlseT0ic2Fucy1zZXJpZiIgZm9udC1zaXplPSIxMyIgbGVuZ3RoQWRqdXN0PSJzcGFjaW5nIiB0ZXh0TGVuZ3RoPSIxNjkiIHg9IjQ3Mi41IiB5PSIyMDkyLjY5NTMiPk5vdGlmeSBiYWRnZSBlYXJuZWQgW09VVF08L3RleHQ+PHBvbHlnb24gZmlsbD0iIzE4MTgxOCIgcG9pbnRzPSI1OC41LDIxMjAuMjM0NCw0OC41LDIxMjQuMjM0NCw1OC41LDIxMjguMjM0NCw1NC41LDIxMjQuMjM0NCIgc3R5bGU9InN0cm9rZTojMTgxODE4O3N0cm9rZS13aWR0aDoxLjA7Ii8+PGxpbmUgc3R5bGU9InN0cm9rZTojMTgxODE4O3N0cm9rZS13aWR0aDoxLjA7c3Ryb2tlLWRhc2hhcnJheToyLjAsMi4wOyIgeDE9IjUyLjUiIHgyPSI0NTQuNSIgeTE9IjIxMjQuMjM0NCIgeTI9IjIxMjQuMjM0NCIvPjx0ZXh0IGZpbGw9IiMwMDAwMDAiIGZvbnQtZmFtaWx5PSJzYW5zLXNlcmlmIiBmb250LXNpemU9IjEzIiBsZW5ndGhBZGp1c3Q9InNwYWNpbmciIHRleHRMZW5ndGg9IjIwOCIgeD0iNjQuNSIgeT0iMjEyMC42MDk0Ij5CYWRnZSBlYXJuZWQgbm90aWZpY2F0aW9uIFtPVVRdPC90ZXh0PjxyZWN0IGZpbGw9IiNFRUVFRUUiIGhlaWdodD0iMyIgc3R5bGU9InN0cm9rZTojRUVFRUVFO3N0cm9rZS13aWR0aDoxLjA7IiB3aWR0aD0iMTE5MS41IiB4PSIwIiB5PSIyMTU5LjE5MTQiLz48bGluZSBzdHlsZT0ic3Ryb2tlOiMwMDAwMDA7c3Ryb2tlLXdpZHRoOjEuMDsiIHgxPSIwIiB4Mj0iMTE5MS41IiB5MT0iMjE1OS4xOTE0IiB5Mj0iMjE1OS4xOTE0Ii8+PGxpbmUgc3R5bGU9InN0cm9rZTojMDAwMDAwO3N0cm9rZS13aWR0aDoxLjA7IiB4MT0iMCIgeDI9IjExOTEuNSIgeTE9IjIxNjIuMTkxNCIgeTI9IjIxNjIuMTkxNCIvPjxyZWN0IGZpbGw9IiNFRUVFRUUiIGhlaWdodD0iMjEuOTE0MSIgc3R5bGU9InN0cm9rZTojMDAwMDAwO3N0cm9rZS13aWR0aDoyLjA7IiB3aWR0aD0iMjcyIiB4PSI0NTkuNzUiIHk9IjIxNDkuMjM0NCIvPjx0ZXh0IGZpbGw9IiMwMDAwMDAiIGZvbnQtZmFtaWx5PSJzYW5zLXNlcmlmIiBmb250LXNpemU9IjEzIiBmb250LXdlaWdodD0iYm9sZCIgbGVuZ3RoQWRqdXN0PSJzcGFjaW5nIiB0ZXh0TGVuZ3RoPSIyNTEiIHg9IjQ2NS43NSIgeT0iMjE2NS41MjM0Ij4iQWNjZXNzIExlYXJuaW5nIFJlc291cmNlcyIgVXNlIENhc2U8L3RleHQ+PHBvbHlnb24gZmlsbD0iIzE4MTgxOCIgcG9pbnRzPSI0NDMuNSwyMTk3LjA2MjUsNDUzLjUsMjIwMS4wNjI1LDQ0My41LDIyMDUuMDYyNSw0NDcuNSwyMjAxLjA2MjUiIHN0eWxlPSJzdHJva2U6IzE4MTgxODtzdHJva2Utd2lkdGg6MS4wOyIvPjxsaW5lIHN0eWxlPSJzdHJva2U6IzE4MTgxODtzdHJva2Utd2lkdGg6MS4wOyIgeDE9IjQ3LjUiIHgyPSI0NDkuNSIgeTE9IjIyMDEuMDYyNSIgeTI9IjIyMDEuMDYyNSIvPjx0ZXh0IGZpbGw9IiMwMDAwMDAiIGZvbnQtZmFtaWx5PSJzYW5zLXNlcmlmIiBmb250LXNpemU9IjEzIiBsZW5ndGhBZGp1c3Q9InNwYWNpbmciIHRleHRMZW5ndGg9IjIwNCIgeD0iNTQuNSIgeT0iMjE5Ny40Mzc1Ij5Ccm93c2UgbGVhcm5pbmcgcmVzb3VyY2VzIFtJTl08L3RleHQ+PHBvbHlnb24gZmlsbD0iIzE4MTgxOCIgcG9pbnRzPSI3ODcuNSwyMjI0Ljk3NjYsNzk3LjUsMjIyOC45NzY2LDc4Ny41LDIyMzIuOTc2Niw3OTEuNSwyMjI4Ljk3NjYiIHN0eWxlPSJzdHJva2U6IzE4MTgxODtzdHJva2Utd2lkdGg6MS4wOyIvPjxsaW5lIHN0eWxlPSJzdHJva2U6IzE4MTgxODtzdHJva2Utd2lkdGg6MS4wOyIgeDE9IjQ1NS41IiB4Mj0iNzkzLjUiIHkxPSIyMjI4Ljk3NjYiIHkyPSIyMjI4Ljk3NjYiLz48dGV4dCBmaWxsPSIjMDAwMDAwIiBmb250LWZhbWlseT0ic2Fucy1zZXJpZiIgZm9udC1zaXplPSIxMyIgbGVuZ3RoQWRqdXN0PSJzcGFjaW5nIiB0ZXh0TGVuZ3RoPSIxNjMiIHg9IjQ2Mi41IiB5PSIyMjI1LjM1MTYiPmZldGNoTGVhcm5pbmdSZXNvdXJjZXMoKTwvdGV4dD48cG9seWdvbiBmaWxsPSIjMTgxODE4IiBwb2ludHM9IjExMTcuNSwyMjUyLjg5MDYsMTEyNy41LDIyNTYuODkwNiwxMTE3LjUsMjI2MC44OTA2LDExMjEuNSwyMjU2Ljg5MDYiIHN0eWxlPSJzdHJva2U6IzE4MTgxODtzdHJva2Utd2lkdGg6MS4wOyIvPjxsaW5lIHN0eWxlPSJzdHJva2U6IzE4MTgxODtzdHJva2Utd2lkdGg6MS4wOyIgeDE9Ijc5OS41IiB4Mj0iMTEyMy41IiB5MT0iMjI1Ni44OTA2IiB5Mj0iMjI1Ni44OTA2Ii8+PHRleHQgZmlsbD0iIzAwMDAwMCIgZm9udC1mYW1pbHk9InNhbnMtc2VyaWYiIGZvbnQtc2l6ZT0iMTMiIGxlbmd0aEFkanVzdD0ic3BhY2luZyIgdGV4dExlbmd0aD0iMTg0IiB4PSI4MDYuNSIgeT0iMjI1My4yNjU2Ij5yZXRyaWV2ZUxlYXJuaW5nUmVzb3VyY2VzKCk8L3RleHQ+PHBhdGggZD0iTTEwLDIyNzEuODkwNiBMNzQsMjI3MS44OTA2IEw3NCwyMjc3LjgwNDcgTDY0LDIyODcuODA0NyBMMTAsMjI4Ny44MDQ3IEwxMCwyMjcxLjg5MDYgIiBmaWxsPSIjRUVFRUVFIiBzdHlsZT0ic3Ryb2tlOiMwMDAwMDA7c3Ryb2tlLXdpZHRoOjEuNTsiLz48cmVjdCBmaWxsPSJub25lIiBoZWlnaHQ9IjE5Ny4xNzE5IiBzdHlsZT0ic3Ryb2tlOiMwMDAwMDA7c3Ryb2tlLXdpZHRoOjEuNTsiIHdpZHRoPSIxMTcxLjUiIHg9IjEwIiB5PSIyMjcxLjg5MDYiLz48dGV4dCBmaWxsPSIjMDAwMDAwIiBmb250LWZhbWlseT0ic2Fucy1zZXJpZiIgZm9udC1zaXplPSIxMyIgZm9udC13ZWlnaHQ9ImJvbGQiIGxlbmd0aEFkanVzdD0ic3BhY2luZyIgdGV4dExlbmd0aD0iMTkiIHg9IjI1IiB5PSIyMjg1LjE3OTciPmFsdDwvdGV4dD48dGV4dCBmaWxsPSIjMDAwMDAwIiBmb250LWZhbWlseT0ic2Fucy1zZXJpZiIgZm9udC1zaXplPSIxMSIgZm9udC13ZWlnaHQ9ImJvbGQiIGxlbmd0aEFkanVzdD0ic3BhY2luZyIgdGV4dExlbmd0aD0iMTQ0IiB4PSI4OSIgeT0iMjI4NC4yODkxIj5bTm8gUmVzb3VyY2VzIEF2YWlsYWJsZV08L3RleHQ+PHBvbHlnb24gZmlsbD0iIzE4MTgxOCIgcG9pbnRzPSI4MTAuNSwyMzAzLjcxODgsODAwLjUsMjMwNy43MTg4LDgxMC41LDIzMTEuNzE4OCw4MDYuNSwyMzA3LjcxODgiIHN0eWxlPSJzdHJva2U6IzE4MTgxODtzdHJva2Utd2lkdGg6MS4wOyIvPjxsaW5lIHN0eWxlPSJzdHJva2U6IzE4MTgxODtzdHJva2Utd2lkdGg6MS4wO3N0cm9rZS1kYXNoYXJyYXk6Mi4wLDIuMDsiIHgxPSI4MDQuNSIgeDI9IjExMjguNSIgeTE9IjIzMDcuNzE4OCIgeTI9IjIzMDcuNzE4OCIvPjx0ZXh0IGZpbGw9IiMwMDAwMDAiIGZvbnQtZmFtaWx5PSJzYW5zLXNlcmlmIiBmb250LXNpemU9IjEzIiBsZW5ndGhBZGp1c3Q9InNwYWNpbmciIHRleHRMZW5ndGg9IjEyOCIgeD0iODE2LjUiIHk9IjIzMDQuMDkzOCI+RW1wdHkgcmVzb3VyY2UgbGlzdDwvdGV4dD48cG9seWdvbiBmaWxsPSIjMTgxODE4IiBwb2ludHM9IjQ2Ni41LDIzMzEuNjMyOCw0NTYuNSwyMzM1LjYzMjgsNDY2LjUsMjMzOS42MzI4LDQ2Mi41LDIzMzUuNjMyOCIgc3R5bGU9InN0cm9rZTojMTgxODE4O3N0cm9rZS13aWR0aDoxLjA7Ii8+PGxpbmUgc3R5bGU9InN0cm9rZTojMTgxODE4O3N0cm9rZS13aWR0aDoxLjA7c3Ryb2tlLWRhc2hhcnJheToyLjAsMi4wOyIgeDE9IjQ2MC41IiB4Mj0iNzk4LjUiIHkxPSIyMzM1LjYzMjgiIHkyPSIyMzM1LjYzMjgiLz48dGV4dCBmaWxsPSIjMDAwMDAwIiBmb250LWZhbWlseT0ic2Fucy1zZXJpZiIgZm9udC1zaXplPSIxMyIgbGVuZ3RoQWRqdXN0PSJzcGFjaW5nIiB0ZXh0TGVuZ3RoPSIyNDQiIHg9IjQ3Mi41IiB5PSIyMzMyLjAwNzgiPkRpc3BsYXkgbm8gcmVzb3VyY2VzIGF2YWlsYWJsZSBbT1VUXTwvdGV4dD48cG9seWdvbiBmaWxsPSIjMTgxODE4IiBwb2ludHM9IjU4LjUsMjM1OS41NDY5LDQ4LjUsMjM2My41NDY5LDU4LjUsMjM2Ny41NDY5LDU0LjUsMjM2My41NDY5IiBzdHlsZT0ic3Ryb2tlOiMxODE4MTg7c3Ryb2tlLXdpZHRoOjEuMDsiLz48bGluZSBzdHlsZT0ic3Ryb2tlOiMxODE4MTg7c3Ryb2tlLXdpZHRoOjEuMDtzdHJva2UtZGFzaGFycmF5OjIuMCwyLjA7IiB4MT0iNTIuNSIgeDI9IjQ1NC41IiB5MT0iMjM2My41NDY5IiB5Mj0iMjM2My41NDY5Ii8+PHRleHQgZmlsbD0iIzAwMDAwMCIgZm9udC1mYW1pbHk9InNhbnMtc2VyaWYiIGZvbnQtc2l6ZT0iMTMiIGxlbmd0aEFkanVzdD0ic3BhY2luZyIgdGV4dExlbmd0aD0iMjI1IiB4PSI2NC41IiB5PSIyMzU5LjkyMTkiPk5vIGxlYXJuaW5nIHJlc291cmNlcyBmb3VuZCBbT1VUXTwvdGV4dD48bGluZSBzdHlsZT0ic3Ryb2tlOiMwMDAwMDA7c3Ryb2tlLXdpZHRoOjEuMDtzdHJva2UtZGFzaGFycmF5OjIuMCwyLjA7IiB4MT0iMTAiIHgyPSIxMTgxLjUiIHkxPSIyMzcyLjU0NjkiIHkyPSIyMzcyLjU0NjkiLz48dGV4dCBmaWxsPSIjMDAwMDAwIiBmb250LWZhbWlseT0ic2Fucy1zZXJpZiIgZm9udC1zaXplPSIxMSIgZm9udC13ZWlnaHQ9ImJvbGQiIGxlbmd0aEFkanVzdD0ic3BhY2luZyIgdGV4dExlbmd0aD0iMTI2IiB4PSIxNSIgeT0iMjM4Mi45NDUzIj5bUmVzb3VyY2VzIEF2YWlsYWJsZV08L3RleHQ+PHBvbHlnb24gZmlsbD0iIzE4MTgxOCIgcG9pbnRzPSI4MTAuNSwyNDAxLjIzNDQsODAwLjUsMjQwNS4yMzQ0LDgxMC41LDI0MDkuMjM0NCw4MDYuNSwyNDA1LjIzNDQiIHN0eWxlPSJzdHJva2U6IzE4MTgxODtzdHJva2Utd2lkdGg6MS4wOyIvPjxsaW5lIHN0eWxlPSJzdHJva2U6IzE4MTgxODtzdHJva2Utd2lkdGg6MS4wO3N0cm9rZS1kYXNoYXJyYXk6Mi4wLDIuMDsiIHgxPSI4MDQuNSIgeDI9IjExMjguNSIgeTE9IjI0MDUuMjM0NCIgeTI9IjI0MDUuMjM0NCIvPjx0ZXh0IGZpbGw9IiMwMDAwMDAiIGZvbnQtZmFtaWx5PSJzYW5zLXNlcmlmIiBmb250LXNpemU9IjEzIiBsZW5ndGhBZGp1c3Q9InNwYWNpbmciIHRleHRMZW5ndGg9IjE1NyIgeD0iODE2LjUiIHk9IjI0MDEuNjA5NCI+TGVhcm5pbmcgcmVzb3VyY2VzIGxpc3Q8L3RleHQ+PHBvbHlnb24gZmlsbD0iIzE4MTgxOCIgcG9pbnRzPSI0NjYuNSwyNDI5LjE0ODQsNDU2LjUsMjQzMy4xNDg0LDQ2Ni41LDI0MzcuMTQ4NCw0NjIuNSwyNDMzLjE0ODQiIHN0eWxlPSJzdHJva2U6IzE4MTgxODtzdHJva2Utd2lkdGg6MS4wOyIvPjxsaW5lIHN0eWxlPSJzdHJva2U6IzE4MTgxODtzdHJva2Utd2lkdGg6MS4wO3N0cm9rZS1kYXNoYXJyYXk6Mi4wLDIuMDsiIHgxPSI0NjAuNSIgeDI9Ijc5OC41IiB5MT0iMjQzMy4xNDg0IiB5Mj0iMjQzMy4xNDg0Ii8+PHRleHQgZmlsbD0iIzAwMDAwMCIgZm9udC1mYW1pbHk9InNhbnMtc2VyaWYiIGZvbnQtc2l6ZT0iMTMiIGxlbmd0aEFkanVzdD0ic3BhY2luZyIgdGV4dExlbmd0aD0iMjE3IiB4PSI0NzIuNSIgeT0iMjQyOS41MjM0Ij5EaXNwbGF5IGxlYXJuaW5nIHJlc291cmNlcyBbT1VUXTwvdGV4dD48cG9seWdvbiBmaWxsPSIjMTgxODE4IiBwb2ludHM9IjU4LjUsMjQ1Ny4wNjI1LDQ4LjUsMjQ2MS4wNjI1LDU4LjUsMjQ2NS4wNjI1LDU0LjUsMjQ2MS4wNjI1IiBzdHlsZT0ic3Ryb2tlOiMxODE4MTg7c3Ryb2tlLXdpZHRoOjEuMDsiLz48bGluZSBzdHlsZT0ic3Ryb2tlOiMxODE4MTg7c3Ryb2tlLXdpZHRoOjEuMDtzdHJva2UtZGFzaGFycmF5OjIuMCwyLjA7IiB4MT0iNTIuNSIgeDI9IjQ1NC41IiB5MT0iMjQ2MS4wNjI1IiB5Mj0iMjQ2MS4wNjI1Ii8+PHRleHQgZmlsbD0iIzAwMDAwMCIgZm9udC1mYW1pbHk9InNhbnMtc2VyaWYiIGZvbnQtc2l6ZT0iMTMiIGxlbmd0aEFkanVzdD0ic3BhY2luZyIgdGV4dExlbmd0aD0iMjMyIiB4PSI2NC41IiB5PSIyNDU3LjQzNzUiPkxlYXJuaW5nIHJlc291cmNlcyBkaXNwbGF5ZWQgW09VVF08L3RleHQ+PHJlY3QgZmlsbD0iI0VFRUVFRSIgaGVpZ2h0PSIzIiBzdHlsZT0ic3Ryb2tlOiNFRUVFRUU7c3Ryb2tlLXdpZHRoOjEuMDsiIHdpZHRoPSIxMTkxLjUiIHg9IjAiIHk9IjI0OTYuMDE5NSIvPjxsaW5lIHN0eWxlPSJzdHJva2U6IzAwMDAwMDtzdHJva2Utd2lkdGg6MS4wOyIgeDE9IjAiIHgyPSIxMTkxLjUiIHkxPSIyNDk2LjAxOTUiIHkyPSIyNDk2LjAxOTUiLz48bGluZSBzdHlsZT0ic3Ryb2tlOiMwMDAwMDA7c3Ryb2tlLXdpZHRoOjEuMDsiIHgxPSIwIiB4Mj0iMTE5MS41IiB5MT0iMjQ5OS4wMTk1IiB5Mj0iMjQ5OS4wMTk1Ii8+PHJlY3QgZmlsbD0iI0VFRUVFRSIgaGVpZ2h0PSIyMS45MTQxIiBzdHlsZT0ic3Ryb2tlOiMwMDAwMDA7c3Ryb2tlLXdpZHRoOjIuMDsiIHdpZHRoPSIyMjEiIHg9IjQ4NS4yNSIgeT0iMjQ4Ni4wNjI1Ii8+PHRleHQgZmlsbD0iIzAwMDAwMCIgZm9udC1mYW1pbHk9InNhbnMtc2VyaWYiIGZvbnQtc2l6ZT0iMTMiIGZvbnQtd2VpZ2h0PSJib2xkIiBsZW5ndGhBZGp1c3Q9InNwYWNpbmciIHRleHRMZW5ndGg9IjIwMCIgeD0iNDkxLjI1IiB5PSIyNTAyLjM1MTYiPiJSZXF1ZXN0IE1lbnRvcnNoaXAiIFVzZSBDYXNlPC90ZXh0Pjxwb2x5Z29uIGZpbGw9IiMxODE4MTgiIHBvaW50cz0iNDQzLjUsMjUzMy44OTA2LDQ1My41LDI1MzcuODkwNiw0NDMuNSwyNTQxLjg5MDYsNDQ3LjUsMjUzNy44OTA2IiBzdHlsZT0ic3Ryb2tlOiMxODE4MTg7c3Ryb2tlLXdpZHRoOjEuMDsiLz48bGluZSBzdHlsZT0ic3Ryb2tlOiMxODE4MTg7c3Ryb2tlLXdpZHRoOjEuMDsiIHgxPSI0Ny41IiB4Mj0iNDQ5LjUiIHkxPSIyNTM3Ljg5MDYiIHkyPSIyNTM3Ljg5MDYiLz48dGV4dCBmaWxsPSIjMDAwMDAwIiBmb250LWZhbWlseT0ic2Fucy1zZXJpZiIgZm9udC1zaXplPSIxMyIgbGVuZ3RoQWRqdXN0PSJzcGFjaW5nIiB0ZXh0TGVuZ3RoPSIxNTQiIHg9IjU0LjUiIHk9IjI1MzQuMjY1NiI+UmVxdWVzdCBtZW50b3JzaGlwIFtJTl08L3RleHQ+PHBvbHlnb24gZmlsbD0iIzE4MTgxOCIgcG9pbnRzPSI3ODcuNSwyNTYxLjgwNDcsNzk3LjUsMjU2NS44MDQ3LDc4Ny41LDI1NjkuODA0Nyw3OTEuNSwyNTY1LjgwNDciIHN0eWxlPSJzdHJva2U6IzE4MTgxODtzdHJva2Utd2lkdGg6MS4wOyIvPjxsaW5lIHN0eWxlPSJzdHJva2U6IzE4MTgxODtzdHJva2Utd2lkdGg6MS4wOyIgeDE9IjQ1NS41IiB4Mj0iNzkzLjUiIHkxPSIyNTY1LjgwNDciIHkyPSIyNTY1LjgwNDciLz48dGV4dCBmaWxsPSIjMDAwMDAwIiBmb250LWZhbWlseT0ic2Fucy1zZXJpZiIgZm9udC1zaXplPSIxMyIgbGVuZ3RoQWRqdXN0PSJzcGFjaW5nIiB0ZXh0TGVuZ3RoPSIyNjMiIHg9IjQ2Mi41IiB5PSIyNTYyLjE3OTciPnNlbmRNZW50b3JzaGlwUmVxdWVzdCh1c2VySUQsIG1lbnRvcklEKTwvdGV4dD48cG9seWdvbiBmaWxsPSIjMTgxODE4IiBwb2ludHM9IjExMTcuNSwyNTg5LjcxODgsMTEyNy41LDI1OTMuNzE4OCwxMTE3LjUsMjU5Ny43MTg4LDExMjEuNSwyNTkzLjcxODgiIHN0eWxlPSJzdHJva2U6IzE4MTgxODtzdHJva2Utd2lkdGg6MS4wOyIvPjxsaW5lIHN0eWxlPSJzdHJva2U6IzE4MTgxODtzdHJva2Utd2lkdGg6MS4wOyIgeDE9Ijc5OS41IiB4Mj0iMTEyMy41IiB5MT0iMjU5My43MTg4IiB5Mj0iMjU5My43MTg4Ii8+PHRleHQgZmlsbD0iIzAwMDAwMCIgZm9udC1mYW1pbHk9InNhbnMtc2VyaWYiIGZvbnQtc2l6ZT0iMTMiIGxlbmd0aEFkanVzdD0ic3BhY2luZyIgdGV4dExlbmd0aD0iMjY5IiB4PSI4MDYuNSIgeT0iMjU5MC4wOTM4Ij5zdG9yZU1lbnRvcnNoaXBSZXF1ZXN0KHVzZXJJRCwgbWVudG9ySUQpPC90ZXh0Pjxwb2x5Z29uIGZpbGw9IiMxODE4MTgiIHBvaW50cz0iODEwLjUsMjYxNy42MzI4LDgwMC41LDI2MjEuNjMyOCw4MTAuNSwyNjI1LjYzMjgsODA2LjUsMjYyMS42MzI4IiBzdHlsZT0ic3Ryb2tlOiMxODE4MTg7c3Ryb2tlLXdpZHRoOjEuMDsiLz48bGluZSBzdHlsZT0ic3Ryb2tlOiMxODE4MTg7c3Ryb2tlLXdpZHRoOjEuMDtzdHJva2UtZGFzaGFycmF5OjIuMCwyLjA7IiB4MT0iODA0LjUiIHgyPSIxMTI4LjUiIHkxPSIyNjIxLjYzMjgiIHkyPSIyNjIxLjYzMjgiLz48dGV4dCBmaWxsPSIjMDAwMDAwIiBmb250LWZhbWlseT0ic2Fucy1zZXJpZiIgZm9udC1zaXplPSIxMyIgbGVuZ3RoQWRqdXN0PSJzcGFjaW5nIiB0ZXh0TGVuZ3RoPSIxNzEiIHg9IjgxNi41IiB5PSIyNjE4LjAwNzgiPk1lbnRvcnNoaXAgcmVxdWVzdCBzdG9yZWQ8L3RleHQ+PHBvbHlnb24gZmlsbD0iIzE4MTgxOCIgcG9pbnRzPSI0NjYuNSwyNjQ1LjU0NjksNDU2LjUsMjY0OS41NDY5LDQ2Ni41LDI2NTMuNTQ2OSw0NjIuNSwyNjQ5LjU0NjkiIHN0eWxlPSJzdHJva2U6IzE4MTgxODtzdHJva2Utd2lkdGg6MS4wOyIvPjxsaW5lIHN0eWxlPSJzdHJva2U6IzE4MTgxODtzdHJva2Utd2lkdGg6MS4wO3N0cm9rZS1kYXNoYXJyYXk6Mi4wLDIuMDsiIHgxPSI0NjAuNSIgeDI9Ijc5OC41IiB5MT0iMjY0OS41NDY5IiB5Mj0iMjY0OS41NDY5Ii8+PHRleHQgZmlsbD0iIzAwMDAwMCIgZm9udC1mYW1pbHk9InNhbnMtc2VyaWYiIGZvbnQtc2l6ZT0iMTMiIGxlbmd0aEFkanVzdD0ic3BhY2luZyIgdGV4dExlbmd0aD0iMjE4IiB4PSI0NzIuNSIgeT0iMjY0NS45MjE5Ij5NZW50b3JzaGlwIHJlcXVlc3Qgc3VjY2VzcyBbT1VUXTwvdGV4dD48cG9seWdvbiBmaWxsPSIjMTgxODE4IiBwb2ludHM9IjU4LjUsMjY3My40NjA5LDQ4LjUsMjY3Ny40NjA5LDU4LjUsMjY4MS40NjA5LDU0LjUsMjY3Ny40NjA5IiBzdHlsZT0ic3Ryb2tlOiMxODE4MTg7c3Ryb2tlLXdpZHRoOjEuMDsiLz48bGluZSBzdHlsZT0ic3Ryb2tlOiMxODE4MTg7c3Ryb2tlLXdpZHRoOjEuMDtzdHJva2UtZGFzaGFycmF5OjIuMCwyLjA7IiB4MT0iNTIuNSIgeDI9IjQ1NC41IiB5MT0iMjY3Ny40NjA5IiB5Mj0iMjY3Ny40NjA5Ii8+PHRleHQgZmlsbD0iIzAwMDAwMCIgZm9udC1mYW1pbHk9InNhbnMtc2VyaWYiIGZvbnQtc2l6ZT0iMTMiIGxlbmd0aEFkanVzdD0ic3BhY2luZyIgdGV4dExlbmd0aD0iMjI5IiB4PSI2NC41IiB5PSIyNjczLjgzNTkiPk1lbnRvcnNoaXAgcmVxdWVzdCBjb25maXJtZWQgW09VVF08L3RleHQ+PHJlY3QgZmlsbD0iI0VFRUVFRSIgaGVpZ2h0PSIzIiBzdHlsZT0ic3Ryb2tlOiNFRUVFRUU7c3Ryb2tlLXdpZHRoOjEuMDsiIHdpZHRoPSIxMTkxLjUiIHg9IjAiIHk9IjI3MDUuNDE4Ii8+PGxpbmUgc3R5bGU9InN0cm9rZTojMDAwMDAwO3N0cm9rZS13aWR0aDoxLjA7IiB4MT0iMCIgeDI9IjExOTEuNSIgeTE9IjI3MDUuNDE4IiB5Mj0iMjcwNS40MTgiLz48bGluZSBzdHlsZT0ic3Ryb2tlOiMwMDAwMDA7c3Ryb2tlLXdpZHRoOjEuMDsiIHgxPSIwIiB4Mj0iMTE5MS41IiB5MT0iMjcwOC40MTgiIHkyPSIyNzA4LjQxOCIvPjxyZWN0IGZpbGw9IiNFRUVFRUUiIGhlaWdodD0iMjEuOTE0MSIgc3R5bGU9InN0cm9rZTojMDAwMDAwO3N0cm9rZS13aWR0aDoyLjA7IiB3aWR0aD0iMjA2IiB4PSI0OTIuNzUiIHk9IjI2OTUuNDYwOSIvPjx0ZXh0IGZpbGw9IiMwMDAwMDAiIGZvbnQtZmFtaWx5PSJzYW5zLXNlcmlmIiBmb250LXNpemU9IjEzIiBmb250LXdlaWdodD0iYm9sZCIgbGVuZ3RoQWRqdXN0PSJzcGFjaW5nIiB0ZXh0TGVuZ3RoPSIxODUiIHg9IjQ5OC43NSIgeT0iMjcxMS43NSI+Ik9mZmVyIE1lbnRvcnNoaXAiIFVzZSBDYXNlPC90ZXh0Pjxwb2x5Z29uIGZpbGw9IiMxODE4MTgiIHBvaW50cz0iNDQzLjUsMjc0My4yODkxLDQ1My41LDI3NDcuMjg5MSw0NDMuNSwyNzUxLjI4OTEsNDQ3LjUsMjc0Ny4yODkxIiBzdHlsZT0ic3Ryb2tlOiMxODE4MTg7c3Ryb2tlLXdpZHRoOjEuMDsiLz48bGluZSBzdHlsZT0ic3Ryb2tlOiMxODE4MTg7c3Ryb2tlLXdpZHRoOjEuMDsiIHgxPSIxMDkiIHgyPSI0NDkuNSIgeTE9IjI3NDcuMjg5MSIgeTI9IjI3NDcuMjg5MSIvPjx0ZXh0IGZpbGw9IiMwMDAwMDAiIGZvbnQtZmFtaWx5PSJzYW5zLXNlcmlmIiBmb250LXNpemU9IjEzIiBsZW5ndGhBZGp1c3Q9InNwYWNpbmciIHRleHRMZW5ndGg9IjIyNCIgeD0iMTE2IiB5PSIyNzQzLjY2NDEiPk9mZmVyIG1lbnRvcnNoaXAgYXZhaWxhYmlsaXR5IFtJTl08L3RleHQ+PHBvbHlnb24gZmlsbD0iIzE4MTgxOCIgcG9pbnRzPSI3ODcuNSwyNzcxLjIwMzEsNzk3LjUsMjc3NS4yMDMxLDc4Ny41LDI3NzkuMjAzMSw3OTEuNSwyNzc1LjIwMzEiIHN0eWxlPSJzdHJva2U6IzE4MTgxODtzdHJva2Utd2lkdGg6MS4wOyIvPjxsaW5lIHN0eWxlPSJzdHJva2U6IzE4MTgxODtzdHJva2Utd2lkdGg6MS4wOyIgeDE9IjQ1NS41IiB4Mj0iNzkzLjUiIHkxPSIyNzc1LjIwMzEiIHkyPSIyNzc1LjIwMzEiLz48dGV4dCBmaWxsPSIjMDAwMDAwIiBmb250LWZhbWlseT0ic2Fucy1zZXJpZiIgZm9udC1zaXplPSIxMyIgbGVuZ3RoQWRqdXN0PSJzcGFjaW5nIiB0ZXh0TGVuZ3RoPSIzMjAiIHg9IjQ2Mi41IiB5PSIyNzcxLjU3ODEiPnVwZGF0ZU1lbnRvcnNoaXBBdmFpbGFiaWxpdHkobWVudG9ySUQsIHNjaGVkdWxlKTwvdGV4dD48cG9seWdvbiBmaWxsPSIjMTgxODE4IiBwb2ludHM9IjExMTcuNSwyNzk5LjExNzIsMTEyNy41LDI4MDMuMTE3MiwxMTE3LjUsMjgwNy4xMTcyLDExMjEuNSwyODAzLjExNzIiIHN0eWxlPSJzdHJva2U6IzE4MTgxODtzdHJva2Utd2lkdGg6MS4wOyIvPjxsaW5lIHN0eWxlPSJzdHJva2U6IzE4MTgxODtzdHJva2Utd2lkdGg6MS4wOyIgeDE9Ijc5OS41IiB4Mj0iMTEyMy41IiB5MT0iMjgwMy4xMTcyIiB5Mj0iMjgwMy4xMTcyIi8+PHRleHQgZmlsbD0iIzAwMDAwMCIgZm9udC1mYW1pbHk9InNhbnMtc2VyaWYiIGZvbnQtc2l6ZT0iMTMiIGxlbmd0aEFkanVzdD0ic3BhY2luZyIgdGV4dExlbmd0aD0iMjg0IiB4PSI4MDYuNSIgeT0iMjc5OS40OTIyIj5zYXZlTWVudG9yc2hpcFNjaGVkdWxlKG1lbnRvcklELCBzY2hlZHVsZSk8L3RleHQ+PHBvbHlnb24gZmlsbD0iIzE4MTgxOCIgcG9pbnRzPSI4MTAuNSwyODI3LjAzMTMsODAwLjUsMjgzMS4wMzEzLDgxMC41LDI4MzUuMDMxMyw4MDYuNSwyODMxLjAzMTMiIHN0eWxlPSJzdHJva2U6IzE4MTgxODtzdHJva2Utd2lkdGg6MS4wOyIvPjxsaW5lIHN0eWxlPSJzdHJva2U6IzE4MTgxODtzdHJva2Utd2lkdGg6MS4wO3N0cm9rZS1kYXNoYXJyYXk6Mi4wLDIuMDsiIHgxPSI4MDQuNSIgeDI9IjExMjguNSIgeTE9IjI4MzEuMDMxMyIgeTI9IjI4MzEuMDMxMyIvPjx0ZXh0IGZpbGw9IiMwMDAwMDAiIGZvbnQtZmFtaWx5PSJzYW5zLXNlcmlmIiBmb250LXNpemU9IjEzIiBsZW5ndGhBZGp1c3Q9InNwYWNpbmciIHRleHRMZW5ndGg9Ijk3IiB4PSI4MTYuNSIgeT0iMjgyNy40MDYzIj5TY2hlZHVsZSBzYXZlZDwvdGV4dD48cG9seWdvbiBmaWxsPSIjMTgxODE4IiBwb2ludHM9IjQ2Ni41LDI4NTQuOTQ1Myw0NTYuNSwyODU4Ljk0NTMsNDY2LjUsMjg2Mi45NDUzLDQ2Mi41LDI4NTguOTQ1MyIgc3R5bGU9InN0cm9rZTojMTgxODE4O3N0cm9rZS13aWR0aDoxLjA7Ii8+PGxpbmUgc3R5bGU9InN0cm9rZTojMTgxODE4O3N0cm9rZS13aWR0aDoxLjA7c3Ryb2tlLWRhc2hhcnJheToyLjAsMi4wOyIgeDE9IjQ2MC41IiB4Mj0iNzk4LjUiIHkxPSIyODU4Ljk0NTMiIHkyPSIyODU4Ljk0NTMiLz48dGV4dCBmaWxsPSIjMDAwMDAwIiBmb250LWZhbWlseT0ic2Fucy1zZXJpZiIgZm9udC1zaXplPSIxMyIgbGVuZ3RoQWRqdXN0PSJzcGFjaW5nIiB0ZXh0TGVuZ3RoPSIyNDciIHg9IjQ3Mi41IiB5PSIyODU1LjMyMDMiPk1lbnRvcnNoaXAgYXZhaWxhYmlsaXR5IHVwZGF0ZWQgW09VVF08L3RleHQ+PHBvbHlnb24gZmlsbD0iIzE4MTgxOCIgcG9pbnRzPSIxMjAsMjg4Mi44NTk0LDExMCwyODg2Ljg1OTQsMTIwLDI4OTAuODU5NCwxMTYsMjg4Ni44NTk0IiBzdHlsZT0ic3Ryb2tlOiMxODE4MTg7c3Ryb2tlLXdpZHRoOjEuMDsiLz48bGluZSBzdHlsZT0ic3Ryb2tlOiMxODE4MTg7c3Ryb2tlLXdpZHRoOjEuMDtzdHJva2UtZGFzaGFycmF5OjIuMCwyLjA7IiB4MT0iMTE0IiB4Mj0iNDU0LjUiIHkxPSIyODg2Ljg1OTQiIHkyPSIyODg2Ljg1OTQiLz48dGV4dCBmaWxsPSIjMDAwMDAwIiBmb250LWZhbWlseT0ic2Fucy1zZXJpZiIgZm9udC1zaXplPSIxMyIgbGVuZ3RoQWRqdXN0PSJzcGFjaW5nIiB0ZXh0TGVuZ3RoPSIyMzYiIHg9IjEyNiIgeT0iMjg4My4yMzQ0Ij5NZW50b3JzaGlwIHNjaGVkdWxlIGNvbmZpcm1lZCBbT1VUXTwvdGV4dD48cmVjdCBmaWxsPSIjRUVFRUVFIiBoZWlnaHQ9IjMiIHN0eWxlPSJzdHJva2U6I0VFRUVFRTtzdHJva2Utd2lkdGg6MS4wOyIgd2lkdGg9IjExOTEuNSIgeD0iMCIgeT0iMjkxNC44MTY0Ii8+PGxpbmUgc3R5bGU9InN0cm9rZTojMDAwMDAwO3N0cm9rZS13aWR0aDoxLjA7IiB4MT0iMCIgeDI9IjExOTEuNSIgeTE9IjI5MTQuODE2NCIgeTI9IjI5MTQuODE2NCIvPjxsaW5lIHN0eWxlPSJzdHJva2U6IzAwMDAwMDtzdHJva2Utd2lkdGg6MS4wOyIgeDE9IjAiIHgyPSIxMTkxLjUiIHkxPSIyOTE3LjgxNjQiIHkyPSIyOTE3LjgxNjQiLz48cmVjdCBmaWxsPSIjRUVFRUVFIiBoZWlnaHQ9IjIxLjkxNDEiIHN0eWxlPSJzdHJva2U6IzAwMDAwMDtzdHJva2Utd2lkdGg6Mi4wOyIgd2lkdGg9IjMwMSIgeD0iNDQ1LjI1IiB5PSIyOTA0Ljg1OTQiLz48dGV4dCBmaWxsPSIjMDAwMDAwIiBmb250LWZhbWlseT0ic2Fucy1zZXJpZiIgZm9udC1zaXplPSIxMyIgZm9udC13ZWlnaHQ9ImJvbGQiIGxlbmd0aEFkanVzdD0ic3BhY2luZyIgdGV4dExlbmd0aD0iMjgwIiB4PSI0NTEuMjUiIHk9IjI5MjEuMTQ4NCI+Ik1vZGVyYXRlIENvbW11bml0eSBEaXNjdXNzaW9ucyIgVXNlIENhc2U8L3RleHQ+PHBvbHlnb24gZmlsbD0iIzE4MTgxOCIgcG9pbnRzPSI0NDMuNSwyOTUyLjY4NzUsNDUzLjUsMjk1Ni42ODc1LDQ0My41LDI5NjAuNjg3NSw0NDcuNSwyOTU2LjY4NzUiIHN0eWxlPSJzdHJva2U6IzE4MTgxODtzdHJva2Utd2lkdGg6MS4wOyIvPjxsaW5lIHN0eWxlPSJzdHJva2U6IzE4MTgxODtzdHJva2Utd2lkdGg6MS4wOyIgeDE9IjE2NCIgeDI9IjQ0OS41IiB5MT0iMjk1Ni42ODc1IiB5Mj0iMjk1Ni42ODc1Ii8+PHRleHQgZmlsbD0iIzAwMDAwMCIgZm9udC1mYW1pbHk9InNhbnMtc2VyaWYiIGZvbnQtc2l6ZT0iMTMiIGxlbmd0aEFkanVzdD0ic3BhY2luZyIgdGV4dExlbmd0aD0iMTgwIiB4PSIxNzEiIHk9IjI5NTMuMDYyNSI+UmV2aWV3IGZsYWdnZWQgY29udGVudCBbSU5dPC90ZXh0Pjxwb2x5Z29uIGZpbGw9IiMxODE4MTgiIHBvaW50cz0iNzg3LjUsMjk4MC42MDE2LDc5Ny41LDI5ODQuNjAxNiw3ODcuNSwyOTg4LjYwMTYsNzkxLjUsMjk4NC42MDE2IiBzdHlsZT0ic3Ryb2tlOiMxODE4MTg7c3Ryb2tlLXdpZHRoOjEuMDsiLz48bGluZSBzdHlsZT0ic3Ryb2tlOiMxODE4MTg7c3Ryb2tlLXdpZHRoOjEuMDsiIHgxPSI0NTUuNSIgeDI9Ijc5My41IiB5MT0iMjk4NC42MDE2IiB5Mj0iMjk4NC42MDE2Ii8+PHRleHQgZmlsbD0iIzAwMDAwMCIgZm9udC1mYW1pbHk9InNhbnMtc2VyaWYiIGZvbnQtc2l6ZT0iMTMiIGxlbmd0aEFkanVzdD0ic3BhY2luZyIgdGV4dExlbmd0aD0iMjEyIiB4PSI0NjIuNSIgeT0iMjk4MC45NzY2Ij5mZXRjaEZsYWdnZWRDb250ZW50KGNvbW11bml0eUlEKTwvdGV4dD48cG9seWdvbiBmaWxsPSIjMTgxODE4IiBwb2ludHM9IjExMTcuNSwzMDA4LjUxNTYsMTEyNy41LDMwMTIuNTE1NiwxMTE3LjUsMzAxNi41MTU2LDExMjEuNSwzMDEyLjUxNTYiIHN0eWxlPSJzdHJva2U6IzE4MTgxODtzdHJva2Utd2lkdGg6MS4wOyIvPjxsaW5lIHN0eWxlPSJzdHJva2U6IzE4MTgxODtzdHJva2Utd2lkdGg6MS4wOyIgeDE9Ijc5OS41IiB4Mj0iMTEyMy41IiB5MT0iMzAxMi41MTU2IiB5Mj0iMzAxMi41MTU2Ii8+PHRleHQgZmlsbD0iIzAwMDAwMCIgZm9udC1mYW1pbHk9InNhbnMtc2VyaWYiIGZvbnQtc2l6ZT0iMTMiIGxlbmd0aEFkanVzdD0ic3BhY2luZyIgdGV4dExlbmd0aD0iMjIwIiB4PSI4MDYuNSIgeT0iMzAwOC44OTA2Ij5yZXRyaWV2ZUZsYWdnZWRQb3N0cyhjb21tdW5pdHlJRCk8L3RleHQ+PHBvbHlnb24gZmlsbD0iIzE4MTgxOCIgcG9pbnRzPSI4MTAuNSwzMDM2LjQyOTcsODAwLjUsMzA0MC40Mjk3LDgxMC41LDMwNDQuNDI5Nyw4MDYuNSwzMDQwLjQyOTciIHN0eWxlPSJzdHJva2U6IzE4MTgxODtzdHJva2Utd2lkdGg6MS4wOyIvPjxsaW5lIHN0eWxlPSJzdHJva2U6IzE4MTgxODtzdHJva2Utd2lkdGg6MS4wO3N0cm9rZS1kYXNoYXJyYXk6Mi4wLDIuMDsiIHgxPSI4MDQuNSIgeDI9IjExMjguNSIgeTE9IjMwNDAuNDI5NyIgeTI9IjMwNDAuNDI5NyIvPjx0ZXh0IGZpbGw9IiMwMDAwMDAiIGZvbnQtZmFtaWx5PSJzYW5zLXNlcmlmIiBmb250LXNpemU9IjEzIiBsZW5ndGhBZGp1c3Q9InNwYWNpbmciIHRleHRMZW5ndGg9Ijg5IiB4PSI4MTYuNSIgeT0iMzAzNi44MDQ3Ij5GbGFnZ2VkIHBvc3RzPC90ZXh0Pjxwb2x5Z29uIGZpbGw9IiMxODE4MTgiIHBvaW50cz0iNDY2LjUsMzA2NC4zNDM4LDQ1Ni41LDMwNjguMzQzOCw0NjYuNSwzMDcyLjM0MzgsNDYyLjUsMzA2OC4zNDM4IiBzdHlsZT0ic3Ryb2tlOiMxODE4MTg7c3Ryb2tlLXdpZHRoOjEuMDsiLz48bGluZSBzdHlsZT0ic3Ryb2tlOiMxODE4MTg7c3Ryb2tlLXdpZHRoOjEuMDtzdHJva2UtZGFzaGFycmF5OjIuMCwyLjA7IiB4MT0iNDYwLjUiIHgyPSI3OTguNSIgeTE9IjMwNjguMzQzOCIgeTI9IjMwNjguMzQzOCIvPjx0ZXh0IGZpbGw9IiMwMDAwMDAiIGZvbnQtZmFtaWx5PSJzYW5zLXNlcmlmIiBmb250LXNpemU9IjEzIiBsZW5ndGhBZGp1c3Q9InNwYWNpbmciIHRleHRMZW5ndGg9IjE4MSIgeD0iNDcyLjUiIHk9IjMwNjQuNzE4OCI+RGlzcGxheSBmbGFnZ2VkIHBvc3RzIFtPVVRdPC90ZXh0Pjxwb2x5Z29uIGZpbGw9IiMxODE4MTgiIHBvaW50cz0iNDQzLjUsMzA5Mi4yNTc4LDQ1My41LDMwOTYuMjU3OCw0NDMuNSwzMTAwLjI1NzgsNDQ3LjUsMzA5Ni4yNTc4IiBzdHlsZT0ic3Ryb2tlOiMxODE4MTg7c3Ryb2tlLXdpZHRoOjEuMDsiLz48bGluZSBzdHlsZT0ic3Ryb2tlOiMxODE4MTg7c3Ryb2tlLXdpZHRoOjEuMDsiIHgxPSIxNjQiIHgyPSI0NDkuNSIgeTE9IjMwOTYuMjU3OCIgeTI9IjMwOTYuMjU3OCIvPjx0ZXh0IGZpbGw9IiMwMDAwMDAiIGZvbnQtZmFtaWx5PSJzYW5zLXNlcmlmIiBmb250LXNpemU9IjEzIiBsZW5ndGhBZGp1c3Q9InNwYWNpbmciIHRleHRMZW5ndGg9IjE4MCIgeD0iMTcxIiB5PSIzMDkyLjYzMjgiPlRha2UgbW9kZXJhdGlvbiBhY3Rpb24gW0lOXTwvdGV4dD48cG9seWdvbiBmaWxsPSIjMTgxODE4IiBwb2ludHM9Ijc4Ny41LDMxMjAuMTcxOSw3OTcuNSwzMTI0LjE3MTksNzg3LjUsMzEyOC4xNzE5LDc5MS41LDMxMjQuMTcxOSIgc3R5bGU9InN0cm9rZTojMTgxODE4O3N0cm9rZS13aWR0aDoxLjA7Ii8+PGxpbmUgc3R5bGU9InN0cm9rZTojMTgxODE4O3N0cm9rZS13aWR0aDoxLjA7IiB4MT0iNDU1LjUiIHgyPSI3OTMuNSIgeTE9IjMxMjQuMTcxOSIgeTI9IjMxMjQuMTcxOSIvPjx0ZXh0IGZpbGw9IiMwMDAwMDAiIGZvbnQtZmFtaWx5PSJzYW5zLXNlcmlmIiBmb250LXNpemU9IjEzIiBsZW5ndGhBZGp1c3Q9InNwYWNpbmciIHRleHRMZW5ndGg9IjIyMiIgeD0iNDYyLjUiIHk9IjMxMjAuNTQ2OSI+cHJvY2Vzc01vZGVyYXRpb24oYWN0aW9uLCBwb3N0SUQpPC90ZXh0Pjxwb2x5Z29uIGZpbGw9IiMxODE4MTgiIHBvaW50cz0iMTExNy41LDMxNDguMDg1OSwxMTI3LjUsMzE1Mi4wODU5LDExMTcuNSwzMTU2LjA4NTksMTEyMS41LDMxNTIuMDg1OSIgc3R5bGU9InN0cm9rZTojMTgxODE4O3N0cm9rZS13aWR0aDoxLjA7Ii8+PGxpbmUgc3R5bGU9InN0cm9rZTojMTgxODE4O3N0cm9rZS13aWR0aDoxLjA7IiB4MT0iNzk5LjUiIHgyPSIxMTIzLjUiIHkxPSIzMTUyLjA4NTkiIHkyPSIzMTUyLjA4NTkiLz48dGV4dCBmaWxsPSIjMDAwMDAwIiBmb250LWZhbWlseT0ic2Fucy1zZXJpZiIgZm9udC1zaXplPSIxMyIgbGVuZ3RoQWRqdXN0PSJzcGFjaW5nIiB0ZXh0TGVuZ3RoPSIyMTMiIHg9IjgwNi41IiB5PSIzMTQ4LjQ2MDkiPnVwZGF0ZVBvc3RTdGF0dXMocG9zdElELCBhY3Rpb24pPC90ZXh0Pjxwb2x5Z29uIGZpbGw9IiMxODE4MTgiIHBvaW50cz0iODEwLjUsMzE3Niw4MDAuNSwzMTgwLDgxMC41LDMxODQsODA2LjUsMzE4MCIgc3R5bGU9InN0cm9rZTojMTgxODE4O3N0cm9rZS13aWR0aDoxLjA7Ii8+PGxpbmUgc3R5bGU9InN0cm9rZTojMTgxODE4O3N0cm9rZS13aWR0aDoxLjA7c3Ryb2tlLWRhc2hhcnJheToyLjAsMi4wOyIgeDE9IjgwNC41IiB4Mj0iMTEyOC41IiB5MT0iMzE4MCIgeTI9IjMxODAiLz48dGV4dCBmaWxsPSIjMDAwMDAwIiBmb250LWZhbWlseT0ic2Fucy1zZXJpZiIgZm9udC1zaXplPSIxMyIgbGVuZ3RoQWRqdXN0PSJzcGFjaW5nIiB0ZXh0TGVuZ3RoPSIxMTUiIHg9IjgxNi41IiB5PSIzMTc2LjM3NSI+TW9kZXJhdGlvbiByZXN1bHQ8L3RleHQ+PHBvbHlnb24gZmlsbD0iIzE4MTgxOCIgcG9pbnRzPSI0NjYuNSwzMjAzLjkxNDEsNDU2LjUsMzIwNy45MTQxLDQ2Ni41LDMyMTEuOTE0MSw0NjIuNSwzMjA3LjkxNDEiIHN0eWxlPSJzdHJva2U6IzE4MTgxODtzdHJva2Utd2lkdGg6MS4wOyIvPjxsaW5lIHN0eWxlPSJzdHJva2U6IzE4MTgxODtzdHJva2Utd2lkdGg6MS4wO3N0cm9rZS1kYXNoYXJyYXk6Mi4wLDIuMDsiIHgxPSI0NjAuNSIgeDI9Ijc5OC41IiB5MT0iMzIwNy45MTQxIiB5Mj0iMzIwNy45MTQxIi8+PHRleHQgZmlsbD0iIzAwMDAwMCIgZm9udC1mYW1pbHk9InNhbnMtc2VyaWYiIGZvbnQtc2l6ZT0iMTMiIGxlbmd0aEFkanVzdD0ic3BhY2luZyIgdGV4dExlbmd0aD0iMTYzIiB4PSI0NzIuNSIgeT0iMzIwNC4yODkxIj5Nb2RlcmF0aW9uIHN1Y2Nlc3MgW09VVF08L3RleHQ+PHBvbHlnb24gZmlsbD0iIzE4MTgxOCIgcG9pbnRzPSIxNzUsMzIzMS44MjgxLDE2NSwzMjM1LjgyODEsMTc1LDMyMzkuODI4MSwxNzEsMzIzNS44MjgxIiBzdHlsZT0ic3Ryb2tlOiMxODE4MTg7c3Ryb2tlLXdpZHRoOjEuMDsiLz48bGluZSBzdHlsZT0ic3Ryb2tlOiMxODE4MTg7c3Ryb2tlLXdpZHRoOjEuMDtzdHJva2UtZGFzaGFycmF5OjIuMCwyLjA7IiB4MT0iMTY5IiB4Mj0iNDU0LjUiIHkxPSIzMjM1LjgyODEiIHkyPSIzMjM1LjgyODEiLz48dGV4dCBmaWxsPSIjMDAwMDAwIiBmb250LWZhbWlseT0ic2Fucy1zZXJpZiIgZm9udC1zaXplPSIxMyIgbGVuZ3RoQWRqdXN0PSJzcGFjaW5nIiB0ZXh0TGVuZ3RoPSIxNzQiIHg9IjE4MSIgeT0iMzIzMi4yMDMxIj5Nb2RlcmF0aW9uIGNvbXBsZXRlZCBbT1VUXTwvdGV4dD48cmVjdCBmaWxsPSIjRUVFRUVFIiBoZWlnaHQ9IjMiIHN0eWxlPSJzdHJva2U6I0VFRUVFRTtzdHJva2Utd2lkdGg6MS4wOyIgd2lkdGg9IjExOTEuNSIgeD0iMCIgeT0iMzI2My43ODUyIi8+PGxpbmUgc3R5bGU9InN0cm9rZTojMDAwMDAwO3N0cm9rZS13aWR0aDoxLjA7IiB4MT0iMCIgeDI9IjExOTEuNSIgeTE9IjMyNjMuNzg1MiIgeTI9IjMyNjMuNzg1MiIvPjxsaW5lIHN0eWxlPSJzdHJva2U6IzAwMDAwMDtzdHJva2Utd2lkdGg6MS4wOyIgeDE9IjAiIHgyPSIxMTkxLjUiIHkxPSIzMjY2Ljc4NTIiIHkyPSIzMjY2Ljc4NTIiLz48cmVjdCBmaWxsPSIjRUVFRUVFIiBoZWlnaHQ9IjIxLjkxNDEiIHN0eWxlPSJzdHJva2U6IzAwMDAwMDtzdHJva2Utd2lkdGg6Mi4wOyIgd2lkdGg9IjI1OSIgeD0iNDY2LjI1IiB5PSIzMjUzLjgyODEiLz48dGV4dCBmaWxsPSIjMDAwMDAwIiBmb250LWZhbWlseT0ic2Fucy1zZXJpZiIgZm9udC1zaXplPSIxMyIgZm9udC13ZWlnaHQ9ImJvbGQiIGxlbmd0aEFkanVzdD0ic3BhY2luZyIgdGV4dExlbmd0aD0iMjM4IiB4PSI0NzIuMjUiIHk9IjMyNzAuMTE3MiI+Ik1vbml0b3IgU3lzdGVtIEFuYWx5dGljcyIgVXNlIENhc2U8L3RleHQ+PHBvbHlnb24gZmlsbD0iIzE4MTgxOCIgcG9pbnRzPSI0NDMuNSwzMzAxLjY1NjMsNDUzLjUsMzMwNS42NTYzLDQ0My41LDMzMDkuNjU2Myw0NDcuNSwzMzA1LjY1NjMiIHN0eWxlPSJzdHJva2U6IzE4MTgxODtzdHJva2Utd2lkdGg6MS4wOyIvPjxsaW5lIHN0eWxlPSJzdHJva2U6IzE4MTgxODtzdHJva2Utd2lkdGg6MS4wOyIgeDE9IjE2NCIgeDI9IjQ0OS41IiB5MT0iMzMwNS42NTYzIiB5Mj0iMzMwNS42NTYzIi8+PHRleHQgZmlsbD0iIzAwMDAwMCIgZm9udC1mYW1pbHk9InNhbnMtc2VyaWYiIGZvbnQtc2l6ZT0iMTMiIGxlbmd0aEFkanVzdD0ic3BhY2luZyIgdGV4dExlbmd0aD0iMTk1IiB4PSIxNzEiIHk9IjMzMDIuMDMxMyI+UmVxdWVzdCBhbmFseXRpY3MgcmVwb3J0IFtJTl08L3RleHQ+PHBvbHlnb24gZmlsbD0iIzE4MTgxOCIgcG9pbnRzPSI3ODcuNSwzMzI5LjU3MDMsNzk3LjUsMzMzMy41NzAzLDc4Ny41LDMzMzcuNTcwMyw3OTEuNSwzMzMzLjU3MDMiIHN0eWxlPSJzdHJva2U6IzE4MTgxODtzdHJva2Utd2lkdGg6MS4wOyIvPjxsaW5lIHN0eWxlPSJzdHJva2U6IzE4MTgxODtzdHJva2Utd2lkdGg6MS4wOyIgeDE9IjQ1NS41IiB4Mj0iNzkzLjUiIHkxPSIzMzMzLjU3MDMiIHkyPSIzMzMzLjU3MDMiLz48dGV4dCBmaWxsPSIjMDAwMDAwIiBmb250LWZhbWlseT0ic2Fucy1zZXJpZiIgZm9udC1zaXplPSIxMyIgbGVuZ3RoQWRqdXN0PSJzcGFjaW5nIiB0ZXh0TGVuZ3RoPSIxNDUiIHg9IjQ2Mi41IiB5PSIzMzI5Ljk0NTMiPmZldGNoU3lzdGVtQW5hbHl0aWNzKCk8L3RleHQ+PHBvbHlnb24gZmlsbD0iIzE4MTgxOCIgcG9pbnRzPSIxMTE3LjUsMzM1Ny40ODQ0LDExMjcuNSwzMzYxLjQ4NDQsMTExNy41LDMzNjUuNDg0NCwxMTIxLjUsMzM2MS40ODQ0IiBzdHlsZT0ic3Ryb2tlOiMxODE4MTg7c3Ryb2tlLXdpZHRoOjEuMDsiLz48bGluZSBzdHlsZT0ic3Ryb2tlOiMxODE4MTg7c3Ryb2tlLXdpZHRoOjEuMDsiIHgxPSI3OTkuNSIgeDI9IjExMjMuNSIgeTE9IjMzNjEuNDg0NCIgeTI9IjMzNjEuNDg0NCIvPjx0ZXh0IGZpbGw9IiMwMDAwMDAiIGZvbnQtZmFtaWx5PSJzYW5zLXNlcmlmIiBmb250LXNpemU9IjEzIiBsZW5ndGhBZGp1c3Q9InNwYWNpbmciIHRleHRMZW5ndGg9IjE2OCIgeD0iODA2LjUiIHk9IjMzNTcuODU5NCI+Z2VuZXJhdGVBbmFseXRpY3NSZXBvcnQoKTwvdGV4dD48cG9seWdvbiBmaWxsPSIjMTgxODE4IiBwb2ludHM9IjgxMC41LDMzODUuMzk4NCw4MDAuNSwzMzg5LjM5ODQsODEwLjUsMzM5My4zOTg0LDgwNi41LDMzODkuMzk4NCIgc3R5bGU9InN0cm9rZTojMTgxODE4O3N0cm9rZS13aWR0aDoxLjA7Ii8+PGxpbmUgc3R5bGU9InN0cm9rZTojMTgxODE4O3N0cm9rZS13aWR0aDoxLjA7c3Ryb2tlLWRhc2hhcnJheToyLjAsMi4wOyIgeDE9IjgwNC41IiB4Mj0iMTEyOC41IiB5MT0iMzM4OS4zOTg0IiB5Mj0iMzM4OS4zOTg0Ii8+PHRleHQgZmlsbD0iIzAwMDAwMCIgZm9udC1mYW1pbHk9InNhbnMtc2VyaWYiIGZvbnQtc2l6ZT0iMTMiIGxlbmd0aEFkanVzdD0ic3BhY2luZyIgdGV4dExlbmd0aD0iOTQiIHg9IjgxNi41IiB5PSIzMzg1Ljc3MzQiPkFuYWx5dGljcyBkYXRhPC90ZXh0Pjxwb2x5Z29uIGZpbGw9IiMxODE4MTgiIHBvaW50cz0iNDY2LjUsMzQxMy4zMTI1LDQ1Ni41LDM0MTcuMzEyNSw0NjYuNSwzNDIxLjMxMjUsNDYyLjUsMzQxNy4zMTI1IiBzdHlsZT0ic3Ryb2tlOiMxODE4MTg7c3Ryb2tlLXdpZHRoOjEuMDsiLz48bGluZSBzdHlsZT0ic3Ryb2tlOiMxODE4MTg7c3Ryb2tlLXdpZHRoOjEuMDtzdHJva2UtZGFzaGFycmF5OjIuMCwyLjA7IiB4MT0iNDYwLjUiIHgyPSI3OTguNSIgeTE9IjM0MTcuMzEyNSIgeTI9IjM0MTcuMzEyNSIvPjx0ZXh0IGZpbGw9IiMwMDAwMDAiIGZvbnQtZmFtaWx5PSJzYW5zLXNlcmlmIiBmb250LXNpemU9IjEzIiBsZW5ndGhBZGp1c3Q9InNwYWNpbmciIHRleHRMZW5ndGg9IjIwMSIgeD0iNDcyLjUiIHk9IjM0MTMuNjg3NSI+RGlzcGxheSBhbmFseXRpY3MgcmVwb3J0IFtPVVRdPC90ZXh0Pjxwb2x5Z29uIGZpbGw9IiMxODE4MTgiIHBvaW50cz0iMTc1LDM0NDEuMjI2NiwxNjUsMzQ0NS4yMjY2LDE3NSwzNDQ5LjIyNjYsMTcxLDM0NDUuMjI2NiIgc3R5bGU9InN0cm9rZTojMTgxODE4O3N0cm9rZS13aWR0aDoxLjA7Ii8+PGxpbmUgc3R5bGU9InN0cm9rZTojMTgxODE4O3N0cm9rZS13aWR0aDoxLjA7c3Ryb2tlLWRhc2hhcnJheToyLjAsMi4wOyIgeDE9IjE2OSIgeDI9IjQ1NC41IiB5MT0iMzQ0NS4yMjY2IiB5Mj0iMzQ0NS4yMjY2Ii8+PHRleHQgZmlsbD0iIzAwMDAwMCIgZm9udC1mYW1pbHk9InNhbnMtc2VyaWYiIGZvbnQtc2l6ZT0iMTMiIGxlbmd0aEFkanVzdD0ic3BhY2luZyIgdGV4dExlbmd0aD0iMjE1IiB4PSIxODEiIHk9IjM0NDEuNjAxNiI+QW5hbHl0aWNzIHJlcG9ydCBkaXNwbGF5ZWQgW09VVF08L3RleHQ+PHJlY3QgZmlsbD0iI0VFRUVFRSIgaGVpZ2h0PSIzIiBzdHlsZT0ic3Ryb2tlOiNFRUVFRUU7c3Ryb2tlLXdpZHRoOjEuMDsiIHdpZHRoPSIxMTkxLjUiIHg9IjAiIHk9IjM0NzMuMTgzNiIvPjxsaW5lIHN0eWxlPSJzdHJva2U6IzAwMDAwMDtzdHJva2Utd2lkdGg6MS4wOyIgeDE9IjAiIHgyPSIxMTkxLjUiIHkxPSIzNDczLjE4MzYiIHkyPSIzNDczLjE4MzYiLz48bGluZSBzdHlsZT0ic3Ryb2tlOiMwMDAwMDA7c3Ryb2tlLXdpZHRoOjEuMDsiIHgxPSIwIiB4Mj0iMTE5MS41IiB5MT0iMzQ3Ni4xODM2IiB5Mj0iMzQ3Ni4xODM2Ii8+PHJlY3QgZmlsbD0iI0VFRUVFRSIgaGVpZ2h0PSIyMS45MTQxIiBzdHlsZT0ic3Ryb2tlOiMwMDAwMDA7c3Ryb2tlLXdpZHRoOjIuMDsiIHdpZHRoPSIxOTQiIHg9IjQ5OC43NSIgeT0iMzQ2My4yMjY2Ii8+PHRleHQgZmlsbD0iIzAwMDAwMCIgZm9udC1mYW1pbHk9InNhbnMtc2VyaWYiIGZvbnQtc2l6ZT0iMTMiIGZvbnQtd2VpZ2h0PSJib2xkIiBsZW5ndGhBZGp1c3Q9InNwYWNpbmciIHRleHRMZW5ndGg9IjE3MyIgeD0iNTA0Ljc1IiB5PSIzNDc5LjUxNTYiPiJSZXNldCBQYXNzd29yZCIgVXNlIENhc2U8L3RleHQ+PHBvbHlnb24gZmlsbD0iIzE4MTgxOCIgcG9pbnRzPSI0NDMuNSwzNTExLjA1NDcsNDUzLjUsMzUxNS4wNTQ3LDQ0My41LDM1MTkuMDU0Nyw0NDcuNSwzNTE1LjA1NDciIHN0eWxlPSJzdHJva2U6IzE4MTgxODtzdHJva2Utd2lkdGg6MS4wOyIvPjxsaW5lIHN0eWxlPSJzdHJva2U6IzE4MTgxODtzdHJva2Utd2lkdGg6MS4wOyIgeDE9IjQ3LjUiIHgyPSI0NDkuNSIgeTE9IjM1MTUuMDU0NyIgeTI9IjM1MTUuMDU0NyIvPjx0ZXh0IGZpbGw9IiMwMDAwMDAiIGZvbnQtZmFtaWx5PSJzYW5zLXNlcmlmIiBmb250LXNpemU9IjEzIiBsZW5ndGhBZGp1c3Q9InNwYWNpbmciIHRleHRMZW5ndGg9IjE4MyIgeD0iNTQuNSIgeT0iMzUxMS40Mjk3Ij5SZXF1ZXN0IHBhc3N3b3JkIHJlc2V0IFtJTl08L3RleHQ+PHBvbHlnb24gZmlsbD0iIzE4MTgxOCIgcG9pbnRzPSI3ODcuNSwzNTM4Ljk2ODgsNzk3LjUsMzU0Mi45Njg4LDc4Ny41LDM1NDYuOTY4OCw3OTEuNSwzNTQyLjk2ODgiIHN0eWxlPSJzdHJva2U6IzE4MTgxODtzdHJva2Utd2lkdGg6MS4wOyIvPjxsaW5lIHN0eWxlPSJzdHJva2U6IzE4MTgxODtzdHJva2Utd2lkdGg6MS4wOyIgeDE9IjQ1NS41IiB4Mj0iNzkzLjUiIHkxPSIzNTQyLjk2ODgiIHkyPSIzNTQyLjk2ODgiLz48dGV4dCBmaWxsPSIjMDAwMDAwIiBmb250LWZhbWlseT0ic2Fucy1zZXJpZiIgZm9udC1zaXplPSIxMyIgbGVuZ3RoQWRqdXN0PSJzcGFjaW5nIiB0ZXh0TGVuZ3RoPSIxMzMiIHg9IjQ2Mi41IiB5PSIzNTM5LjM0MzgiPnNlbmRSZXNldExpbmsoZW1haWwpPC90ZXh0Pjxwb2x5Z29uIGZpbGw9IiMxODE4MTgiIHBvaW50cz0iMTExNy41LDM1NjYuODgyOCwxMTI3LjUsMzU3MC44ODI4LDExMTcuNSwzNTc0Ljg4MjgsMTEyMS41LDM1NzAuODgyOCIgc3R5bGU9InN0cm9rZTojMTgxODE4O3N0cm9rZS13aWR0aDoxLjA7Ii8+PGxpbmUgc3R5bGU9InN0cm9rZTojMTgxODE4O3N0cm9rZS13aWR0aDoxLjA7IiB4MT0iNzk5LjUiIHgyPSIxMTIzLjUiIHkxPSIzNTcwLjg4MjgiIHkyPSIzNTcwLjg4MjgiLz48dGV4dCBmaWxsPSIjMDAwMDAwIiBmb250LWZhbWlseT0ic2Fucy1zZXJpZiIgZm9udC1zaXplPSIxMyIgbGVuZ3RoQWRqdXN0PSJzcGFjaW5nIiB0ZXh0TGVuZ3RoPSIxNTciIHg9IjgwNi41IiB5PSIzNTY3LjI1NzgiPnZhbGlkYXRlVXNlckVtYWlsKGVtYWlsKTwvdGV4dD48cGF0aCBkPSJNMTAsMzU4NS44ODI4IEw3NCwzNTg1Ljg4MjggTDc0LDM1OTEuNzk2OSBMNjQsMzYwMS43OTY5IEwxMCwzNjAxLjc5NjkgTDEwLDM1ODUuODgyOCAiIGZpbGw9IiNFRUVFRUUiIHN0eWxlPSJzdHJva2U6IzAwMDAwMDtzdHJva2Utd2lkdGg6MS41OyIvPjxyZWN0IGZpbGw9Im5vbmUiIGhlaWdodD0iMTk3LjE3MTkiIHN0eWxlPSJzdHJva2U6IzAwMDAwMDtzdHJva2Utd2lkdGg6MS41OyIgd2lkdGg9IjExNzEuNSIgeD0iMTAiIHk9IjM1ODUuODgyOCIvPjx0ZXh0IGZpbGw9IiMwMDAwMDAiIGZvbnQtZmFtaWx5PSJzYW5zLXNlcmlmIiBmb250LXNpemU9IjEzIiBmb250LXdlaWdodD0iYm9sZCIgbGVuZ3RoQWRqdXN0PSJzcGFjaW5nIiB0ZXh0TGVuZ3RoPSIxOSIgeD0iMjUiIHk9IjM1OTkuMTcxOSI+YWx0PC90ZXh0Pjx0ZXh0IGZpbGw9IiMwMDAwMDAiIGZvbnQtZmFtaWx5PSJzYW5zLXNlcmlmIiBmb250LXNpemU9IjExIiBmb250LXdlaWdodD0iYm9sZCIgbGVuZ3RoQWRqdXN0PSJzcGFjaW5nIiB0ZXh0TGVuZ3RoPSI4NCIgeD0iODkiIHk9IjM1OTguMjgxMyI+W0VtYWlsIEV4aXN0c108L3RleHQ+PHBvbHlnb24gZmlsbD0iIzE4MTgxOCIgcG9pbnRzPSI4MTAuNSwzNjE3LjcxMDksODAwLjUsMzYyMS43MTA5LDgxMC41LDM2MjUuNzEwOSw4MDYuNSwzNjIxLjcxMDkiIHN0eWxlPSJzdHJva2U6IzE4MTgxODtzdHJva2Utd2lkdGg6MS4wOyIvPjxsaW5lIHN0eWxlPSJzdHJva2U6IzE4MTgxODtzdHJva2Utd2lkdGg6MS4wO3N0cm9rZS1kYXNoYXJyYXk6Mi4wLDIuMDsiIHgxPSI4MDQuNSIgeDI9IjExMjguNSIgeTE9IjM2MjEuNzEwOSIgeTI9IjM2MjEuNzEwOSIvPjx0ZXh0IGZpbGw9IiMwMDAwMDAiIGZvbnQtZmFtaWx5PSJzYW5zLXNlcmlmIiBmb250LXNpemU9IjEzIiBsZW5ndGhBZGp1c3Q9InNwYWNpbmciIHRleHRMZW5ndGg9IjEwMSIgeD0iODE2LjUiIHk9IjM2MTguMDg1OSI+UmVzZXQgbGluayBzZW50PC90ZXh0Pjxwb2x5Z29uIGZpbGw9IiMxODE4MTgiIHBvaW50cz0iNDY2LjUsMzY0NS42MjUsNDU2LjUsMzY0OS42MjUsNDY2LjUsMzY1My42MjUsNDYyLjUsMzY0OS42MjUiIHN0eWxlPSJzdHJva2U6IzE4MTgxODtzdHJva2Utd2lkdGg6MS4wOyIvPjxsaW5lIHN0eWxlPSJzdHJva2U6IzE4MTgxODtzdHJva2Utd2lkdGg6MS4wO3N0cm9rZS1kYXNoYXJyYXk6Mi4wLDIuMDsiIHgxPSI0NjAuNSIgeDI9Ijc5OC41IiB5MT0iMzY0OS42MjUiIHkyPSIzNjQ5LjYyNSIvPjx0ZXh0IGZpbGw9IiMwMDAwMDAiIGZvbnQtZmFtaWx5PSJzYW5zLXNlcmlmIiBmb250LXNpemU9IjEzIiBsZW5ndGhBZGp1c3Q9InNwYWNpbmciIHRleHRMZW5ndGg9IjE0NiIgeD0iNDcyLjUiIHk9IjM2NDYiPlJlc2V0IGVtYWlsIHNlbnQgW09VVF08L3RleHQ+PHBvbHlnb24gZmlsbD0iIzE4MTgxOCIgcG9pbnRzPSI1OC41LDM2NzMuNTM5MSw0OC41LDM2NzcuNTM5MSw1OC41LDM2ODEuNTM5MSw1NC41LDM2NzcuNTM5MSIgc3R5bGU9InN0cm9rZTojMTgxODE4O3N0cm9rZS13aWR0aDoxLjA7Ii8+PGxpbmUgc3R5bGU9InN0cm9rZTojMTgxODE4O3N0cm9rZS13aWR0aDoxLjA7c3Ryb2tlLWRhc2hhcnJheToyLjAsMi4wOyIgeDE9IjUyLjUiIHgyPSI0NTQuNSIgeTE9IjM2NzcuNTM5MSIgeTI9IjM2NzcuNTM5MSIvPjx0ZXh0IGZpbGw9IiMwMDAwMDAiIGZvbnQtZmFtaWx5PSJzYW5zLXNlcmlmIiBmb250LXNpemU9IjEzIiBsZW5ndGhBZGp1c3Q9InNwYWNpbmciIHRleHRMZW5ndGg9IjIxNCIgeD0iNjQuNSIgeT0iMzY3My45MTQxIj5DaGVjayBlbWFpbCBmb3IgcmVzZXQgbGluayBbT1VUXTwvdGV4dD48bGluZSBzdHlsZT0ic3Ryb2tlOiMwMDAwMDA7c3Ryb2tlLXdpZHRoOjEuMDtzdHJva2UtZGFzaGFycmF5OjIuMCwyLjA7IiB4MT0iMTAiIHgyPSIxMTgxLjUiIHkxPSIzNjg2LjUzOTEiIHkyPSIzNjg2LjUzOTEiLz48dGV4dCBmaWxsPSIjMDAwMDAwIiBmb250LWZhbWlseT0ic2Fucy1zZXJpZiIgZm9udC1zaXplPSIxMSIgZm9udC13ZWlnaHQ9ImJvbGQiIGxlbmd0aEFkanVzdD0ic3BhY2luZyIgdGV4dExlbmd0aD0iMTMyIiB4PSIxNSIgeT0iMzY5Ni45Mzc1Ij5bRW1haWwgRG9lcyBOb3QgRXhpc3RdPC90ZXh0Pjxwb2x5Z29uIGZpbGw9IiMxODE4MTgiIHBvaW50cz0iODEwLjUsMzcxNS4yMjY2LDgwMC41LDM3MTkuMjI2Niw4MTAuNSwzNzIzLjIyNjYsODA2LjUsMzcxOS4yMjY2IiBzdHlsZT0ic3Ryb2tlOiMxODE4MTg7c3Ryb2tlLXdpZHRoOjEuMDsiLz48bGluZSBzdHlsZT0ic3Ryb2tlOiMxODE4MTg7c3Ryb2tlLXdpZHRoOjEuMDtzdHJva2UtZGFzaGFycmF5OjIuMCwyLjA7IiB4MT0iODA0LjUiIHgyPSIxMTI4LjUiIHkxPSIzNzE5LjIyNjYiIHkyPSIzNzE5LjIyNjYiLz48dGV4dCBmaWxsPSIjMDAwMDAwIiBmb250LWZhbWlseT0ic2Fucy1zZXJpZiIgZm9udC1zaXplPSIxMyIgbGVuZ3RoQWRqdXN0PSJzcGFjaW5nIiB0ZXh0TGVuZ3RoPSIxMDAiIHg9IjgxNi41IiB5PSIzNzE1LjYwMTYiPkVtYWlsIG5vdCBmb3VuZDwvdGV4dD48cG9seWdvbiBmaWxsPSIjMTgxODE4IiBwb2ludHM9IjQ2Ni41LDM3NDMuMTQwNiw0NTYuNSwzNzQ3LjE0MDYsNDY2LjUsMzc1MS4xNDA2LDQ2Mi41LDM3NDcuMTQwNiIgc3R5bGU9InN0cm9rZTojMTgxODE4O3N0cm9rZS13aWR0aDoxLjA7Ii8+PGxpbmUgc3R5bGU9InN0cm9rZTojMTgxODE4O3N0cm9rZS13aWR0aDoxLjA7c3Ryb2tlLWRhc2hhcnJheToyLjAsMi4wOyIgeDE9IjQ2MC41IiB4Mj0iNzk4LjUiIHkxPSIzNzQ3LjE0MDYiIHkyPSIzNzQ3LjE0MDYiLz48dGV4dCBmaWxsPSIjMDAwMDAwIiBmb250LWZhbWlseT0ic2Fucy1zZXJpZiIgZm9udC1zaXplPSIxMyIgbGVuZ3RoQWRqdXN0PSJzcGFjaW5nIiB0ZXh0TGVuZ3RoPSIxNzQiIHg9IjQ3Mi41IiB5PSIzNzQzLjUxNTYiPlJlc2V0IHJlcXVlc3QgZmFpbGVkIFtPVVRdPC90ZXh0Pjxwb2x5Z29uIGZpbGw9IiMxODE4MTgiIHBvaW50cz0iNTguNSwzNzcxLjA1NDcsNDguNSwzNzc1LjA1NDcsNTguNSwzNzc5LjA1NDcsNTQuNSwzNzc1LjA1NDciIHN0eWxlPSJzdHJva2U6IzE4MTgxODtzdHJva2Utd2lkdGg6MS4wOyIvPjxsaW5lIHN0eWxlPSJzdHJva2U6IzE4MTgxODtzdHJva2Utd2lkdGg6MS4wO3N0cm9rZS1kYXNoYXJyYXk6Mi4wLDIuMDsiIHgxPSI1Mi41IiB4Mj0iNDU0LjUiIHkxPSIzNzc1LjA1NDciIHkyPSIzNzc1LjA1NDciLz48dGV4dCBmaWxsPSIjMDAwMDAwIiBmb250LWZhbWlseT0ic2Fucy1zZXJpZiIgZm9udC1zaXplPSIxMyIgbGVuZ3RoQWRqdXN0PSJzcGFjaW5nIiB0ZXh0TGVuZ3RoPSIxNzMiIHg9IjY0LjUiIHk9IjM3NzEuNDI5NyI+RW1haWwgbm90IHJlZ2lzdGVyZWQgW09VVF08L3RleHQ+PCEtLVNSQz1bZExkUlJqaXU0N3ROTG4xdktXM3QxbUFhV0VpYVlvb0lEOWthbkc5NTduWGZ2NzBaYUxnSUlqUnotWHJVOVRib0hCS0ZITXBoZDFjVTZTdUNBTGZlOFNjWnhhaFdFZ0ZzcW90LUFRSl9pMnVSbmhGaU1OSXlmNzk3Umx3LWwtT1FQNEtCbzBoMWpIR3JrUTg1Qk03WkZqS1dDc0hXVWFTa0g0Q1BsbkticjVic1ZhdkVSaUlNTkZDSnlhcTFzTDN5eF9teXl5UjlmeXlaeVpEb1FWdWFYR0pwQ3dFcjhaLWt4dHZjakRSOHlLUGhMZjlEX3NENnlELUdXN24ySGF6LUhqMG91d0lZaDhRSV9GWnd4VWJkMVpLd3kzczF2X0YxMGktOGpLeXJNRHZ5dUVJZjlUVzc2OUExNmNVYTBic3llMHBvV2NnUTBfdklocVhCYk5lTmlkR1NXLVZqTVd3VEM3WTJOajBaRFd5YVRJZjhLMXNBdzVIOGFLcnJIRzVBMVRydXdRQnZINS0xdDhES1dnQ1E2RS1yS2xYT1d5WjQ0M3pnQWxLSDJYVmotS1dtcGIxdTNKcW94cjJOd3VpTEVIYW1kdm5jaXE3UDBXU3ZlbGdoMHdNUHUyaFZ1dmVGSmVIYzJPNnZPQWdqd094eTZxNnI0MnN2bVhxOGo3WTl0emptN1BVcFVzd085ZkloVHhIWXpLbEJ2Yk9BNC0ycjFLUnZXYjdwai1DeWpTNlZ2d2tPNFVoTk9LbUlXYjNHa2tYZ1pDQTNKTENMYVZFSTNuRDlHWWthTmdBenNuT1hvdV9sWUlGZi1aMjJzbXRvWHktZDdsOEJneS0zZTZMM3N5R2p5VzBzMzA1NUYyVTZmSS03anFtZm5oU0p0aW5peG10Yk5FWU96cUd3OG9qSVlBUWowUi1YYUw5WExBTklYeUtwb1VmS2s4OVBseEdPd0FHMkliN0V0SjMzempDYmhPRy0wMnVMdUlLNm5neS1qUFo2bEY2SElRY2RLdWNtTnJSXzU1WG9ELVhMbnFzaklRb2FHMk5NWUdlQkhrNlgzNUhnM1JOVFFERlpTaW12a0tsT2gxQXFQRjA2cVRxUmZkSDBwd2psZFlRWTZoZ3lQQ1VFTGNmNWo1S3BFZUVncjUzQ3J5dGwzRHVac093S2VCNFRnb0s1VDJKV3hpOEh2OTRvRVFpRnozbkFESV9rUGR6MUluQ3h3WDNweXdZMkRjVUxMSGlKa3ZTb0NWemVNS1BsUnc1djdaSVhxUzlkelVqUUN2SmpTUWFOcmF4cHBPbE9DbzJJT21MaVJFckRvTEFkb01YcS1nMElIeWQtR0hYZ3c4NUxMelV4T0stdmItQURiVFhJaTROWVJjXzg1SzN2SjhsTnI0QlhQZUpBZW12ZHdjbFVUZGdjWjBNUncyTW9PVkNIbnNWaE90bkpRWWx3MWU0eEhZb3UtaEhoT0tLUTU4TGs4TjRfQUpwM0I2QVNwdVgteFVYaWNSZ2RmWEdSdnlQQ2ZudWFkd2NPck9YRndyeHZxNE9rZ1VKYTJvc3RlMTlKT25FUVZlRUhIRUt1MzRVQ3lETXdiYTNCTk5vd2RGN1NrYTJlSHM2UnVrQ2lrU0ZRNnphSnl3SHVXVThyV2htZGc0b0NTNW4xLVpwbkpjTGZWT3FhcC1QSlVodHIycEt5d05ibjlwSWhUaXhLTTltS0xKczA2bjlNLUFibWQwUGhic0N0dmI0cDgtQU85M2ZQOTJWNTVvZFV5UDR3dTZOMEJ2ZWpXbGJlRkx5bU40bzFKS3hVWU51clBGczZ6T1MtcnYwT2hTa2NqUVM0WG9TckpZOUItb0NOMHBMZWk5eUtGZEh6R2o3QXRCOEN6eVJsQi1fY2FGcnRiWldMemZIaFdxRE93SFdGd3JHdXVCWGg5ekRmNXZ3Q2NXWENKS2M1bmRqcGRnVWw3VlFOZjc3M2pmU0tmZkgxOHd2Mi1lTFB6WjlicjlXMjltdVU0cjBfd0NIR3NKMXpoSWdHSHVGYWxaLUNhS0NEOGtJdDJRaU5KOFRrZ0VqRGhtU1NVVDF1SEhIc1hSQWg4SUxrc0JmeGxhU0ZkRUlRWnJvMC11NVdNUlg2VWhZNWJpVFl2YzBaVUYxcEVjUjZRdGtreHdUQnREWDVQeVVGbEdQV0J0Z2REamNSRUhuTERUcmt4TUlGRndOVnBUZFFWLU1tNm1WRGJtdHFlR1R1YWRrWHpEdlhBNjVZeXl3dDFocGFWNWFEV0x4TzhwaFBrejM2d01zd0MydHdBdmhhLXhWUllDeVRWY0xEQnBadjY3cVVEVE1Ub1hyb3ZKcjlBYTZ6LSAtdWtCMmNOVXoxQ29SN0FaRzNYYmNhbFFKNm92Z040SmNiZW9EaFN5c1hNZkFRaEFzNHFlRm16dUFBNFRQUVp1TnA5cE40MEZMWXBVT2hpNFVFa3lYVmF2LTRnRnJILWxWX3VWYV9zX0xZMTlsVi1MU0oyTlhwVU85VzQwaHNhN3JrcER1b19rZlNYMlBnN0xwM2NCU1libUdJYWNHdGo1LUpvRndSeVRNSkFMUTFua0tPTlo0RjlldkEzTVRDTWJ0UVNDbVNPM3A5dFRoQXRGSFpfdDI4azE4dkZVNHZtZ3FhVVJtdEtORXhRZU5CUE9pOFdDM2hJVnhvV3RmdzRCUmU5U1paZl9HeTBdLS0+PC9nPjwvc3ZnPg==;" vertex="1" parent="1">
            <mxGeometry x="-90" y="-360" width="1198" height="3879" as="geometry" />
          </mxCell>
        </UserObject>
      </root>
    </mxGraphModel>
  </diagram>
</mxfile>
